<svg id="Layer_1" data-name="Layer 1" xmlns="http://www.w3.org/2000/svg" xmlns:xlink="http://www.w3.org/1999/xlink" viewBox="0 0 571 351"><defs><style>.cls-1,.cls-4,.cls-9{fill:#002168;}.cls-1,.cls-2,.cls-3,.cls-5,.cls-7{clip-rule:evenodd;}.cls-11,.cls-13,.cls-2{fill:#ef9900;}.cls-14,.cls-16,.cls-3{fill:#ffa900;}.cls-26,.cls-5,.cls-6{fill:#736ffe;}.cls-32,.cls-7,.cls-8{fill:#009b5f;}.cls-11,.cls-14,.cls-26,.cls-32,.cls-9{fill-rule:evenodd;}.cls-10{clip-path:url(#clip-path);}.cls-12{clip-path:url(#clip-path-2);}.cls-15{clip-path:url(#clip-path-3);}.cls-17{clip-path:url(#clip-path-4);}.cls-18{clip-path:url(#clip-path-5);}.cls-19{clip-path:url(#clip-path-6);}.cls-20{clip-path:url(#clip-path-7);}.cls-21{clip-path:url(#clip-path-8);}.cls-22{fill:#9ee5a8;opacity:0.2;}.cls-23{fill:#d5e3dd;opacity:0.45;}.cls-24{clip-path:url(#clip-path-9);}.cls-25{clip-path:url(#clip-path-10);}.cls-27{clip-path:url(#clip-path-11);}.cls-28{clip-path:url(#clip-path-12);}.cls-29{clip-path:url(#clip-path-13);}.cls-30{clip-path:url(#clip-path-15);}.cls-31{clip-path:url(#clip-path-16);}.cls-33{clip-path:url(#clip-path-17);}.cls-34{clip-path:url(#clip-path-18);}.cls-35{fill:#fff9eb;}.cls-36{fill:#47e8c8;}.cls-37{fill:#30ceaf;}.cls-38{fill:none;stroke:#002168;stroke-linecap:round;stroke-miterlimit:10;stroke-width:2px;}.cls-39{fill:#00b576;}</style><clipPath id="clip-path"><path class="cls-1" d="M69.84-859.77c-2.14-11.06-1.28-22.64,5.23-32.48,18.77-28.36,56.2,1.37,55.77,20.79s-22.74,56.7-34.58,53.52c-4.72-1.27-12-8.83-17.92-19.27L61.52-794.36,28.41-813.07Z"/></clipPath><clipPath id="clip-path-2"><path class="cls-2" d="M60.48-828.63l22,12.22c-18.26,53.32-2.81,99.69,70.61,121l-1,28.16c-69.1,2.48-152.89,17-111.29-107C47.26-793.24,52.77-813.27,60.48-828.63Z"/></clipPath><clipPath id="clip-path-3"><path class="cls-3" d="M52.37-840.53l30.75,24.12c-27.91,59.27-26.83,106-37.66,154.12L-39-711.3C-49.34-698.89-60.72-673-69-662.68l-27.92-22.76c24.82-85.85,74.5-134.14,147-156.18l2.26,1.06Z"/></clipPath><clipPath id="clip-path-4"><path class="cls-2" d="M21.59-784.51q-33.9,51.15-42.42,83.42L-39-711.49C-20.08-738.67-.2-763.18,21.59-784.51Z"/></clipPath><clipPath id="clip-path-5"><path class="cls-1" d="M69.84-418.77c-2.14-11.06-1.28-22.64,5.23-32.48,18.77-28.36,56.2,1.37,55.77,20.79s-22.74,56.7-34.58,53.52c-4.72-1.27-12-8.83-17.92-19.27L61.52-353.36,28.41-372.07Z"/></clipPath><clipPath id="clip-path-6"><path class="cls-2" d="M60.48-387.63l22,12.22c-18.26,53.32-2.81,99.69,70.61,121l-1,28.16c-69.1,2.48-152.89,17-111.29-107C47.26-352.24,52.77-372.27,60.48-387.63Z"/></clipPath><clipPath id="clip-path-7"><path class="cls-3" d="M52.37-399.53l30.75,24.12c-27.91,59.27-26.83,106-37.66,154.12L-39-270.3C-49.34-257.89-60.72-232-69-221.68l-27.92-22.76c24.82-85.85,74.5-134.14,147-156.18l2.26,1.06Z"/></clipPath><clipPath id="clip-path-8"><path class="cls-2" d="M21.59-343.51q-33.9,51.15-42.42,83.42L-39-270.49C-20.08-297.67-.2-322.18,21.59-343.51Z"/></clipPath><clipPath id="clip-path-9"><path class="cls-1" d="M113,80.1c6.39,23.55,14.72,76.5,6.22,84.8H65.41c0-.1,0-.19,0-.29A39.86,39.86,0,0,1,30,125V86.05A39.87,39.87,0,0,1,69.83,46.18h3.71A39.87,39.87,0,0,1,113,80.1Z"/></clipPath><clipPath id="clip-path-10"><rect class="cls-4" x="-64.61" y="-3.88" width="252.18" height="192.85"/></clipPath><clipPath id="clip-path-11"><path class="cls-5" d="M50.84,117.56c-8.54-10-14.32-22.33-13.36-36.1,2.79-39.68,58-30.95,68.77-10.92s9.47,70.83-4.42,74.41c-5.54,1.43-17.33-2.07-29.34-9.31L80,189H35.52Z"/></clipPath><clipPath id="clip-path-12"><rect class="cls-6" x="-64.61" y="-3.88" width="252.18" height="192.85"/></clipPath><clipPath id="clip-path-13"><path class="cls-1" d="M62.87,110.85C64.92,132.88,64.1,158,58,164H4.22c-3-52.06,26-31.9,26-80.91,1.8-1.77,3.51-3.51,5.2-5l-.06-1.44Q49.29,48,70.76,48c21.47,0,28.25,10,34,18.47-4.32,14.81-21.06,17-35.94,26.23a10.2,10.2,0,1,0-6.43,18.12Z"/></clipPath><clipPath id="clip-path-15"><path class="cls-5" d="M219.1,257.09l28.27-15.53q6-22.63,14.23-22.78c4.23-2-3.15,17.1,4.89,15.44s27.64-16.24,31-13.27c5,4.38.54,17.83-4.71,24.52-9.82,12.51-17.94,16.78-38,22.38q-15.75,4.39-34.06,17.61ZM117.21,221.35l58.6-24.21q24.88-29.14,27.82-24.3c2.94,4.86-3.45,9.15-2,12.75s12.58,3.24,23.12,2.44,7.47,3.89,4.93,6.2q-16.17,9.65-40.23,16.11l-59.21,43.35Z"/></clipPath><clipPath id="clip-path-16"><rect class="cls-6" x="-175.87" y="148.17" width="476.55" height="346.75"/></clipPath><clipPath id="clip-path-17"><path class="cls-7" d="M87,219.5c22.54-.24,52.61-5,84.68-25.36l12.6,28.09c-22.13,22-53.24,40-80.44,39.23C82.35,260.86,71.4,234.93,87,219.5Z"/></clipPath><clipPath id="clip-path-18"><rect class="cls-8" x="-175.87" y="148.17" width="476.55" height="346.75"/></clipPath></defs><title>3 jogos</title><path class="cls-9" d="M69.84-859.77c-2.14-11.06-1.28-22.64,5.23-32.48,18.77-28.36,56.2,1.37,55.77,20.79s-22.74,56.7-34.58,53.52c-4.72-1.27-12-8.83-17.92-19.27L61.52-794.36,28.41-813.07Z"/><g class="cls-10"><rect class="cls-4" x="-1875.91" y="-453.17" width="3376.05" height="1134.86" transform="translate(-240.46 -99.26) rotate(-72.53)"/></g><path class="cls-11" d="M60.48-828.63l22,12.22c-18.26,53.32-2.81,99.69,70.61,121l-1,28.16c-69.1,2.48-152.89,17-111.29-107C47.26-793.24,52.77-813.27,60.48-828.63Z"/><g class="cls-12"><rect class="cls-13" x="-1527.3" y="-452.53" width="3123.31" height="1049.9" transform="translate(-40.39 101.37) rotate(-85.79)"/></g><path class="cls-14" d="M52.37-840.53l30.75,24.12c-27.91,59.27-26.83,106-37.66,154.12L-39-711.3C-49.34-698.89-60.72-673-69-662.68l-27.92-22.76c24.82-85.85,74.5-134.14,147-156.18l2.26,1.06Z"/><g class="cls-15"><rect class="cls-16" x="-1527.3" y="-452.53" width="3123.31" height="1049.9" transform="translate(-40.39 101.37) rotate(-85.79)"/></g><path class="cls-11" d="M21.59-784.51q-33.9,51.15-42.42,83.42L-39-711.49C-20.08-738.67-.2-763.18,21.59-784.51Z"/><g class="cls-17"><rect class="cls-13" x="-1581.53" y="-453.85" width="3123.31" height="1049.9" transform="translate(-87.09 40.55) rotate(-81.18)"/></g><path class="cls-9" d="M69.84-418.77c-2.14-11.06-1.28-22.64,5.23-32.48,18.77-28.36,56.2,1.37,55.77,20.79s-22.74,56.7-34.58,53.52c-4.72-1.27-12-8.83-17.92-19.27L61.52-353.36,28.41-372.07Z"/><g class="cls-18"><rect class="cls-4" x="-1875.91" y="-12.17" width="3376.05" height="1134.86" transform="translate(-661.11 209.33) rotate(-72.53)"/></g><path class="cls-11" d="M60.48-387.63l22,12.22c-18.26,53.32-2.81,99.69,70.61,121l-1,28.16c-69.1,2.48-152.89,17-111.29-107C47.26-352.24,52.77-372.27,60.48-387.63Z"/><g class="cls-19"><rect class="cls-13" x="-1527.3" y="-11.53" width="3123.31" height="1049.9" transform="translate(-480.2 510) rotate(-85.79)"/></g><path class="cls-14" d="M52.37-399.53l30.75,24.12c-27.91,59.27-26.83,106-37.66,154.12L-39-270.3C-49.34-257.89-60.72-232-69-221.68l-27.92-22.76c24.82-85.85,74.5-134.14,147-156.18l2.26,1.06Z"/><g class="cls-20"><rect class="cls-16" x="-1527.3" y="-11.53" width="3123.31" height="1049.9" transform="translate(-480.2 510) rotate(-85.79)"/></g><path class="cls-11" d="M21.59-343.51q-33.9,51.15-42.42,83.42L-39-270.49C-20.08-297.67-.2-322.18,21.59-343.51Z"/><g class="cls-21"><rect class="cls-13" x="-1581.53" y="-12.85" width="3123.31" height="1049.9" transform="translate(-522.88 413.92) rotate(-81.18)"/></g><path class="cls-22" d="M19.66,197.55S-3,286.85,102.92,321.67s143.79,19.68,143.79,19.68,59-13.63,128.66-46.93,112-28.76,112-28.76,65.09,1.52,78.71-78.71S517.66,64.35,464.68,64.35,326.94,28,326.94,28,224-17.39,139.24,37.1,19.66,197.55,19.66,197.55Z"/><path class="cls-23" d="M21.4,246c7.44,26.8,28.16,58.15,81.52,75.68,106,34.81,143.79,19.68,143.79,19.68s59-13.63,128.66-46.93,112-28.76,112-28.76,26.41.61,49.1-19.67Z"/><path class="cls-9" d="M113,80.1c6.39,23.55,14.72,76.5,6.22,84.8H65.41c0-.1,0-.19,0-.29A39.86,39.86,0,0,1,30,125V86.05A39.87,39.87,0,0,1,69.83,46.18h3.71A39.87,39.87,0,0,1,113,80.1Z"/><g class="cls-24"><rect class="cls-4" x="-64.61" y="-3.88" width="252.18" height="192.85"/><g class="cls-25"><rect class="cls-4" x="20.69" y="36.91" width="111.38" height="137.26"/></g></g><path class="cls-26" d="M50.84,117.56c-8.54-10-14.32-22.33-13.36-36.1,2.79-39.68,58-30.95,68.77-10.92s9.47,70.83-4.42,74.41c-5.54,1.43-17.33-2.07-29.34-9.31L80,189H35.52Z"/><g class="cls-27"><rect class="cls-6" x="-64.61" y="-3.88" width="252.18" height="192.85"/><g class="cls-28"><rect class="cls-6" x="26.25" y="44.33" width="96.42" height="153.91"/></g></g><path class="cls-9" d="M62.87,110.85C64.92,132.88,64.1,158,58,164H4.22c-3-52.06,26-31.9,26-80.91,1.8-1.77,3.51-3.51,5.2-5l-.06-1.44Q49.29,48,70.76,48c21.47,0,28.25,10,34,18.47-4.32,14.81-21.06,17-35.94,26.23a10.2,10.2,0,1,0-6.43,18.12Z"/><g class="cls-29"><rect class="cls-4" x="-64.61" y="-3.88" width="252.18" height="192.85"/><g class="cls-25"><rect class="cls-4" x="-5.27" y="38.77" width="119.32" height="134.51"/></g></g><path class="cls-26" d="M219.1,257.09l28.27-15.53q6-22.63,14.23-22.78c4.23-2-3.15,17.1,4.89,15.44s27.64-16.24,31-13.27c5,4.38.54,17.83-4.71,24.52-9.82,12.51-17.94,16.78-38,22.38q-15.75,4.39-34.06,17.61ZM117.21,221.35l58.6-24.21q24.88-29.14,27.82-24.3c2.94,4.86-3.45,9.15-2,12.75s12.58,3.24,23.12,2.44,7.47,3.89,4.93,6.2q-16.17,9.65-40.23,16.11l-59.21,43.35Z"/><g class="cls-30"><rect class="cls-6" x="-175.87" y="148.17" width="476.55" height="346.75"/><g class="cls-31"><rect class="cls-6" x="109.02" y="152.41" width="199.94" height="142.32"/></g></g><path class="cls-32" d="M87,219.5c22.54-.24,52.61-5,84.68-25.36l12.6,28.09c-22.13,22-53.24,40-80.44,39.23C82.35,260.86,71.4,234.93,87,219.5Z"/><g class="cls-33"><rect class="cls-8" x="-175.87" y="148.17" width="476.55" height="346.75"/><g class="cls-34"><rect class="cls-8" x="69.55" y="191.53" width="124.41" height="75.51" transform="translate(-34.25 23.43) rotate(-9)"/></g></g><path class="cls-16" d="M290.16,154.46,272.36,88a13.09,13.09,0,0,0-16-9.25l-66.42,17.8a13.08,13.08,0,0,0-9.25,16L198.47,179a13.09,13.09,0,0,0,16,9.25l66.42-17.8A13.08,13.08,0,0,0,290.16,154.46Z"/><path class="cls-13" d="M272.36,88a13.06,13.06,0,0,0-9.25-9.24,13,13,0,0,0-3.38,12.63l14.13,52.73a14.19,14.19,0,0,1-10,17.36L211.1,175.64a13.08,13.08,0,0,0-9.25,9.25,13.09,13.09,0,0,0,12.64,3.39l66.42-17.8a13.08,13.08,0,0,0,9.25-16Z"/><circle class="cls-35" cx="249.28" cy="109.5" r="9.81"/><circle class="cls-35" cx="221.53" cy="157.56" r="9.81"/><circle class="cls-35" cx="235.41" cy="133.53" r="9.81"/><path class="cls-36" d="M489.32,188,442.11,175.3a9.3,9.3,0,0,0-11.39,6.58l-12.65,47.21a9.31,9.31,0,0,0,6.58,11.39l47.21,12.65a9.3,9.3,0,0,0,11.39-6.58l12.65-47.21A9.3,9.3,0,0,0,489.32,188Z"/><path class="cls-37" d="M493.49,190.36a9.29,9.29,0,0,0-6.57,6.58l-10.05,37.48a10.07,10.07,0,0,1-12.33,7.12l-37.48-10a9.28,9.28,0,0,0-9,2.4,9.29,9.29,0,0,0,6.57,6.58l47.21,12.65a9.3,9.3,0,0,0,11.39-6.58l12.65-47.21A9.29,9.29,0,0,0,493.49,190.36Z"/><circle class="cls-35" cx="447.12" cy="197.14" r="6.97"/><circle class="cls-35" cx="474.07" cy="204.35" r="6.97"/><circle class="cls-35" cx="439.9" cy="224.08" r="6.97"/><circle class="cls-35" cx="466.85" cy="231.3" r="6.97"/><path class="cls-38" d="M299.69,211.17s6.06-86.28,45.41-86.28S392,238.42,392,261.12c0,0,3-30.27,25.74-30.27"/><path class="cls-39" d="M237.71,244.37q-84.51,30.08-120.4,21.12c-11.73-39.71-26-79.91-28.86-116.38H63.05a25.86,25.86,0,0,1-1.57,9.27A11.2,11.2,0,0,1,57.77,164c-1.09,0-15.21.45-24.34.74a303.19,303.19,0,0,0-13.77,32.86S-3,286.85,102.92,321.67a534.2,534.2,0,0,0,66,17.54c26.17-5.37,55.57-16,88.13-33Q258.66,287.74,237.71,244.37Z"/></svg>