<svg id="Layer_1" data-name="Layer 1" xmlns="http://www.w3.org/2000/svg" xmlns:xlink="http://www.w3.org/1999/xlink" viewBox="0 0 571 351"><defs><style>.cls-1,.cls-24,.cls-5{fill:#47e8c8;}.cls-1,.cls-10,.cls-11,.cls-13,.cls-3,.cls-6,.cls-7,.cls-8,.cls-9{clip-rule:evenodd;}.cls-2,.cls-3,.cls-43{fill:none;}.cls-39,.cls-4,.cls-40,.cls-8{fill:#002168;}.cls-4,.cls-43{stroke:#fff;stroke-miterlimit:10;}.cls-14,.cls-29,.cls-6{fill:#00b576;}.cls-52,.cls-54,.cls-7{fill:#d5e3dd;}.cls-56,.cls-58,.cls-9{fill:#ef9900;}.cls-10,.cls-17,.cls-26{fill:#ffa900;}.cls-11,.cls-12,.cls-23{fill:#736ffe;}.cls-13,.cls-77,.cls-79{fill:#009b5f;}.cls-15{fill:#9ee5a8;}.cls-15,.cls-19{opacity:0.2;}.cls-16{fill:#fdfffe;}.cls-18{fill:#ea9600;}.cls-20,.cls-21{fill:#c3e4ed;}.cls-20{opacity:0.1;}.cls-22{fill:#dcf3f9;opacity:0.6;}.cls-23,.cls-24,.cls-26,.cls-29,.cls-39,.cls-52,.cls-56,.cls-77{fill-rule:evenodd;}.cls-25{clip-path:url(#clip-path);}.cls-27{clip-path:url(#clip-path-2);}.cls-28{clip-path:url(#clip-path-3);}.cls-30{clip-path:url(#clip-path-4);}.cls-31{clip-path:url(#clip-path-5);}.cls-32{clip-path:url(#clip-path-6);}.cls-33{clip-path:url(#clip-path-8);}.cls-34{clip-path:url(#clip-path-9);}.cls-35{clip-path:url(#clip-path-10);}.cls-36{fill:#e4e4e4;}.cls-37{clip-path:url(#clip-path-11);}.cls-38{clip-path:url(#clip-path-12);}.cls-41{clip-path:url(#clip-path-13);}.cls-42{clip-path:url(#clip-path-14);}.cls-44{clip-path:url(#clip-path-15);}.cls-45{clip-path:url(#clip-path-16);}.cls-46{clip-path:url(#clip-path-17);}.cls-47{clip-path:url(#clip-path-19);}.cls-48{clip-path:url(#clip-path-20);}.cls-49{clip-path:url(#clip-path-21);}.cls-50{clip-path:url(#clip-path-22);}.cls-51{clip-path:url(#clip-path-23);}.cls-53{clip-path:url(#clip-path-24);}.cls-55{clip-path:url(#clip-path-25);}.cls-57{clip-path:url(#clip-path-26);}.cls-59{clip-path:url(#clip-path-27);}.cls-60{clip-path:url(#clip-path-28);}.cls-61{clip-path:url(#clip-path-29);}.cls-62{clip-path:url(#clip-path-30);}.cls-63{clip-path:url(#clip-path-31);}.cls-64{clip-path:url(#clip-path-32);}.cls-65{clip-path:url(#clip-path-33);}.cls-66{clip-path:url(#clip-path-34);}.cls-67{clip-path:url(#clip-path-35);}.cls-68{clip-path:url(#clip-path-36);}.cls-69{clip-path:url(#clip-path-37);}.cls-70{clip-path:url(#clip-path-38);}.cls-71{clip-path:url(#clip-path-39);}.cls-72{clip-path:url(#clip-path-40);}.cls-73{clip-path:url(#clip-path-41);}.cls-74{clip-path:url(#clip-path-42);}.cls-75{clip-path:url(#clip-path-43);}.cls-76{clip-path:url(#clip-path-44);}.cls-78{clip-path:url(#clip-path-45);}</style><clipPath id="clip-path"><path class="cls-1" d="M385.31,82.33l-8.65-1.48c-18.84,18.27-26.52,62.16-39.07,68-11.87,5.5-28.69.18-48.69-7l-6.12,13.68c18.17,19.66,56.87,36.27,72.56,26.79C380.42,167.13,386.21,113,385.31,82.33Z"/></clipPath><clipPath id="clip-path-2"><path class="cls-11" d="M278.12,197.1c-7.18-9.74-25.13-3.3-25.12,4.77,0,21.16,19.34,121.64,20.35,128s11.81,8.42,12.44.49c1-12.61,2.86-56.34,1-76.68-.54-5.94-1.11-11.68-1.69-17.06q15.22,27.34,46.31,77.32l11.51-5.26q-13.56-44.68-22.24-63.1c-9.91-21-19.21-39-23.12-45.36C292.4,191.84,284,193,278.12,197.1Z"/></clipPath><clipPath id="clip-path-3"><rect class="cls-12" x="229" y="179" width="304" height="239"/></clipPath><clipPath id="clip-path-4"><path class="cls-6" d="M342.1,292.13l-39.53-93.64c-9.47-15.24-36,3.1-32.79,11.93,7.33,20.06,44.62,85,46.8,91Z"/></clipPath><clipPath id="clip-path-5"><rect class="cls-14" x="229" y="179" width="304" height="239"/></clipPath><clipPath id="clip-path-6"><path class="cls-6" d="M252,209.18c0,26.54,11.63,88.93,11.64,94.77l28.18-.95q-7.38-81.36-6.23-81.92c1.74-.82,71.15,9.61,92,10.4,30,1.14,42.43-17.28,43.44-52.23H362.85q-74.58,8.91-98,12.38C254.77,193.12,252,201.87,252,209.18Z"/></clipPath><clipPath id="clip-path-8"><rect class="cls-2" x="285.68" y="287.23" width="61" height="40" transform="translate(-64.93 85.62) rotate(-14)"/></clipPath><clipPath id="clip-path-9"><path class="cls-3" d="M344.48,305.74a21.45,21.45,0,0,1,3.25,6.09,50.42,50.42,0,0,1,1,7.88L294,333.36c-2.59-4.35-2.41-7.09.57-8.23S300,323,302,322.21l22.61-17.68a1,1,0,0,1,1.4.17l0,0,2.62,3.56a18,18,0,0,0,7.41.26,16.27,16.27,0,0,0,5.54-3.23h0a2,2,0,0,1,2.81.31Z"/></clipPath><clipPath id="clip-path-10"><rect class="cls-2" x="229" y="179" width="304" height="239"/></clipPath><clipPath id="clip-path-11"><path class="cls-3" d="M287.32,315.4a21.46,21.46,0,0,1,1.68,6.71,50.25,50.25,0,0,1-.9,7.89H231.7q-2.2-7.28,2.54-7.85c3.15-.38,5.78-.73,7.87-1l26.21-11.69a1,1,0,0,1,1.32.51v0l1.69,4.09a18,18,0,0,0,7.12,2,16.29,16.29,0,0,0,6.16-1.79h0a2,2,0,0,1,2.65,1A.69.69,0,0,1,287.32,315.4Z"/></clipPath><clipPath id="clip-path-12"><rect class="cls-2" x="229" y="290" width="61" height="40"/></clipPath><clipPath id="clip-path-13"><circle class="cls-4" cx="288" cy="329" r="18"/></clipPath><clipPath id="clip-path-14"><rect class="cls-4" x="229" y="179" width="304" height="239"/></clipPath><clipPath id="clip-path-15"><path class="cls-1" d="M343.89,185s.17-1.15.27-1.63c5.83-29.4,28.6-61.09,28.6-102.94L394.83,77c17.49,28.13,27.7,108,27.7,108Z"/></clipPath><clipPath id="clip-path-16"><rect class="cls-5" x="257" y="77" width="256" height="187"/></clipPath><clipPath id="clip-path-17"><path class="cls-1" d="M428,184c20-9,16-26,13-36-6.94-23.15-9.3-49.16-44.75-71h-8.74c-8.84,30.14-14.79,66.2-17.92,88.09-.37,2.57-50.3,17.76-50.59,19.91H424A12.71,12.71,0,0,0,428,184Z"/></clipPath><clipPath id="clip-path-19"><path class="cls-6" d="M466.35,114.41c-2.35-3.35-6.71-11.86-10-13.06-2.13-.77-1.51,7.21-1.53,8.73A127.62,127.62,0,0,0,456,127.65c1.28,10.52,5.45,19.89,11.16,28.85,2.94,4.61,6.39,9.27,11.17,12.15,2.2,1.32,4.85,1.54,7,2.68,2.53,1.33,1.15.26,2.29,2.89,1.58,3.66,2.09,8.38,2.82,12.29,3.37,17.93,11.51,112.7,10.1,130.93-.13,1.62,2.13,2,2.24,0,.6-10.46-4.58-82.91-7.19-106.61s-5.25-44.62-7.9-52.82c-3.21-9.95-9-21.91-13.85-31.18A109.75,109.75,0,0,0,466.35,114.41Z"/></clipPath><clipPath id="clip-path-20"><path class="cls-6" d="M448.91,230.62c-6.12-4.49-12.73,4-7.2,8.47,3.06,2.48,6.25,1.6,8.05-.47,1.17,1.43,2.27,2.91,3.32,4.17q4.8,5.76,9.12,11.78c6,8.34,11.16,17.16,16.54,25.81s10.58,17.13,15.4,25.89c4.08,7.42,9.52,16.14,10.91,24.28-2.12-17.25-10.16-33.83-19.73-49s-20.4-31.56-35.11-43.46A5.21,5.21,0,0,0,448.91,230.62Z"/></clipPath><clipPath id="clip-path-21"><path class="cls-6" d="M564.93,188.54c-3.42.67-9,8.41-11.83,11.36a109.84,109.84,0,0,0-9.26,11.16,188.22,188.22,0,0,0-16.38,26.72,248.33,248.33,0,0,0-18.23,47.43,195.45,195.45,0,0,0-5.53,31.12c-.2,2-2.26,17.16.71,17.56,2.68.37,1.85-11.53,2-13.15,1.46-18.26,5.83-36,11.92-53.25,1.32-3.75,2.55-8.34,4.67-11.72,1.53-2.43,0-1.58,2.69-2.5,2.31-.79,4.93-.6,7.29-1.56,5.12-2.1,9.22-6.18,12.82-10.28,7-8,12.52-16.6,15.4-26.81a126.91,126.91,0,0,0,3.89-17.2C565.28,195.91,567.13,188.11,564.93,188.54Z"/></clipPath><clipPath id="clip-path-22"><path class="cls-6" d="M551.43,59.77a310,310,0,0,0-30.32,71.77c-4.14,15.06-7,30.53-9.92,45.87-4.46,23.77-8.67,47.54-9.87,71.72s-3.6,52.39,4.37,75.83c-4-23.79-.19-49.12.48-73,.32-11.43,1.25-22.75,2.47-34.11,1.18-11,3.11-22,4.91-32.92q1.32-8,2.74-16c.28-1.58.39-6.29,1.4-7.37s6.18-1.54,7.8-2.34a42.22,42.22,0,0,0,9-6.31,72.28,72.28,0,0,0,13.32-16.67c8.28-13.81,11.59-30.67,11.42-46.67,0-3.11-5-36.56-3-37l-.34-.44Q553.64,55.91,551.43,59.77Z"/></clipPath><clipPath id="clip-path-23"><path class="cls-6" d="M412.32,140.38c-.2-.29-1.49-2.28-.84-2.16-1.33-.26,1.83,2.2-1.48.69,1.57,1.49.66,3.41.64,5.41a48.69,48.69,0,0,0,1.12,9.62,66.09,66.09,0,0,0,4.49,14.55,65.17,65.17,0,0,0,21.42,26.28c4.52,3.14,8.95,4.21,14.11,5.65,3.26.91,3.52,2.6,5.24,5.76,3.6,6.58,7.14,13.14,10.32,19.95,3.79,8.13,7.47,16.26,10.94,24.53,11.69,27.86,21.21,56.73,26.21,86.6.12-17.6-3.95-35.73-9.08-52.51a315.2,315.2,0,0,0-13.81-35.67c-1.26-2.83-3.17-6.47-3.7-9.58-.38-2.19.77-4.29,1.29-6.6a68.87,68.87,0,0,0,.1-28c-2-9.95-7.69-14.56-17.37-16-3.54-.51-8-.32-11.28-1.83-3.54-1.65-5-7.05-7-10.51a142.73,142.73,0,0,0-19.18-26.1,62.43,62.43,0,0,0-6.56-6C416.42,143.27,413.32,141.82,412.32,140.38Z"/></clipPath><clipPath id="clip-path-24"><path class="cls-7" d="M520.83,318.25H486.49a2.79,2.79,0,0,0-2.8,2.79,2.73,2.73,0,0,0,0,.41l2.65,18A11.18,11.18,0,0,0,497.44,349h12.43a11.18,11.18,0,0,0,11.07-9.55l2.65-18a2.78,2.78,0,0,0-2.36-3.17A2.69,2.69,0,0,0,520.83,318.25Z"/></clipPath><clipPath id="clip-path-25"><path class="cls-8" d="M-302.16-383.15c-2.14-11.06-1.28-22.63,5.23-32.48,18.77-28.36,56.2,1.37,55.77,20.8s-22.74,56.69-34.58,53.51c-4.72-1.27-12-8.83-17.92-19.27l-16.82,42.85-33.11-18.71Z"/></clipPath><clipPath id="clip-path-26"><path class="cls-9" d="M-311.52-352l22,12.22c-18.26,53.32-2.81,99.69,70.61,121l-1,28.16c-69.1,2.48-152.89,17-111.29-107C-324.74-316.61-319.23-336.65-311.52-352Z"/></clipPath><clipPath id="clip-path-27"><path class="cls-10" d="M-319.63-363.91l30.75,24.12c-27.91,59.27-26.83,106-37.66,154.12l-84.46-49c-10.34,12.41-21.72,38.27-30,48.62l-27.92-22.76C-444.1-294.67-394.42-343-321.9-365l2.26,1.06Z"/></clipPath><clipPath id="clip-path-28"><path class="cls-9" d="M-350.41-307.89q-33.9,51.15-42.42,83.42L-411-234.87C-392.08-262-372.2-286.56-350.41-307.89Z"/></clipPath><clipPath id="clip-path-29"><path class="cls-8" d="M-302.16,57.85c-2.14-11.06-1.28-22.63,5.23-32.48,18.77-28.36,56.2,1.37,55.77,20.8s-22.74,56.69-34.58,53.51c-4.72-1.27-12-8.83-17.92-19.27l-16.82,42.85-33.11-18.71Z"/></clipPath><clipPath id="clip-path-30"><path class="cls-9" d="M-311.52,89l22,12.22c-18.26,53.32-2.81,99.69,70.61,121l-1,28.16c-69.1,2.48-152.89,17-111.29-107C-324.74,124.39-319.23,104.35-311.52,89Z"/></clipPath><clipPath id="clip-path-31"><path class="cls-10" d="M-319.63,77.09l30.75,24.12c-27.91,59.27-26.83,106-37.66,154.12l-84.46-49c-10.34,12.41-21.72,38.27-30,48.62l-27.92-22.76C-444.1,146.33-394.42,98-321.9,76l2.26,1.06Z"/></clipPath><clipPath id="clip-path-32"><path class="cls-9" d="M-350.41,133.11q-33.9,51.15-42.42,83.42L-411,206.13C-392.08,179-372.2,154.44-350.41,133.11Z"/></clipPath><clipPath id="clip-path-33"><path class="cls-8" d="M684.84-859.77c-2.14-11.06-1.28-22.64,5.23-32.48,18.77-28.36,56.2,1.37,55.77,20.79s-22.74,56.7-34.58,53.52c-4.72-1.27-12-8.83-17.92-19.27l-16.82,42.85-33.11-18.71Z"/></clipPath><clipPath id="clip-path-34"><path class="cls-9" d="M675.48-828.63l22,12.22c-18.26,53.32-2.81,99.69,70.61,121l-1,28.16c-69.1,2.48-152.89,17-111.29-107C662.26-793.24,667.77-813.27,675.48-828.63Z"/></clipPath><clipPath id="clip-path-35"><path class="cls-10" d="M667.37-840.53l30.75,24.12c-27.91,59.27-26.83,106-37.66,154.12L576-711.3c-10.34,12.41-21.72,38.27-30,48.62l-27.92-22.76c24.82-85.85,74.5-134.14,147-156.18l2.26,1.06Z"/></clipPath><clipPath id="clip-path-36"><path class="cls-9" d="M636.59-784.51q-33.9,51.15-42.42,83.42L576-711.49C594.92-738.67,614.8-763.18,636.59-784.51Z"/></clipPath><clipPath id="clip-path-37"><path class="cls-8" d="M684.84-418.77c-2.14-11.06-1.28-22.64,5.23-32.48,18.77-28.36,56.2,1.37,55.77,20.79s-22.74,56.7-34.58,53.52c-4.72-1.27-12-8.83-17.92-19.27l-16.82,42.85-33.11-18.71Z"/></clipPath><clipPath id="clip-path-38"><path class="cls-9" d="M675.48-387.63l22,12.22c-18.26,53.32-2.81,99.69,70.61,121l-1,28.16c-69.1,2.48-152.89,17-111.29-107C662.26-352.24,667.77-372.27,675.48-387.63Z"/></clipPath><clipPath id="clip-path-39"><path class="cls-10" d="M667.37-399.53l30.75,24.12c-27.91,59.27-26.83,106-37.66,154.12L576-270.3c-10.34,12.41-21.72,38.27-30,48.62l-27.92-22.76c24.82-85.85,74.5-134.14,147-156.18l2.26,1.06Z"/></clipPath><clipPath id="clip-path-40"><path class="cls-9" d="M636.59-343.51q-33.9,51.15-42.42,83.42L576-270.49C594.92-297.67,614.8-322.18,636.59-343.51Z"/></clipPath><clipPath id="clip-path-41"><path class="cls-8" d="M728,80.1c6.39,23.55,14.72,76.5,6.22,84.8H680.41c0-.1,0-.19,0-.29A39.86,39.86,0,0,1,645,125V86.05a39.87,39.87,0,0,1,39.87-39.87h3.71A39.87,39.87,0,0,1,728,80.1Z"/></clipPath><clipPath id="clip-path-42"><path class="cls-11" d="M665.84,117.56c-8.54-10-14.32-22.33-13.36-36.1,2.79-39.68,58-30.95,68.77-10.92s9.47,70.83-4.42,74.41c-5.54,1.43-17.33-2.07-29.34-9.31L695,189H650.52Z"/></clipPath><clipPath id="clip-path-43"><path class="cls-8" d="M677.87,110.85c2,22,1.23,47.18-4.88,53.15H619.22c-3-52.06,26-31.9,26-80.91,1.8-1.77,3.51-3.51,5.2-5l-.06-1.44Q664.29,48,685.76,48c21.47,0,28.25,10,34,18.47-4.32,14.81-21.06,17-35.94,26.23a10.2,10.2,0,1,0-6.43,18.12Z"/></clipPath><clipPath id="clip-path-44"><path class="cls-11" d="M834.1,257.09l28.27-15.53q6-22.63,14.23-22.78c4.23-2-3.15,17.1,4.89,15.44s27.64-16.24,31-13.27c5,4.38.54,17.83-4.71,24.52-9.82,12.51-17.94,16.78-38,22.38q-15.75,4.39-34.06,17.61ZM732.21,221.35l58.6-24.21q24.88-29.14,27.82-24.3c2.94,4.86-3.45,9.15-2,12.75s12.58,3.24,23.12,2.44,7.47,3.89,4.93,6.2q-16.17,9.65-40.23,16.11l-59.21,43.35Z"/></clipPath><clipPath id="clip-path-45"><path class="cls-13" d="M702,219.5c22.54-.24,52.61-5,84.68-25.36l12.6,28.09c-22.13,22-53.24,40-80.44,39.23C697.35,260.86,686.4,234.93,702,219.5Z"/></clipPath></defs><title>2 investigação</title><path class="cls-15" d="M160.36,234.4s74.61-4.06,97.67-76S335.35,37.7,347.56,32.28s42.06-9.5,67.83,2.71,44.77,65.11,48.84,86.82,24.41,109.88-5.43,166.86S373.34,347,373.34,347h-194S99.76,349.27,98,286C96.6,238.47,160.36,234.4,160.36,234.4Z"/><rect class="cls-12" x="5" y="17" width="225" height="86" rx="12"/><rect class="cls-16" x="26" y="30" width="126" height="15" rx="7.5"/><rect class="cls-16" x="26" y="60" width="69" height="6" rx="3"/><rect class="cls-16" x="107" y="60" width="52" height="7" rx="3.5"/><rect class="cls-16" x="26" y="77" width="129" height="7" rx="3.5"/><path class="cls-12" d="M229.41,75.55A39,39,0,1,0,169,112h43.2A39,39,0,0,0,229.41,75.55Z"/><rect class="cls-16" x="152" y="93" width="58" height="6" rx="3"/><rect class="cls-16" x="159" y="52" width="16" height="4" rx="2"/><rect class="cls-16" x="182" y="52" width="30" height="5" rx="2.5"/><rect class="cls-16" x="148" y="69" width="71" height="10" rx="5"/><path class="cls-17" d="M233.14,105.09a49.69,49.69,0,1,0-9,11l11.39,9.3,9-11Zm-38.67,13.23a39,39,0,1,1,34.94-42.77A39,39,0,0,1,194.47,118.32Z"/><path class="cls-18" d="M244.53,114.4l-9,11-11.39-9.3a50.07,50.07,0,0,0,4.88-5.18,49.43,49.43,0,0,0,4.1-5.82Z"/><g class="cls-19"><path class="cls-20" d="M211,46.22l.82.52Z"/><path class="cls-20" d="M218.45,52.15l.6.62Z"/><path class="cls-20" d="M220.36,54.25c.46.53.9,1.08,1.32,1.64C221.26,55.33,220.82,54.78,220.36,54.25Z"/><path class="cls-20" d="M206,43.59c.29.13.58.25.86.39C206.56,43.84,206.27,43.72,206,43.59Z"/><path class="cls-20" d="M209.39,45.26l.84.47Z"/><path class="cls-20" d="M227.41,66.56c.17.49.34,1,.49,1.48C227.75,67.55,227.58,67.05,227.41,66.56Z"/><path class="cls-20" d="M226.46,64.08c.27.65.53,1.3.77,2C227,65.38,226.73,64.73,226.46,64.08Z"/><path class="cls-20" d="M228.11,68.76c.12.44.24.88.35,1.32C228.35,69.64,228.23,69.2,228.11,68.76Z"/><path class="cls-20" d="M222.12,56.49c.28.39.57.79.84,1.19C222.69,57.28,222.4,56.88,222.12,56.49Z"/><path class="cls-20" d="M223.41,58.38c.25.38.49.77.72,1.15C223.9,59.15,223.66,58.76,223.41,58.38Z"/><path class="cls-20" d="M225.56,62.15c.25.5.48,1,.7,1.51C226,63.15,225.81,62.65,225.56,62.15Z"/><path class="cls-20" d="M224.55,60.26c.23.4.45.81.66,1.22C225,61.07,224.78,60.66,224.55,60.26Z"/><path class="cls-20" d="M207.7,44.38l.85.43Z"/><path class="cls-20" d="M154.45,94.35l.39.9Z"/><path class="cls-20" d="M169.27,112.21c-.48-.32-1-.64-1.43-1C168.31,111.57,168.79,111.89,169.27,112.21Z"/><path class="cls-20" d="M165.51,109.42c-.36-.3-.71-.61-1.06-.92C164.8,108.81,165.15,109.12,165.51,109.42Z"/><path class="cls-20" d="M167.26,110.8c-.38-.28-.76-.57-1.13-.87C166.5,110.23,166.88,110.52,167.26,110.8Z"/><path class="cls-21" d="M212.27,47,155,95.7a39.24,39.24,0,0,0,3.6,6.26l59.23-50.39A38.31,38.31,0,0,0,212.27,47Z"/><path class="cls-21" d="M165.26,49.72a39,39,0,0,0-12.69,38.76l53-45.07A39,39,0,0,0,165.26,49.72Z"/><path class="cls-21" d="M228.55,70.45l-53,45.07a39,39,0,0,0,53-45.07Z"/><path class="cls-20" d="M175.22,115.38c-.43-.18-.85-.38-1.27-.57C174.37,115,174.79,115.2,175.22,115.38Z"/><path class="cls-20" d="M173.3,114.5c-.48-.24-1-.48-1.42-.74C172.35,114,172.82,114.26,173.3,114.5Z"/><path class="cls-20" d="M171.43,113.52c-.62-.35-1.23-.71-1.83-1.09C170.2,112.81,170.81,113.17,171.43,113.52Z"/><path class="cls-20" d="M152.67,88.92c.08.32.16.63.25.94C152.83,89.55,152.75,89.24,152.67,88.92Z"/><path class="cls-20" d="M153.17,90.75c.1.31.19.62.3.93C153.36,91.37,153.27,91.06,153.17,90.75Z"/><path class="cls-20" d="M153.77,92.56c.11.31.22.61.34.92C154,93.17,153.88,92.87,153.77,92.56Z"/><path class="cls-20" d="M159.64,103.32c-.2-.26-.39-.52-.58-.79C159.25,102.8,159.44,103.06,159.64,103.32Z"/><path class="cls-20" d="M160.81,104.77a.86.86,0,0,1-.07-.1.86.86,0,0,0,.07.1c.49.57,1,1.11,1.49,1.65C161.79,105.88,161.3,105.34,160.81,104.77Z"/><path class="cls-20" d="M162.78,106.9c.36.36.72.72,1.08,1.06C163.5,107.62,163.14,107.26,162.78,106.9Z"/></g><path class="cls-22" d="M158.64,102c.67,1,1.4,1.9,2.17,2.81a38.8,38.8,0,0,0,14.75,10.76l53-45.08a39,39,0,0,0-8.26-16.28c-.77-.91-1.58-1.78-2.42-2.6Zm46.92-58.55a38.53,38.53,0,0,1,6.72,3.6L155,95.7a38.63,38.63,0,0,1-2.47-7.21Z"/><rect class="cls-17" x="253.53" y="108.14" width="22.33" height="63.79" rx="3.83" transform="translate(-11.22 256.43) rotate(-50.75)"/><path class="cls-23" d="M302.43,170.17l-26.21-22q-20.16-4.6-18.56-7.22c1.58-2.62,5.23-.64,6.59-2.23s-1.6-6.82-4.61-11.66,0-4.54,1.73-3.9a85.77,85.77,0,0,1,17.75,15.2l35.51,17.47Z"/><path class="cls-24" d="M385.31,82.33l-8.65-1.48c-18.84,18.27-26.52,62.16-39.07,68-11.87,5.5-28.69.18-48.69-7l-6.12,13.68c18.17,19.66,56.87,36.27,72.56,26.79C380.42,167.13,386.21,113,385.31,82.33Z"/><g class="cls-25"><rect class="cls-5" x="-132" y="-29" width="665" height="470"/></g><path class="cls-23" d="M389.74,60.49c4.61-5.41,7.72-12,7.2-19.46-1.5-21.4-31.29-16.7-37.08-5.9s-5.11,38.2,2.38,40.13c3,.77,9.35-1.11,15.82-5L374,99h24Z"/><path class="cls-26" d="M349.22,20.16a5.22,5.22,0,0,1,3.64-3.69,5,5,0,0,1,1.34-.13c.16,0,.2.05.28-.06a1.61,1.61,0,0,0,.08-.38,6.83,6.83,0,0,1,2-3.54A8.9,8.9,0,0,1,362,9.82a7.65,7.65,0,0,1,3.22.44,11.4,11.4,0,0,1,1.57.67c.15.08.65.45.8.43s.51-.45.65-.56A9.47,9.47,0,0,1,374.13,9c2.39,0,4.69.14,6.69,1.6a12.58,12.58,0,0,1,1.21,1c.2.19.39.38.58.58l.33.38c.18.22.15.29.4.14a4.91,4.91,0,0,1,3.19-.72,7.2,7.2,0,0,1,1.93.54c.21.09.69.45.91.45s.7-.33.93-.41a7.64,7.64,0,0,1,3.85-.36,9.92,9.92,0,0,1,3.78,1.49,4.86,4.86,0,0,1,1.4,1.27c.17.23.31.47.5.68s.33.25.39.41a7.74,7.74,0,0,1,1.6-.71,3.92,3.92,0,0,1,2.25.08A9,9,0,0,1,407.62,18a10.78,10.78,0,0,1,1.32,1.76c.18.31.34.62.49.94a4.25,4.25,0,0,0,.21.49c.13.17.21.18.43.26a6.67,6.67,0,0,1,4.48,5.21,2.25,2.25,0,0,0,.06.4c.06,0,.29,0,.37,0a6.63,6.63,0,0,1,.89.16,6.77,6.77,0,0,1,1.56.56,8.11,8.11,0,0,1,4,4.77,9.66,9.66,0,0,1-.15,6.62,5.88,5.88,0,0,1-.49,1c-.12.19-.15.19-.08.39s.24.43.34.65a9.43,9.43,0,0,1,.71,2.22,10.23,10.23,0,0,1,.12,3.82,5.51,5.51,0,0,1-.59,1.68,4.36,4.36,0,0,1-.52.75,3.59,3.59,0,0,1-.32.35,1.84,1.84,0,0,0-.2.19c-.14.17-.17,0-.1.29s.32.7.45,1,.27.72.38,1.08a16,16,0,0,1,.55,2.25,7,7,0,0,1-.5,4.36,4.4,4.4,0,0,1-1.23,1.48,5.13,5.13,0,0,1-.81.49c-.15.07-.34.1-.41.24s0,.46.06.63a10.4,10.4,0,0,1-.12,4.51A6.2,6.2,0,0,1,416,69.86a7.67,7.67,0,0,1-7.68.22,7.77,7.77,0,0,1-1.71-1.18c-1.32,1.77-4,1.72-5.95,1.21a8.55,8.55,0,0,1-5.42-4.48c-1.51,1.84-4.69,1.25-5.74-.75a4.84,4.84,0,0,1-.49-1.58c0-.29,0-.58,0-.86a4.57,4.57,0,0,0-.42-1.07,5.92,5.92,0,0,1-.45-2.12c0-.39.05-.76.08-1.14a3.7,3.7,0,0,0-.11-1,4.58,4.58,0,0,0,1.94-.25,3.75,3.75,0,0,0,1.5-1,8.83,8.83,0,0,0,1.89-3.53c.85-2.8.5-6.15-2.31-7.69-1.31-.71-5.23-.71-6.79-.35s-3.5,4-3.59,4.33,0,.47-.23.61c-.42.31-1.12-.23-1.44-.49A5.93,5.93,0,0,1,377.82,47a21.09,21.09,0,0,1-1.73-4.24c-.32-1.13-.52-2.3-.94-3.4a5.15,5.15,0,0,0-2.09-2.7,18.48,18.48,0,0,0-3.6-1.46,8.92,8.92,0,0,1-3.32-1.82,4.28,4.28,0,0,1-.57-.64c-.14-.18-.26-.53-.46-.65s-.76.29-1,.46a11.92,11.92,0,0,0-3.31,3.29,20.09,20.09,0,0,0-2.2,3.91A11.34,11.34,0,0,1,357.09,43c-.34.39-2.89.62-3.72.28a4.69,4.69,0,0,1-2-1.75,2.77,2.77,0,0,1-.23-1.79c.07-.36.22-.7.3-1a3.51,3.51,0,0,1,.27-.85,2.12,2.12,0,0,1,1.31-1,5.93,5.93,0,0,1-1.41-1.92,8.41,8.41,0,0,1-.74-2.49,3.08,3.08,0,0,1,.41-1.95,5.15,5.15,0,0,1,1.66-1.38,10.85,10.85,0,0,1-2.31-2.52A7.88,7.88,0,0,1,349.22,20.16Z"/><path class="cls-23" d="M278.12,197.1c-7.18-9.74-25.13-3.3-25.12,4.77,0,21.16,19.34,121.64,20.35,128s11.81,8.42,12.44.49c1-12.61,2.86-56.34,1-76.68-.54-5.94-1.11-11.68-1.69-17.06q15.22,27.34,46.31,77.32l11.51-5.26q-13.56-44.68-22.24-63.1c-9.91-21-19.21-39-23.12-45.36C292.4,191.84,284,193,278.12,197.1Z"/><g class="cls-27"><rect class="cls-12" x="229" y="179" width="304" height="239"/><g class="cls-28"><rect class="cls-12" x="248" y="187.19" width="99.92" height="153.3"/></g></g><path class="cls-29" d="M342.1,292.13l-39.53-93.64c-9.47-15.24-36,3.1-32.79,11.93,7.33,20.06,44.62,85,46.8,91Z"/><g class="cls-30"><rect class="cls-14" x="229" y="179" width="304" height="239"/><g class="cls-31"><rect class="cls-14" x="279.17" y="185.5" width="50.01" height="121.84" transform="matrix(0.94, -0.34, 0.34, 0.94, -65.94, 118.9)"/></g></g><path class="cls-29" d="M252,209.18c0,26.54,11.63,88.93,11.64,94.77l28.18-.95q-7.38-81.36-6.23-81.92c1.74-.82,71.15,9.61,92,10.4,30,1.14,42.43-17.28,43.44-52.23H362.85q-74.58,8.91-98,12.38C254.77,193.12,252,201.87,252,209.18Z"/><g class="cls-32"><rect class="cls-14" x="229" y="179" width="304" height="239"/><g class="cls-31"><rect class="cls-14" x="247" y="174.25" width="179" height="134.7"/></g></g><g class="cls-33"><g class="cls-34"><g class="cls-35"><rect class="cls-36" x="285" y="301.15" width="68" height="30.67" transform="translate(-67.09 86.57) rotate(-14)"/></g></g></g><g class="cls-37"><g class="cls-38"><rect class="cls-36" x="226" y="304.33" width="68" height="30.67"/></g></g><path class="cls-39" d="M284.5,330h-46a3.5,3.5,0,0,0,0,7h46a3.5,3.5,0,0,0,0-7Z"/><path class="cls-39" d="M424,185H314.81a10,10,0,0,0-9.87,8.38L283,327h10.69l13.62-83H430a4,4,0,0,0,4-4V195A10,10,0,0,0,424,185Z"/><circle class="cls-40" cx="288" cy="329" r="18"/><g class="cls-41"><rect class="cls-40" x="229" y="179" width="304" height="239"/><g class="cls-42"><rect class="cls-4" x="265" y="306" width="46" height="46"/></g><rect class="cls-43" x="229" y="179" width="304" height="239"/></g><circle class="cls-43" cx="288" cy="329" r="18"/><path class="cls-24" d="M343.89,185s.17-1.15.27-1.63c5.83-29.4,28.6-61.09,28.6-102.94L394.83,77c17.49,28.13,27.7,108,27.7,108Z"/><g class="cls-44"><rect class="cls-5" x="257" y="77" width="256" height="187"/><g class="cls-45"><rect class="cls-5" x="338.75" y="72" width="89.25" height="124"/></g></g><path class="cls-24" d="M428,184c20-9,16-26,13-36-6.94-23.15-9.3-49.16-44.75-71h-8.74c-8.84,30.14-14.79,66.2-17.92,88.09-.37,2.57-50.3,17.76-50.59,19.91H424A12.71,12.71,0,0,0,428,184Z"/><g class="cls-46"><rect class="cls-5" x="257" y="77" width="256" height="187"/><g class="cls-45"><rect class="cls-5" x="309" y="72" width="182" height="155"/></g></g><path class="cls-4" d="M425,328V278.66l25.57,25.57c1.62-2.09,3.19-4.28,4.73-6.59L430.66,273h37.17c1-2.62,1.84-5.3,2.65-8H430.66l36.91-36.91A62.28,62.28,0,0,1,475.76,240c1-7.18,1.56-14.44,1.83-21.67A76,76,0,1,0,397,341.12,107.34,107.34,0,0,0,425,328Zm0-120.9a61.75,61.75,0,0,1,36.91,15.29L425,259.34Zm-8,123.72a61.75,61.75,0,0,1-36.91-15.29L417,278.66Zm0-123.72v52.2l-36.91-36.91A61.75,61.75,0,0,1,417,207.14Zm-42.57,21L411.34,265h-52.2A61.75,61.75,0,0,1,374.43,228.09ZM359.14,273h52.2l-36.91,36.91A61.75,61.75,0,0,1,359.14,273Z"/><path class="cls-29" d="M466.35,114.41c-2.35-3.35-6.71-11.86-10-13.06-2.13-.77-1.51,7.21-1.53,8.73A127.62,127.62,0,0,0,456,127.65c1.28,10.52,5.45,19.89,11.16,28.85,2.94,4.61,6.39,9.27,11.17,12.15,2.2,1.32,4.85,1.54,7,2.68,2.53,1.33,1.15.26,2.29,2.89,1.58,3.66,2.09,8.38,2.82,12.29,3.37,17.93,11.51,112.7,10.1,130.93-.13,1.62,2.13,2,2.24,0,.6-10.46-4.58-82.91-7.19-106.61s-5.25-44.62-7.9-52.82c-3.21-9.95-9-21.91-13.85-31.18A109.75,109.75,0,0,0,466.35,114.41Z"/><g class="cls-47"><rect class="cls-14" x="451.94" y="98.51" width="53.68" height="223.1"/></g><path class="cls-29" d="M448.91,230.62c-6.12-4.49-12.73,4-7.2,8.47,3.06,2.48,6.25,1.6,8.05-.47,1.17,1.43,2.27,2.91,3.32,4.17q4.8,5.76,9.12,11.78c6,8.34,11.16,17.16,16.54,25.81s10.58,17.13,15.4,25.89c4.08,7.42,9.52,16.14,10.91,24.28-2.12-17.25-10.16-33.83-19.73-49s-20.4-31.56-35.11-43.46A5.21,5.21,0,0,0,448.91,230.62Z"/><g class="cls-48"><rect class="cls-14" x="436.84" y="226.55" width="71.01" height="106.8"/></g><path class="cls-29" d="M564.93,188.54c-3.42.67-9,8.41-11.83,11.36a109.84,109.84,0,0,0-9.26,11.16,188.22,188.22,0,0,0-16.38,26.72,248.33,248.33,0,0,0-18.23,47.43,195.45,195.45,0,0,0-5.53,31.12c-.2,2-2.26,17.16.71,17.56,2.68.37,1.85-11.53,2-13.15,1.46-18.26,5.83-36,11.92-53.25,1.32-3.75,2.55-8.34,4.67-11.72,1.53-2.43,0-1.58,2.69-2.5,2.31-.79,4.93-.6,7.29-1.56,5.12-2.1,9.22-6.18,12.82-10.28,7-8,12.52-16.6,15.4-26.81a126.91,126.91,0,0,0,3.89-17.2C565.28,195.91,567.13,188.11,564.93,188.54Z"/><g class="cls-49"><rect class="cls-14" x="500.02" y="185.73" width="68.77" height="150.97"/></g><path class="cls-29" d="M551.43,59.77a310,310,0,0,0-30.32,71.77c-4.14,15.06-7,30.53-9.92,45.87-4.46,23.77-8.67,47.54-9.87,71.72s-3.6,52.39,4.37,75.83c-4-23.79-.19-49.12.48-73,.32-11.43,1.25-22.75,2.47-34.11,1.18-11,3.11-22,4.91-32.92q1.32-8,2.74-16c.28-1.58.39-6.29,1.4-7.37s6.18-1.54,7.8-2.34a42.22,42.22,0,0,0,9-6.31,72.28,72.28,0,0,0,13.32-16.67c8.28-13.81,11.59-30.67,11.42-46.67,0-3.11-5-36.56-3-37l-.34-.44Q553.64,55.91,551.43,59.77Z"/><g class="cls-50"><rect class="cls-14" x="497.23" y="49.3" width="64.86" height="278.45"/></g><path class="cls-29" d="M412.32,140.38c-.2-.29-1.49-2.28-.84-2.16-1.33-.26,1.83,2.2-1.48.69,1.57,1.49.66,3.41.64,5.41a48.69,48.69,0,0,0,1.12,9.62,66.09,66.09,0,0,0,4.49,14.55,65.17,65.17,0,0,0,21.42,26.28c4.52,3.14,8.95,4.21,14.11,5.65,3.26.91,3.52,2.6,5.24,5.76,3.6,6.58,7.14,13.14,10.32,19.95,3.79,8.13,7.47,16.26,10.94,24.53,11.69,27.86,21.21,56.73,26.21,86.6.12-17.6-3.95-35.73-9.08-52.51a315.2,315.2,0,0,0-13.81-35.67c-1.26-2.83-3.17-6.47-3.7-9.58-.38-2.19.77-4.29,1.29-6.6a68.87,68.87,0,0,0,.1-28c-2-9.95-7.69-14.56-17.37-16-3.54-.51-8-.32-11.28-1.83-3.54-1.65-5-7.05-7-10.51a142.73,142.73,0,0,0-19.18-26.1,62.43,62.43,0,0,0-6.56-6C416.42,143.27,413.32,141.82,412.32,140.38Z"/><g class="cls-51"><rect class="cls-14" x="407.2" y="135.41" width="100.09" height="204.65"/></g><path class="cls-52" d="M520.83,318.25H486.49a2.79,2.79,0,0,0-2.8,2.79,2.73,2.73,0,0,0,0,.41l2.65,18A11.18,11.18,0,0,0,497.44,349h12.43a11.18,11.18,0,0,0,11.07-9.55l2.65-18a2.78,2.78,0,0,0-2.36-3.17A2.69,2.69,0,0,0,520.83,318.25Z"/><g class="cls-53"><rect class="cls-54" x="480.89" y="315.45" width="45.52" height="36.34"/></g><path class="cls-39" d="M-302.16-383.15c-2.14-11.06-1.28-22.63,5.23-32.48,18.77-28.36,56.2,1.37,55.77,20.8s-22.74,56.69-34.58,53.51c-4.72-1.27-12-8.83-17.92-19.27l-16.82,42.85-33.11-18.71Z"/><g class="cls-55"><rect class="cls-40" x="-2247.91" y="23.45" width="3376.05" height="1134.86" transform="translate(-955.4 -120.58) rotate(-72.53)"/></g><path class="cls-56" d="M-311.52-352l22,12.22c-18.26,53.32-2.81,99.69,70.61,121l-1,28.16c-69.1,2.48-152.89,17-111.29-107C-324.74-316.61-319.23-336.65-311.52-352Z"/><g class="cls-57"><rect class="cls-58" x="-1899.3" y="24.09" width="3123.31" height="1049.9" transform="translate(-860.42 172.01) rotate(-85.79)"/></g><path class="cls-26" d="M-319.63-363.91l30.75,24.12c-27.91,59.27-26.83,106-37.66,154.12l-84.46-49c-10.34,12.41-21.72,38.27-30,48.62l-27.92-22.76C-444.1-294.67-394.42-343-321.9-365l2.26,1.06Z"/><g class="cls-59"><rect class="cls-17" x="-1899.3" y="24.09" width="3123.31" height="1049.9" transform="translate(-860.42 172.01) rotate(-85.79)"/></g><path class="cls-56" d="M-350.41-307.89q-33.9,51.15-42.42,83.42L-411-234.87C-392.08-262-372.2-286.56-350.41-307.89Z"/><g class="cls-60"><rect class="cls-58" x="-1953.53" y="22.77" width="3123.31" height="1049.9" transform="translate(-873.02 76.48) rotate(-81.18)"/></g><path class="cls-39" d="M-302.16,57.85c-2.14-11.06-1.28-22.63,5.23-32.48,18.77-28.36,56.2,1.37,55.77,20.8s-22.74,56.69-34.58,53.51c-4.72-1.27-12-8.83-17.92-19.27l-16.82,42.85-33.11-18.71Z"/><g class="cls-61"><rect class="cls-40" x="-2247.91" y="464.45" width="3376.05" height="1134.86" transform="translate(-1376.05 188.01) rotate(-72.53)"/></g><path class="cls-56" d="M-311.52,89l22,12.22c-18.26,53.32-2.81,99.69,70.61,121l-1,28.16c-69.1,2.48-152.89,17-111.29-107C-324.74,124.39-319.23,104.35-311.52,89Z"/><g class="cls-62"><rect class="cls-58" x="-1899.3" y="465.09" width="3123.31" height="1049.9" transform="translate(-1300.23 580.64) rotate(-85.79)"/></g><path class="cls-26" d="M-319.63,77.09l30.75,24.12c-27.91,59.27-26.83,106-37.66,154.12l-84.46-49c-10.34,12.41-21.72,38.27-30,48.62l-27.92-22.76C-444.1,146.33-394.42,98-321.9,76l2.26,1.06Z"/><g class="cls-63"><rect class="cls-17" x="-1899.3" y="465.09" width="3123.31" height="1049.9" transform="translate(-1300.23 580.64) rotate(-85.79)"/></g><path class="cls-56" d="M-350.41,133.11q-33.9,51.15-42.42,83.42L-411,206.13C-392.08,179-372.2,154.44-350.41,133.11Z"/><g class="cls-64"><rect class="cls-58" x="-1953.53" y="463.77" width="3123.31" height="1049.9" transform="translate(-1308.81 449.85) rotate(-81.18)"/></g><path class="cls-39" d="M684.84-859.77c-2.14-11.06-1.28-22.64,5.23-32.48,18.77-28.36,56.2,1.37,55.77,20.79s-22.74,56.7-34.58,53.52c-4.72-1.27-12-8.83-17.92-19.27l-16.82,42.85-33.11-18.71Z"/><g class="cls-65"><rect class="cls-40" x="-1260.91" y="-453.17" width="3376.05" height="1134.86" transform="translate(189.88 487.36) rotate(-72.53)"/></g><path class="cls-56" d="M675.48-828.63l22,12.22c-18.26,53.32-2.81,99.69,70.61,121l-1,28.16c-69.1,2.48-152.89,17-111.29-107C662.26-793.24,667.77-813.27,675.48-828.63Z"/><g class="cls-66"><rect class="cls-58" x="-912.3" y="-452.53" width="3123.31" height="1049.9" transform="translate(529.47 714.71) rotate(-85.79)"/></g><path class="cls-26" d="M667.37-840.53l30.75,24.12c-27.91,59.27-26.83,106-37.66,154.12L576-711.3c-10.34,12.41-21.72,38.27-30,48.62l-27.92-22.76c24.82-85.85,74.5-134.14,147-156.18l2.26,1.06Z"/><g class="cls-67"><rect class="cls-17" x="-912.3" y="-452.53" width="3123.31" height="1049.9" transform="translate(529.47 714.71) rotate(-85.79)"/></g><path class="cls-56" d="M636.59-784.51q-33.9,51.15-42.42,83.42L576-711.49C594.92-738.67,614.8-763.18,636.59-784.51Z"/><g class="cls-68"><rect class="cls-58" x="-966.53" y="-453.85" width="3123.31" height="1049.9" transform="translate(433.59 648.28) rotate(-81.18)"/></g><path class="cls-39" d="M684.84-418.77c-2.14-11.06-1.28-22.64,5.23-32.48,18.77-28.36,56.2,1.37,55.77,20.79s-22.74,56.7-34.58,53.52c-4.72-1.27-12-8.83-17.92-19.27l-16.82,42.85-33.11-18.71Z"/><g class="cls-69"><rect class="cls-40" x="-1260.91" y="-12.17" width="3376.05" height="1134.86" transform="translate(-230.77 795.95) rotate(-72.53)"/></g><path class="cls-56" d="M675.48-387.63l22,12.22c-18.26,53.32-2.81,99.69,70.61,121l-1,28.16c-69.1,2.48-152.89,17-111.29-107C662.26-352.24,667.77-372.27,675.48-387.63Z"/><g class="cls-70"><rect class="cls-58" x="-912.3" y="-11.53" width="3123.31" height="1049.9" transform="translate(89.66 1123.34) rotate(-85.79)"/></g><path class="cls-26" d="M667.37-399.53l30.75,24.12c-27.91,59.27-26.83,106-37.66,154.12L576-270.3c-10.34,12.41-21.72,38.27-30,48.62l-27.92-22.76c24.82-85.85,74.5-134.14,147-156.18l2.26,1.06Z"/><g class="cls-71"><rect class="cls-17" x="-912.3" y="-11.53" width="3123.31" height="1049.9" transform="translate(89.66 1123.34) rotate(-85.79)"/></g><path class="cls-56" d="M636.59-343.51q-33.9,51.15-42.42,83.42L576-270.49C594.92-297.67,614.8-322.18,636.59-343.51Z"/><g class="cls-72"><rect class="cls-58" x="-966.53" y="-12.85" width="3123.31" height="1049.9" transform="translate(-2.19 1021.65) rotate(-81.18)"/></g><path class="cls-39" d="M728,80.1c6.39,23.55,14.72,76.5,6.22,84.8H680.41c0-.1,0-.19,0-.29A39.86,39.86,0,0,1,645,125V86.05a39.87,39.87,0,0,1,39.87-39.87h3.71A39.87,39.87,0,0,1,728,80.1Z"/><g class="cls-73"><rect class="cls-40" x="550.39" y="-3.88" width="252.18" height="192.85"/></g><path class="cls-23" d="M665.84,117.56c-8.54-10-14.32-22.33-13.36-36.1,2.79-39.68,58-30.95,68.77-10.92s9.47,70.83-4.42,74.41c-5.54,1.43-17.33-2.07-29.34-9.31L695,189H650.52Z"/><g class="cls-74"><rect class="cls-12" x="550.39" y="-3.88" width="252.18" height="192.85"/></g><path class="cls-39" d="M677.87,110.85c2,22,1.23,47.18-4.88,53.15H619.22c-3-52.06,26-31.9,26-80.91,1.8-1.77,3.51-3.51,5.2-5l-.06-1.44Q664.29,48,685.76,48c21.47,0,28.25,10,34,18.47-4.32,14.81-21.06,17-35.94,26.23a10.2,10.2,0,1,0-6.43,18.12Z"/><g class="cls-75"><rect class="cls-40" x="550.39" y="-3.88" width="252.18" height="192.85"/></g><path class="cls-23" d="M834.1,257.09l28.27-15.53q6-22.63,14.23-22.78c4.23-2-3.15,17.1,4.89,15.44s27.64-16.24,31-13.27c5,4.38.54,17.83-4.71,24.52-9.82,12.51-17.94,16.78-38,22.38q-15.75,4.39-34.06,17.61ZM732.21,221.35l58.6-24.21q24.88-29.14,27.82-24.3c2.94,4.86-3.45,9.15-2,12.75s12.58,3.24,23.12,2.44,7.47,3.89,4.93,6.2q-16.17,9.65-40.23,16.11l-59.21,43.35Z"/><g class="cls-76"><rect class="cls-12" x="439.13" y="148.17" width="476.55" height="346.75"/></g><path class="cls-77" d="M702,219.5c22.54-.24,52.61-5,84.68-25.36l12.6,28.09c-22.13,22-53.24,40-80.44,39.23C697.35,260.86,686.4,234.93,702,219.5Z"/><g class="cls-78"><rect class="cls-79" x="439.13" y="148.17" width="476.55" height="346.75"/></g></svg>