<svg id="Layer_1" data-name="Layer 1" xmlns="http://www.w3.org/2000/svg" xmlns:xlink="http://www.w3.org/1999/xlink" viewBox="0 0 571 351"><defs><style>.cls-1,.cls-14,.cls-20{fill:#002168;}.cls-1,.cls-10,.cls-12,.cls-15,.cls-18,.cls-2,.cls-3,.cls-5,.cls-6,.cls-8{clip-rule:evenodd;}.cls-2,.cls-22,.cls-24{fill:#ef9900;}.cls-3,.cls-4{fill:none;}.cls-17,.cls-25,.cls-5{fill:#ffa900;}.cls-35,.cls-6,.cls-7{fill:#00b576;}.cls-38,.cls-8,.cls-9{fill:#09ce82;}.cls-10,.cls-11,.cls-44{fill:#736ffe;}.cls-12,.cls-13,.cls-47{fill:#47e8c8;}.cls-15,.cls-16,.cls-54{fill:#ed9803;}.cls-18,.cls-19,.cls-42,.cls-62{fill:#d5e3dd;}.cls-20,.cls-22,.cls-25,.cls-35,.cls-38,.cls-44,.cls-47,.cls-54,.cls-62{fill-rule:evenodd;}.cls-21{clip-path:url(#clip-path);}.cls-23{clip-path:url(#clip-path-2);}.cls-26{clip-path:url(#clip-path-3);}.cls-27{clip-path:url(#clip-path-4);}.cls-28{clip-path:url(#clip-path-5);}.cls-29{clip-path:url(#clip-path-6);}.cls-30{clip-path:url(#clip-path-7);}.cls-31{clip-path:url(#clip-path-8);}.cls-32{fill:#9ee5a8;opacity:0.2;}.cls-33{isolation:isolate;}.cls-34{clip-path:url(#clip-path-9);}.cls-36{clip-path:url(#clip-path-10);}.cls-37{clip-path:url(#clip-path-11);}.cls-39{clip-path:url(#clip-path-12);}.cls-40{clip-path:url(#clip-path-13);}.cls-41{clip-path:url(#clip-path-14);}.cls-42{opacity:0.45;}.cls-43{fill:#6fefd7;}.cls-45{clip-path:url(#clip-path-16);}.cls-46{clip-path:url(#clip-path-17);}.cls-48{clip-path:url(#clip-path-18);}.cls-49{clip-path:url(#clip-path-19);}.cls-50{clip-path:url(#clip-path-20);}.cls-51{clip-path:url(#clip-path-22);}.cls-52{clip-path:url(#clip-path-24);}.cls-53{clip-path:url(#clip-path-25);}.cls-55{clip-path:url(#clip-path-26);}.cls-56{clip-path:url(#clip-path-27);}.cls-57{clip-path:url(#clip-path-28);}.cls-58{clip-path:url(#clip-path-29);}.cls-59{clip-path:url(#clip-path-30);}.cls-60{clip-path:url(#clip-path-32);}.cls-61{clip-path:url(#clip-path-33);}.cls-63{clip-path:url(#clip-path-34);}.cls-64{clip-path:url(#clip-path-35);}.cls-65{clip-path:url(#clip-path-36);}.cls-66{fill:#ffbf4d;}.cls-67{fill:#fff;}.cls-68{clip-path:url(#clip-path-38);}.cls-69{clip-path:url(#clip-path-39);}.cls-70{clip-path:url(#clip-path-40);}.cls-71{clip-path:url(#clip-path-41);}.cls-72{clip-path:url(#clip-path-42);}.cls-73{clip-path:url(#clip-path-43);}.cls-74{clip-path:url(#clip-path-44);}.cls-75{clip-path:url(#clip-path-45);}.cls-76{clip-path:url(#clip-path-46);}.cls-77{clip-path:url(#clip-path-47);}.cls-78{clip-path:url(#clip-path-48);}.cls-79{clip-path:url(#clip-path-49);}.cls-80{clip-path:url(#clip-path-50);}.cls-81{clip-path:url(#clip-path-51);}.cls-82{clip-path:url(#clip-path-52);}.cls-83{clip-path:url(#clip-path-53);}.cls-84{clip-path:url(#clip-path-54);}.cls-85{clip-path:url(#clip-path-55);}.cls-86{clip-path:url(#clip-path-56);}.cls-87{clip-path:url(#clip-path-57);}.cls-88{clip-path:url(#clip-path-58);}.cls-89{clip-path:url(#clip-path-59);}.cls-90{clip-path:url(#clip-path-60);}.cls-91{clip-path:url(#clip-path-61);}.cls-92{clip-path:url(#clip-path-62);}.cls-93{clip-path:url(#clip-path-63);}.cls-94{clip-path:url(#clip-path-64);}.cls-95{clip-path:url(#clip-path-65);}.cls-96{clip-path:url(#clip-path-66);}.cls-97{clip-path:url(#clip-path-67);}.cls-98{clip-path:url(#clip-path-68);}.cls-99{clip-path:url(#clip-path-69);}.cls-100{clip-path:url(#clip-path-70);}.cls-101{clip-path:url(#clip-path-71);}.cls-102{clip-path:url(#clip-path-72);}.cls-103{clip-path:url(#clip-path-73);}.cls-104{clip-path:url(#clip-path-74);}.cls-105{clip-path:url(#clip-path-75);}.cls-106{clip-path:url(#clip-path-76);}.cls-107{clip-path:url(#clip-path-77);}.cls-108{clip-path:url(#clip-path-78);}.cls-109{clip-path:url(#clip-path-79);}.cls-110{clip-path:url(#clip-path-80);}.cls-111{clip-path:url(#clip-path-81);}.cls-112{clip-path:url(#clip-path-82);}.cls-113{clip-path:url(#clip-path-83);}.cls-114{clip-path:url(#clip-path-84);}.cls-115{clip-path:url(#clip-path-85);}.cls-116{clip-path:url(#clip-path-86);}.cls-117{clip-path:url(#clip-path-87);}.cls-118{clip-path:url(#clip-path-88);}.cls-119{clip-path:url(#clip-path-89);}.cls-120{clip-path:url(#clip-path-90);}.cls-121{clip-path:url(#clip-path-91);}.cls-122{clip-path:url(#clip-path-92);}.cls-123{clip-path:url(#clip-path-93);}.cls-124{clip-path:url(#clip-path-94);}.cls-125{clip-path:url(#clip-path-95);}.cls-126{clip-path:url(#clip-path-96);}.cls-127{clip-path:url(#clip-path-97);}.cls-128{clip-path:url(#clip-path-98);}.cls-129{clip-path:url(#clip-path-99);}.cls-130{clip-path:url(#clip-path-100);}.cls-131{clip-path:url(#clip-path-101);}.cls-132{clip-path:url(#clip-path-102);}.cls-133{clip-path:url(#clip-path-103);}.cls-134{clip-path:url(#clip-path-104);}.cls-135{clip-path:url(#clip-path-105);}.cls-136{clip-path:url(#clip-path-106);}.cls-137{clip-path:url(#clip-path-107);}.cls-138{clip-path:url(#clip-path-108);}.cls-139{clip-path:url(#clip-path-109);}.cls-140{clip-path:url(#clip-path-110);}.cls-141{clip-path:url(#clip-path-111);}.cls-142{clip-path:url(#clip-path-112);}.cls-143{clip-path:url(#clip-path-113);}.cls-144{clip-path:url(#clip-path-114);}.cls-145{clip-path:url(#clip-path-115);}.cls-146{clip-path:url(#clip-path-116);}.cls-147{clip-path:url(#clip-path-117);}.cls-148{clip-path:url(#clip-path-118);}.cls-149{clip-path:url(#clip-path-119);}.cls-150{clip-path:url(#clip-path-120);}.cls-151{clip-path:url(#clip-path-121);}.cls-152{clip-path:url(#clip-path-122);}.cls-153{clip-path:url(#clip-path-123);}.cls-154{clip-path:url(#clip-path-124);}.cls-155{clip-path:url(#clip-path-125);}.cls-156{clip-path:url(#clip-path-126);}.cls-157{clip-path:url(#clip-path-127);}.cls-158{clip-path:url(#clip-path-128);}</style><clipPath id="clip-path"><path class="cls-1" d="M-545.16-859.77c-2.14-11.06-1.28-22.64,5.23-32.48,18.77-28.36,56.2,1.37,55.77,20.79s-22.74,56.7-34.58,53.52c-4.72-1.27-12-8.83-17.92-19.27l-16.82,42.85-33.11-18.71Z"/></clipPath><clipPath id="clip-path-2"><path class="cls-2" d="M-554.52-828.63l22,12.22c-18.26,53.32-2.81,99.69,70.61,121l-1,28.16c-69.1,2.48-152.89,17-111.29-107C-567.74-793.24-562.23-813.27-554.52-828.63Z"/></clipPath><clipPath id="clip-path-3"><path class="cls-5" d="M-562.63-840.53l30.75,24.12c-27.91,59.27-26.83,106-37.66,154.12l-84.46-49c-10.34,12.41-21.72,38.27-30,48.62l-27.92-22.76c24.82-85.85,74.5-134.14,147-156.18l2.26,1.06Z"/></clipPath><clipPath id="clip-path-4"><path class="cls-2" d="M-593.41-784.51q-33.9,51.15-42.42,83.42L-654-711.49C-635.08-738.67-615.2-763.18-593.41-784.51Z"/></clipPath><clipPath id="clip-path-5"><path class="cls-1" d="M-545.16-418.77c-2.14-11.06-1.28-22.64,5.23-32.48,18.77-28.36,56.2,1.37,55.77,20.79s-22.74,56.7-34.58,53.52c-4.72-1.27-12-8.83-17.92-19.27l-16.82,42.85-33.11-18.71Z"/></clipPath><clipPath id="clip-path-6"><path class="cls-2" d="M-554.52-387.63l22,12.22c-18.26,53.32-2.81,99.69,70.61,121l-1,28.16c-69.1,2.48-152.89,17-111.29-107C-567.74-352.24-562.23-372.27-554.52-387.63Z"/></clipPath><clipPath id="clip-path-7"><path class="cls-5" d="M-562.63-399.53l30.75,24.12c-27.91,59.27-26.83,106-37.66,154.12l-84.46-49c-10.34,12.41-21.72,38.27-30,48.62l-27.92-22.76c24.82-85.85,74.5-134.14,147-156.18l2.26,1.06Z"/></clipPath><clipPath id="clip-path-8"><path class="cls-2" d="M-593.41-343.51q-33.9,51.15-42.42,83.42L-654-270.49C-635.08-297.67-615.2-322.18-593.41-343.51Z"/></clipPath><clipPath id="clip-path-9"><rect class="cls-4" x="384.66" y="136.85" width="98.17" height="147.81"/></clipPath><clipPath id="clip-path-10"><path class="cls-6" d="M396.73,179.42c5-.26,11.22,2.67,11.76,8.12.39,4,.27,7.92.87,11.88a32,32,0,0,0,2.89,9.08c1.33,2.77,4.1,5.13,4.82,8.09a12.63,12.63,0,0,1-.43,6.39c-.77,2.24-.36,2.07,1.18,4a51.45,51.45,0,0,1,7.63,11.88c2.75,6.34,4.56,13.76,3.54,20.71-.13.88-.29,4.05-1.5,4.27-1.36.24-.72-1.57-.65-2.15a38.15,38.15,0,0,0,.31-10.78c-2.15-14.63-12.64-24.26-19.47-36.67-.37-.64-1.16-2.17-1.72-3.17-.87-1.59-1.74-4.61-2.92-5.79-2.22-2.22-.18,2.24.25,3.09.55,1.08,1.15,2.22,1.71,3.17,2.57,4.37,5.43,9.14,8.07,13.65-11.44,2.61-19.51-11.15-22.58-20.2-2.53-7.46-5.56-24.89,6.24-25.52"/></clipPath><clipPath id="clip-path-11"><rect class="cls-7" x="387.97" y="136.85" width="93.39" height="147.44"/></clipPath><clipPath id="clip-path-12"><path class="cls-8" d="M464,165.57c-8.39.67-13.78,6.21-16.29,14-1.35,4.18-1.51,8.46-2.26,12.75a27.2,27.2,0,0,1-8.31,15.94,16.22,16.22,0,0,0-3.33,4.45,19.11,19.11,0,0,0-3.84,5.49,10.15,10.15,0,0,0-.16,8.82,9.07,9.07,0,0,0,2.36,2.9,56.82,56.82,0,0,0-5.59,25.52c.14,5.28.4,10.57.7,15.84.08,1.42.54,3.76,1.24,1.38.63-2.17-.16-5.58-.24-7.85-.36-11.06-.66-21.12,3.89-31.45.48-1.09,1-2.16,1.51-3.23a.47.47,0,0,0,.09-.06l.06,0c0-.06.08-.13.13-.21a2.78,2.78,0,0,0,.41-.57,4,4,0,0,0,.86-1.58h0a148.54,148.54,0,0,1,9.35-13.21s3.57-4.88,3-2.16c-.27,1.3-2.92,3.79-4,5.18a128.89,128.89,0,0,0-7.46,10.75A5.38,5.38,0,0,0,435.1,230c-.18.33-.34.66-.5,1,8.18,2.7,14.55-2.75,18.89-9.08v0a27.48,27.48,0,0,1,4.37-4.88c2.82-2.31,5.84-2.71,9.16-3.85,9.07-3.1,12.93-14.85,14.15-23.57,1.38-9.84-5.37-24.93-17.17-24"/></clipPath><clipPath id="clip-path-13"><rect class="cls-9" x="387.97" y="136.85" width="93.39" height="147.44"/></clipPath><clipPath id="clip-path-14"><path class="cls-6" d="M429.46,257.54H428a47.44,47.44,0,0,1,.53-5.32c1.14-6.73,4.7-16.61,12.5-17.7a20.73,20.73,0,0,1,2.63,0,4.79,4.79,0,0,1,2-.59c6.65-.49,14.07,4.87,17.27,10.45,2.58,4.49,2.15,10.4.55,15.18-1.07,3.2-3.4,7.76-7.29,7.8-4.86.06-5.1-6-5.19-9.47-.13-4.68-.72-8.75-4.4-11.93-.86-.75-1.79-1.4-2.66-2.13-1.36-1.15-2.86-2.32-3-4.21-.25-2.62,1.23-3.09,3.48-2.6.39.08,4.26,1.82,3.68.44-.17-.42-.81-.75-1.62-1a30.63,30.63,0,0,0-5.29-.33c-7.72,1.69-10.72,12.39-11.52,19.18C429.59,256.07,429.52,256.8,429.46,257.54Z"/></clipPath><clipPath id="clip-path-16"><path class="cls-10" d="M367.27,30.3c3.32-3.9,5.57-8.68,5.19-14C371.38.85,349.91,4.24,345.73,12S342.05,39.56,347.45,41c2.15.55,6.74-.81,11.41-3.62l-2.93,20.72h17.29Z"/></clipPath><clipPath id="clip-path-17"><rect class="cls-11" x="14.94" y="-1059.24" width="458.7" height="1364.58"/></clipPath><clipPath id="clip-path-18"><path class="cls-12" d="M361.89,21.92a3.43,3.43,0,0,1,2-.62,3.71,3.71,0,0,1,3.61,3.6,4.3,4.3,0,0,1-2.18,4c.68,1.34,1.37,2.31,2.18,2.49,3.11-.32,7.21-8.06,7.21-14.42,0-7-5.54-13-15.86-13-9.28,0-12.79,3.82-13,7.21,4,1.09,10.92,1.51,20.9,1.44v.72l-8.65.72-1.44,4.32C358.94,18.24,360.58,19.82,361.89,21.92Z"/></clipPath><clipPath id="clip-path-19"><rect class="cls-13" x="14.94" y="-1059.24" width="458.7" height="1364.58"/></clipPath><clipPath id="clip-path-20"><polygon class="cls-10" points="384.73 118.92 357.65 207.63 344.53 283.07 334.25 283.07 348.11 118.92 384.73 118.92"/></clipPath><clipPath id="clip-path-22"><path class="cls-10" d="M394.42,118.92c-1.84,48.7.33,73.83.74,78.25s5,30.92,18.37,85.18l-9.94-1.57c-21.09-49.77-28.28-75.63-30.7-82.17s-8.84-33.1-19.27-79.69Z"/></clipPath><clipPath id="clip-path-24"><path class="cls-1" d="M346.74,280.54a15.7,15.7,0,0,1,1.28,5,35.42,35.42,0,0,1-.65,5.69H306.5q-1.59-5.24,1.84-5.66t5.7-.75l19.08-8.46a.63.63,0,0,1,.84.32v0l1.25,3a13,13,0,0,0,5.17,1.48,12.2,12.2,0,0,0,4.62-1.37h0a1.28,1.28,0,0,1,1.7.62Z"/></clipPath><clipPath id="clip-path-25"><rect class="cls-14" x="304.85" y="262.41" width="43.9" height="28.84"/></clipPath><clipPath id="clip-path-26"><polygon class="cls-15" points="388.33 118.92 376.82 164.11 341.65 164.11 346.89 118.92 388.33 118.92"/></clipPath><clipPath id="clip-path-27"><rect class="cls-16" x="14.94" y="-1059.24" width="458.7" height="1364.58"/></clipPath><clipPath id="clip-path-28"><path class="cls-5" d="M394.81,118.92Q400.5,136,397,164.11H361.08l-9.87-45.19Z"/></clipPath><clipPath id="clip-path-29"><rect class="cls-17" x="14.94" y="-1059.24" width="458.7" height="1364.58"/></clipPath><clipPath id="clip-path-30"><path class="cls-10" d="M421.38,94.08l-14.22,5Q435,137,436.94,139.21c2.92,3.36,1.63,10.44,1.3,14.13,5.37.47,2.22-7,9-6.34,6.21.65,11.83,3.75,16.7-2.18.6-.73.82-2.78-1.66-3.46-6.2-1.71-15.49-5.23-17.15-6.87Q441.76,131.13,421.38,94.08Zm-105,11.57L288.93,98a61.88,61.88,0,0,0-14.56-8.43c-1.32-.22-3.49,0-.72,3s5.54,6.34,4.79,7.64-3.6.38-4.38,2.44q-.78,2.05,14.1,2.68l21.45,12.1Z"/></clipPath><clipPath id="clip-path-32"><path class="cls-1" d="M359.33,47.1,353,46.91c-11.61,14.91-12.71,47-21.08,52.35-7.92,5.1-20.46,3-35.45-.1l-3,10.36c14.93,12.18,44.22,20.13,54.47,11.8C364.33,108,363.05,68.86,359.33,47.1Z"/></clipPath><clipPath id="clip-path-33"><rect class="cls-14" x="14.94" y="-1059.24" width="458.7" height="1364.58"/></clipPath><clipPath id="clip-path-34"><path class="cls-18" d="M397.11,120.74l-54.61,7.68c-2.49.35-2.53-3.32-2.42-5.18,1.22-21.53,14.3-46.4,10.11-76.21l15.4-4.68C381.56,61.43,389.68,86.55,397.11,120.74Z"/></clipPath><clipPath id="clip-path-35"><rect class="cls-19" x="14.94" y="-1059.24" width="458.7" height="1364.58"/></clipPath><clipPath id="clip-path-36"><path class="cls-1" d="M399.58,98.77q20.93,27.72,34.15,39.35l11.14-3.85q-20.69-66.92-78.26-92.06l-.18,0-6.06.85q-11.07,75.16,1.82,97.83L411.35,134A181.13,181.13,0,0,0,399.58,98.77Z"/></clipPath><clipPath id="clip-path-38"><path class="cls-3" d="M986.67,427.37c-7.4,0-7.4-60.87,0-60.87H765.79c-7.4,0-7.4,60.87,0,60.87Z"/></clipPath><clipPath id="clip-path-39"><path class="cls-3" d="M761.49,377H982.75a1,1,0,0,0,0-2H761.49a1,1,0,0,0,0,2"/></clipPath><clipPath id="clip-path-40"><path class="cls-3" d="M761.49,388.93H982.75a1,1,0,0,0,0-2H761.49a1,1,0,0,0,0,2"/></clipPath><clipPath id="clip-path-41"><path class="cls-3" d="M761.49,406.91H982.75a1,1,0,0,0,0-2H761.49a1,1,0,0,0,0,2"/></clipPath><clipPath id="clip-path-42"><path class="cls-3" d="M761.49,418.9H982.75a1,1,0,0,0,0-2H761.49a1,1,0,0,0,0,2"/></clipPath><clipPath id="clip-path-43"><path class="cls-3" d="M761.49,382.94H982.75a1,1,0,0,0,0-2H761.49a1,1,0,0,0,0,2"/></clipPath><clipPath id="clip-path-44"><path class="cls-3" d="M761.49,394.93H982.75a1,1,0,0,0,0-2H761.49a1,1,0,0,0,0,2"/></clipPath><clipPath id="clip-path-45"><path class="cls-3" d="M761.49,400.92H982.75a1,1,0,0,0,0-2H761.49a1,1,0,0,0,0,2"/></clipPath><clipPath id="clip-path-46"><path class="cls-3" d="M761.49,412.9H982.75a1,1,0,0,0,0-2H761.49a1,1,0,0,0,0,2"/></clipPath><clipPath id="clip-path-47"><path class="cls-3" d="M765.8,362.56H658c-2.33,0-9.39,0-9.39,34.37s7.06,34.37,9.39,34.37H765.8a3.88,3.88,0,0,0,3.83-3.94,4,4,0,0,0-2.58-3.73c-4-6.53-4-46.86,0-53.4a3.94,3.94,0,0,0,2.58-3.73A3.9,3.9,0,0,0,765.8,362.56Z"/></clipPath><clipPath id="clip-path-48"><rect class="cls-4" x="756.42" y="362.56" width="234.08" height="68.76"/></clipPath><clipPath id="clip-path-49"><path class="cls-3" d="M792.85,382.63v26.64a1.43,1.43,0,0,1-1.87,1.39l-6.17-2.15-6.17,2.15a1.43,1.43,0,0,1-1.87-1.39V382.63a1.26,1.26,0,0,1,1.24-1.28h13.6a1.26,1.26,0,0,1,1.24,1.28"/></clipPath><clipPath id="clip-path-50"><path class="cls-3" d="M791.43,411.72a2.3,2.3,0,0,0,1.39-.46,2.48,2.48,0,0,0,1-2V382.63a2.24,2.24,0,0,0-2.2-2.27H778a2.24,2.24,0,0,0-2.2,2.27v26.64a2.48,2.48,0,0,0,1,2,2.3,2.3,0,0,0,2.15.33l5.86-2,5.86,2a2.21,2.21,0,0,0,.76.13m-6.62-4.19a1.06,1.06,0,0,0-.31.05l-6.17,2.14a.43.43,0,0,1-.42-.06.46.46,0,0,1-.19-.39V382.63a.3.3,0,0,1,.29-.3h13.6a.3.3,0,0,1,.28.3v26.64a.46.46,0,0,1-.19.39.43.43,0,0,1-.42.06l-6.17-2.14a1,1,0,0,0-.3-.05"/></clipPath><clipPath id="clip-path-51"><path class="cls-3" d="M793.77,381.91v26.65a1.43,1.43,0,0,1-1.88,1.38l-6.17-2.14-6.17,2.14a1.42,1.42,0,0,1-1.87-1.38V381.91a1.26,1.26,0,0,1,1.25-1.28h13.59a1.26,1.26,0,0,1,1.25,1.28"/></clipPath><clipPath id="clip-path-52"><path class="cls-3" d="M962,314.11c-7.42,0-7.42-63.37,0-63.37H824.31c-7.42,0-7.42,63.37,0,63.37Z"/></clipPath><clipPath id="clip-path-53"><path class="cls-3" d="M820,261.61H958.08a1,1,0,0,0,0-2.05H820a1,1,0,0,0,0,2.05"/></clipPath><clipPath id="clip-path-54"><path class="cls-3" d="M820,274.09H958.08a1,1,0,0,0,0-2H820a1,1,0,0,0,0,2"/></clipPath><clipPath id="clip-path-55"><path class="cls-3" d="M820,292.81H958.08a1,1,0,0,0,0-2.05H820a1,1,0,0,0,0,2.05"/></clipPath><clipPath id="clip-path-56"><path class="cls-3" d="M820,305.29H958.08a1,1,0,0,0,0-2.05H820a1,1,0,0,0,0,2.05"/></clipPath><clipPath id="clip-path-57"><path class="cls-3" d="M820,267.85H958.08a1,1,0,0,0,0-2.05H820a1,1,0,0,0,0,2.05"/></clipPath><clipPath id="clip-path-58"><path class="cls-3" d="M820,280.33H958.08a1,1,0,0,0,0-2.05H820a1,1,0,0,0,0,2.05"/></clipPath><clipPath id="clip-path-59"><path class="cls-3" d="M820,286.57H958.08a1,1,0,0,0,0-2.05H820a1,1,0,0,0,0,2.05"/></clipPath><clipPath id="clip-path-60"><path class="cls-3" d="M820,299.05H958.08a1,1,0,0,0,0-2.05H820a1,1,0,0,0,0,2.05"/></clipPath><clipPath id="clip-path-61"><path class="cls-3" d="M671.91,246.63H824.32a4,4,0,0,1,3.83,4.11,4.11,4.11,0,0,1-2.59,3.89c-4,6.79-4,48.79,0,55.59a4.11,4.11,0,0,1,2.59,3.88,4,4,0,0,1-3.83,4.11H671.91c-2.34,0-9.41,0-9.41-35.79S669.57,246.63,671.91,246.63Z"/></clipPath><clipPath id="clip-path-62"><rect class="cls-4" x="814.91" y="246.63" width="150.93" height="71.59"/></clipPath><clipPath id="clip-path-63"><path class="cls-3" d="M851.41,267.53v27.74a1.43,1.43,0,0,1-1.87,1.44l-6.18-2.23-6.18,2.23a1.44,1.44,0,0,1-1.88-1.44V267.53a1.3,1.3,0,0,1,1.25-1.34h13.62a1.29,1.29,0,0,1,1.24,1.34"/></clipPath><clipPath id="clip-path-64"><path class="cls-3" d="M850,297.82a2.25,2.25,0,0,0,1.39-.48,2.62,2.62,0,0,0,1-2.07V267.53a2.3,2.3,0,0,0-2.2-2.37H836.55a2.3,2.3,0,0,0-2.21,2.37v27.74a2.62,2.62,0,0,0,1,2.07,2.26,2.26,0,0,0,2.15.35l5.88-2.13,5.87,2.13a2.21,2.21,0,0,0,.76.13m-6.63-4.37a.81.81,0,0,0-.31.06l-6.18,2.23a.4.4,0,0,1-.42-.07.49.49,0,0,1-.19-.4V267.53a.3.3,0,0,1,.29-.31h13.62a.29.29,0,0,1,.28.31v27.74a.49.49,0,0,1-.19.4.39.39,0,0,1-.41.07l-6.19-2.23a.8.8,0,0,0-.3-.06"/></clipPath><clipPath id="clip-path-65"><path class="cls-3" d="M852.33,266.78v27.75a1.44,1.44,0,0,1-1.88,1.44l-6.18-2.23L838.09,296a1.44,1.44,0,0,1-1.88-1.44V266.78a1.29,1.29,0,0,1,1.25-1.33h13.62a1.29,1.29,0,0,1,1.25,1.33"/></clipPath><clipPath id="clip-path-66"><path class="cls-3" d="M727,354.82V323.56a3.17,3.17,0,0,1,0-6.33H980.77c9.16,0,13.32,11.39,13.32,22s-4.16,22-13.32,22H727a3.17,3.17,0,0,1,0-6.33Z"/></clipPath><clipPath id="clip-path-67"><path class="cls-3" d="M651.54,358c13.7,0,13.7-37.59,0-37.59H827.18c13.7,0,13.7,37.59,0,37.59Z"/></clipPath><clipPath id="clip-path-68"><path class="cls-3" d="M830.61,332.77H660.36a.79.79,0,0,1,0-1.58H830.61a.79.79,0,0,1,0,1.58"/></clipPath><clipPath id="clip-path-69"><path class="cls-3" d="M830.61,347.19H660.36a.79.79,0,0,1,0-1.58H830.61a.79.79,0,0,1,0,1.58"/></clipPath><clipPath id="clip-path-70"><path class="cls-3" d="M830.61,328H659.28a.8.8,0,0,1,0-1.59H830.61a.8.8,0,0,1,0,1.59"/></clipPath><clipPath id="clip-path-71"><path class="cls-3" d="M830.61,337.58H661.44a.79.79,0,0,1,0-1.58H830.61a.79.79,0,0,1,0,1.58"/></clipPath><clipPath id="clip-path-72"><path class="cls-3" d="M830.61,342.39H661.44a.8.8,0,0,1,0-1.59H830.61a.8.8,0,0,1,0,1.59"/></clipPath><clipPath id="clip-path-73"><path class="cls-3" d="M830.61,352H659.28a.8.8,0,0,1,0-1.59H830.61a.8.8,0,0,1,0,1.59"/></clipPath><clipPath id="clip-path-74"><rect class="cls-4" x="648.5" y="317.23" width="192" height="43.92"/></clipPath><clipPath id="clip-path-75"><path class="cls-3" d="M807.19,328.89v12.92a1.14,1.14,0,0,0,1.49,1.11l4.9-1.72,4.91,1.72a1.14,1.14,0,0,0,1.49-1.11V328.89a1,1,0,0,0-1-1H808.18a1,1,0,0,0-1,1"/></clipPath><clipPath id="clip-path-76"><path class="cls-3" d="M808.32,343.77a1.89,1.89,0,0,1-1.11-.36,2,2,0,0,1-.78-1.6V328.89a1.78,1.78,0,0,1,1.75-1.82H819a1.79,1.79,0,0,1,1.75,1.82v12.92a2,2,0,0,1-.79,1.6,1.86,1.86,0,0,1-1.71.26L813.58,342l-4.66,1.63A1.8,1.8,0,0,1,808.32,343.77Zm-.14-15.12a.23.23,0,0,0-.23.24v12.92a.39.39,0,0,0,.15.31.34.34,0,0,0,.33.05l4.91-1.72a.69.69,0,0,1,.49,0l4.9,1.72a.36.36,0,0,0,.33-.05.37.37,0,0,0,.16-.31V328.89a.24.24,0,0,0-.23-.24Z"/></clipPath><clipPath id="clip-path-77"><path class="cls-3" d="M807.59,343.2a1.84,1.84,0,0,1-1.1-.37,2,2,0,0,1-.79-1.6V328.31a1.79,1.79,0,0,1,1.75-1.82h10.81a1.79,1.79,0,0,1,1.75,1.82v12.92a2,2,0,0,1-.79,1.6,1.82,1.82,0,0,1-1.7.27l-4.66-1.64-4.67,1.64A1.76,1.76,0,0,1,807.59,343.2Z"/></clipPath><clipPath id="clip-path-78"><path class="cls-3" d="M703.38,244.68h68.94c9.45-5.22,16.49-17,16.52-32.38L821.52,94.44h196.76L985.6,212.3c0,15.37-7.07,27.16-16.53,32.38h-112"/></clipPath><clipPath id="clip-path-79"><path class="cls-3" d="M969.07,248.58h-112a3.91,3.91,0,0,1,0-7.81H968.05c8.45-5.14,13.67-15.94,13.7-28.48a3.74,3.74,0,0,1,.14-1L1013.2,98.35H824.44l-31.75,114.5c-.19,15.57-7.26,29.05-18.54,35.26a3.81,3.81,0,0,1-1.84.47H703.38a3.91,3.91,0,0,1,0-7.81h67.91c8.45-5.14,13.68-15.94,13.7-28.48a4.15,4.15,0,0,1,.14-1L817.82,93.38a3.86,3.86,0,0,1,3.7-2.85h196.76a3.85,3.85,0,0,1,3.07,1.55,3.94,3.94,0,0,1,.63,3.42L989.44,212.85c-.18,15.57-7.25,29.05-18.53,35.26a3.84,3.84,0,0,1-1.84.47"/></clipPath><clipPath id="clip-path-80"><path class="cls-3" d="M788.31,228.75c-5.21-5.84,30.46-131.88,40.87-131.88h186.43L979.86,228.25Z"/></clipPath><clipPath id="clip-path-81"><path class="cls-3" d="M803.7,207.11h-.13a1,1,0,0,1-.83-1.1c4.1-30.32,14-63.21,30.21-100.55a1,1,0,0,1,1.27-.5,1,1,0,0,1,.49,1.29c-16.16,37.17-26,69.89-30.06,100a1,1,0,0,1-.95.85"/></clipPath><clipPath id="clip-path-82"><path class="cls-3" d="M809.65,207.11h-.13a1,1,0,0,1-.82-1.1c4.09-30.48,14-63.37,30.2-100.55a1,1,0,0,1,1.27-.5,1,1,0,0,1,.49,1.29c-16.16,37-26,69.73-30,100a1,1,0,0,1-1,.85"/></clipPath><clipPath id="clip-path-83"><path class="cls-3" d="M815.61,207.11h-.13a1,1,0,0,1-.83-1.1c4.08-30.63,14-63.52,30.21-100.56a1,1,0,0,1,1.27-.49,1,1,0,0,1,.49,1.29c-16.18,36.86-26,69.58-30.06,100a1,1,0,0,1-.95.85"/></clipPath><clipPath id="clip-path-84"><path class="cls-3" d="M821.56,207.11h-.13a1,1,0,0,1-.82-1.1c4-30.35,14.17-64.18,30.2-100.56a1,1,0,0,1,1.27-.49,1,1,0,0,1,.49,1.29c-16,36.21-26.07,69.86-30.06,100a1,1,0,0,1-1,.85"/></clipPath><clipPath id="clip-path-85"><path class="cls-3" d="M827.52,207.11h-.13a1,1,0,0,1-.83-1.1c4-30.5,14.16-64.33,30.21-100.56A1,1,0,0,1,858,105a1,1,0,0,1,.48,1.29c-16,36.06-26.07,69.71-30,100a1,1,0,0,1-1,.85"/></clipPath><clipPath id="clip-path-86"><path class="cls-3" d="M833.47,207.11h-.13a1,1,0,0,1-.83-1.1c4-30.64,14.16-64.47,30.21-100.56A1,1,0,0,1,864,105a1,1,0,0,1,.48,1.29c-16,35.92-26.09,69.57-30.06,100a1,1,0,0,1-.95.85"/></clipPath><clipPath id="clip-path-87"><path class="cls-3" d="M839.42,207.11h-.12a1,1,0,0,1-.83-1.1c4-30.78,14.14-64.62,30.21-100.56A1,1,0,0,1,870,105a1,1,0,0,1,.48,1.3c-16,35.76-26.1,69.41-30,100a1,1,0,0,1-1,.85"/></clipPath><clipPath id="clip-path-88"><path class="cls-3" d="M845.38,207.11h-.13a1,1,0,0,1-.83-1.09c4-30.94,14.14-64.77,30.21-100.57a1,1,0,0,1,1.28-.49,1,1,0,0,1,.47,1.3c-16,35.62-26.11,69.27-30,100a1,1,0,0,1-1,.85"/></clipPath><clipPath id="clip-path-89"><path class="cls-3" d="M851.33,207.11h-.12a1,1,0,0,1-.83-1.09c4-31.07,14.12-64.91,30.21-100.58a1,1,0,0,1,1.27-.48,1,1,0,0,1,.48,1.3c-16,35.49-26.12,69.14-30.05,100a1,1,0,0,1-1,.85"/></clipPath><clipPath id="clip-path-90"><path class="cls-3" d="M857.29,207.11h-.13a1,1,0,0,1-.83-1.09c3-23.57,9.19-47.65,19-73.61a1,1,0,0,1,1.25-.56,1,1,0,0,1,.55,1.26c-9.74,25.81-15.92,49.74-18.88,73.16a1,1,0,0,1-1,.85"/></clipPath><clipPath id="clip-path-91"><path class="cls-3" d="M863.24,207.11h-.12a1,1,0,0,1-.83-1.09c3.93-31.35,14.09-65.19,30.21-100.58a.94.94,0,0,1,1.27-.47,1,1,0,0,1,.48,1.29c-16,35.21-26.15,68.86-30,100a1,1,0,0,1-1,.85"/></clipPath><clipPath id="clip-path-92"><path class="cls-3" d="M869.2,207.11h-.12a1,1,0,0,1-.84-1.09c3.92-31.48,14.08-65.32,30.21-100.58a1,1,0,0,1,1.28-.47,1,1,0,0,1,.47,1.29c-16.05,35.08-26.16,68.73-30.05,100a1,1,0,0,1-.95.85"/></clipPath><clipPath id="clip-path-93"><path class="cls-3" d="M875.15,207.11H875a1,1,0,0,1-.84-1.09c3.91-31.62,14.08-65.46,30.22-100.58a1,1,0,0,1,1.27-.47,1,1,0,0,1,.47,1.3c-16,34.93-26.16,68.58-30,100a1,1,0,0,1-1,.86"/></clipPath><clipPath id="clip-path-94"><path class="cls-3" d="M881.11,207.11H881a1,1,0,0,1-.84-1.09c3.89-31.75,14.06-65.59,30.21-100.58a1,1,0,0,1,1.28-.47,1,1,0,0,1,.47,1.3c-16.08,34.8-26.18,68.45-30.05,100a1,1,0,0,1-.95.86"/></clipPath><clipPath id="clip-path-95"><path class="cls-3" d="M887.06,207.11h-.12a1,1,0,0,1-.84-1.09c3.88-31.87,14-65.72,30.22-100.58a1,1,0,0,1,1.28-.47,1,1,0,0,1,.46,1.3c-16.09,34.68-26.19,68.32-30,100a1,1,0,0,1-1,.86"/></clipPath><clipPath id="clip-path-96"><path class="cls-3" d="M893,207.11h-.12a1,1,0,0,1-.83-1.09c3.86-32,14-65.86,30.21-100.59a1,1,0,0,1,1.28-.46,1,1,0,0,1,.46,1.3c-16.09,34.54-26.2,68.18-30,100a1,1,0,0,1-1,.86"/></clipPath><clipPath id="clip-path-97"><path class="cls-3" d="M899,207.11h-.12A1,1,0,0,1,898,206a305.66,305.66,0,0,1,16-66.23,1,1,0,0,1,1.23-.58,1,1,0,0,1,.58,1.25,303.6,303.6,0,0,0-15.91,65.8,1,1,0,0,1-.95.86"/></clipPath><clipPath id="clip-path-98"><path class="cls-3" d="M904.92,207.11h-.11A1,1,0,0,1,904,206c3.83-32.26,14-66.11,30.21-100.59a1,1,0,0,1,1.29-.46,1,1,0,0,1,.45,1.3c-16.13,34.29-26.23,67.93-30,100a1,1,0,0,1-1,.86"/></clipPath><clipPath id="clip-path-99"><path class="cls-3" d="M910.88,207.11h-.12a1,1,0,0,1-.84-1.09c3.82-32.4,14-66.24,30.22-100.59a1,1,0,0,1,1.28-.46,1,1,0,0,1,.45,1.3c-16.13,34.16-26.24,67.8-30,100a1,1,0,0,1-1,.86"/></clipPath><clipPath id="clip-path-100"><path class="cls-3" d="M916.83,207.11h-.12a1,1,0,0,1-.84-1.08c3.81-32.53,14-66.38,30.22-100.6a1,1,0,0,1,1.29-.46,1,1,0,0,1,.45,1.31c-16.16,34-26.26,67.66-30.05,100a1,1,0,0,1-.95.86"/></clipPath><clipPath id="clip-path-101"><path class="cls-3" d="M922.78,207.11h-.11a1,1,0,0,1-.84-1.08c3.79-32.66,14-66.5,30.22-100.6a1,1,0,0,1,1.28-.46,1,1,0,0,1,.45,1.31c-16.17,33.9-26.27,67.54-30,100a1,1,0,0,1-1,.86"/></clipPath><clipPath id="clip-path-102"><path class="cls-3" d="M928.74,207.11h-.12a1,1,0,0,1-.84-1.08c3.78-32.78,14-66.63,30.22-100.61a1,1,0,1,1,1.73.86c-16.18,33.78-26.28,67.41-30,100a1,1,0,0,1-1,.86"/></clipPath><clipPath id="clip-path-103"><path class="cls-3" d="M934.69,207.11h-.11a1,1,0,0,1-.85-1.08c3.77-32.9,13.94-66.75,30.23-100.61a1,1,0,0,1,1.29-.45,1,1,0,0,1,.44,1.31c-16.2,33.66-26.3,67.29-30,100a1,1,0,0,1-1,.86"/></clipPath><clipPath id="clip-path-104"><path class="cls-3" d="M940.65,207.11h-.12a1,1,0,0,1-.84-1.08c3.75-33,13.91-66.87,30.22-100.61a1,1,0,0,1,1.29-.44,1,1,0,0,1,.44,1.3c-16.21,33.54-26.32,67.17-30,100a1,1,0,0,1-1,.87"/></clipPath><clipPath id="clip-path-105"><path class="cls-3" d="M946.6,207.11h-.11a1,1,0,0,1-.85-1.08c3.73-33.15,13.9-67,30.23-100.61a1,1,0,0,1,1.28-.44,1,1,0,0,1,.44,1.3c-16.22,33.42-26.33,67.05-30,100a1,1,0,0,1-1,.87"/></clipPath><clipPath id="clip-path-106"><path class="cls-3" d="M952.56,207.11h-.11a1,1,0,0,1-.85-1.08c3.71-33.26,13.88-67.12,30.22-100.61a1,1,0,0,1,1.29-.44,1,1,0,0,1,.44,1.3c-16.25,33.3-26.35,66.93-30,100a1,1,0,0,1-1,.87"/></clipPath><clipPath id="clip-path-107"><path class="cls-3" d="M958.51,207.11h-.11a1,1,0,0,1-.85-1.08,283,283,0,0,1,8.58-44.18,1,1,0,0,1,1.18-.68,1,1,0,0,1,.67,1.21,280.14,280.14,0,0,0-8.51,43.87,1,1,0,0,1-1,.87"/></clipPath><clipPath id="clip-path-108"><path class="cls-3" d="M1013.56,96.87c-7.87,4.64-19.2,28.26-28.71,61.44-18.23,63.57-17.05,57.59-6.89,64.21,9.73,6.34,6.25,1.08,6.25,1.08l32.53-127Z"/></clipPath><clipPath id="clip-path-109"><path class="cls-3" d="M672.54,244.68s9.76-10.36,14.14-19a2.81,2.81,0,0,1,2.84-1.52,583.76,583.76,0,0,0,104.37,2.3c30.87-2.23,134.22-17.47,180.41-6.9a9.21,9.21,0,0,1,6,13.13c-2.66,5.23-6.52,10.78-11.25,12Z"/></clipPath><clipPath id="clip-path-110"><path class="cls-3" d="M862.15,222.91c-.29,7.86-2.84,18.42-3.68,21.76H969.08c4.73-1.17,8.58-6.72,11.24-11.93a9.23,9.23,0,0,0-6.1-13.16c-25.91-5.91-69.74-3.73-108.7-.26a3.72,3.72,0,0,0-3.37,3.59"/></clipPath><clipPath id="clip-path-111"><rect class="cls-4" x="656.5" y="240.77" width="261.85" height="7.82"/></clipPath><clipPath id="clip-path-112"><rect class="cls-4" x="853.26" y="90.53" width="168.87" height="158.05"/></clipPath><clipPath id="clip-path-113"><path class="cls-3" d="M706.68,309.4q21.9-33.06,29.3-48.74c8.44-17.9,15.23-33.77,17.29-39.78,4.91-14.34-15.85-19-19.85-12.2q-9.1,15.52-36.26,95.87Z"/></clipPath><clipPath id="clip-path-114"><path class="cls-3" d="M740,300.27l24-81.89c5.36-15-27.45-21.71-31.73-14.56-9.71,16.21-30.71,78.67-33.6,83.5Z"/></clipPath><clipPath id="clip-path-115"><path class="cls-3" d="M714,305.4a17.17,17.17,0,0,1,1.78,5.23,41.71,41.71,0,0,1-.18,6.71l-48.05,4.2q-2.4-6,1.59-6.79t6.63-1.47l21.34-11.72a1,1,0,0,1,1.36.39v0l1.66,3.18a15.47,15.47,0,0,0,6.22,1.19,13.44,13.44,0,0,0,4.87-1.83h0a2,2,0,0,1,2.71.78Z"/></clipPath><clipPath id="clip-path-116"><path class="cls-3" d="M804.26,290.56c-4.56-10.48-21.61-46.1-31.66-61.44-2.89-4.41-5.71-8.66-8.4-12.62-8-11.78-30.58.74-22.45,11.65,20.22,27.15,50.19,64.35,52.66,67.63C797.87,300.37,807.12,297.15,804.26,290.56Z"/></clipPath><clipPath id="clip-path-117"><path class="cls-3" d="M805.7,288.57a19.21,19.21,0,0,1,2.88,5.27,46.23,46.23,0,0,1,1.07,7.11l-48.53,13q-3.6-5.83.35-7.44c2.62-1.06,4.8-2,6.52-2.73l19.73-16.18a1,1,0,0,1,1.41.14l0,0,2.34,3.1a15.8,15.8,0,0,0,6.61.14,13.77,13.77,0,0,0,4.69-2.84,2,2,0,0,1,2.82.27Z"/></clipPath><clipPath id="clip-path-118"><path class="cls-3" d="M777.45,229.27q41.17-3.17,55.18-4.43c26.61-2.4,35.51-16.05,33.72-47.67l-48.27-4.23q-9.83,2-83.12,27.75c-8.83,3.52-8.35,16.23-7.17,20.5q.08.27,36.26,78.14l41.72-22.08-28.66-45C776.41,230.45,776.52,229.45,777.45,229.27Z"/></clipPath><clipPath id="clip-path-119"><path class="cls-3" d="M797.33,49.05c1.14-7.06.38-14.41-3.93-20.57-12.42-17.74-35.55,1.7-34.91,14S774,78.21,781.41,76c3-.88,7.44-5.79,11-12.51l11.47,27,20.6-12.38Z"/></clipPath><clipPath id="clip-path-120"><path class="cls-3" d="M788.4,52c5.52,3.46,11.28,5.1,14.78,3,6.65-4,5.91-15.94,0-25.73-.21-.35-.42-.69-.64-1,10,.72,21.28,7.21,30.59,1.62,12.66-7.61,2-36.79-15.72-26.16C805.41,11,800.57,16.3,797.07,22a19.77,19.77,0,0,0-8.73-4.41,7.94,7.94,0,0,0-2.57-.25,11,11,0,0,0-2.58.32A48.7,48.7,0,0,0,769.55,23c-.95.53-1.87,1.06-2.75,1.61a9.94,9.94,0,1,0-3.69,14.11,48.91,48.91,0,0,0,10.48-4,21.42,21.42,0,0,0,2.27,5,30.61,30.61,0,0,0,3.4,4.58,4.6,4.6,0,0,1,2-3.36,6,6,0,0,1,8.25,2.17C791.53,46.49,791.09,50.12,788.4,52Z"/></clipPath><clipPath id="clip-path-121"><path class="cls-3" d="M782.16,141.71l-22.47,28.21a77.79,77.79,0,0,0-17,12.8c-.9,1.43-1.76,4.05,3.13,2.33s10.12-3.32,11.26-1.79-1.32,4.39.69,6.33q2,1.93,10.06-15.13l24.65-19Z"/></clipPath><clipPath id="clip-path-122"><path class="cls-3" d="M798.15,79.81c-7.59,32.71-23.77,60.57-49.65,91.95l15.8,10.49c32.14-22.92,48.83-36,50.84-65.55.5-7.41-3.67-29.49-5.33-41.24Z"/></clipPath><clipPath id="clip-path-123"><path class="cls-3" d="M861,167.21l-68.74,13.36q9.43-76.2,4.74-103c-.16-.91,1.2-2.83,2-2.77q8.53.73,17-5.08C837.33,92.91,849.28,124.28,861,167.21Z"/></clipPath><clipPath id="clip-path-124"><path class="cls-4" d="M721.88,203.39,785,183.7a2.33,2.33,0,0,1,2.81,1.26,1.8,1.8,0,0,1-.9,2.39.9.9,0,0,1-.21.08l-63.13,19.69a2.33,2.33,0,0,1-2.81-1.25,1.81,1.81,0,0,1,.9-2.4Z"/></clipPath><clipPath id="clip-path-125"><path class="cls-4" d="M704,148.37l22.54-10.32a3,3,0,0,1,4,1.48c0,.05,0,.1.07.16l21,53.65a3,3,0,0,1-1.71,3.89l-.07,0-25.46,9.23a3,3,0,0,1-3.84-1.8l0-.05-18-52.56A3,3,0,0,1,704,148.37Z"/></clipPath><clipPath id="clip-path-126"><path class="cls-4" d="M703.92,148.36l20.3-9.61a3,3,0,0,1,4,1.43,1.54,1.54,0,0,1,.08.19L749.24,194a3,3,0,0,1-1.7,3.88l-.06,0-23.21,8.55a3,3,0,0,1-3.85-1.78l0-.06-18-52.58A3,3,0,0,1,703.92,148.36Z"/></clipPath><clipPath id="clip-path-127"><path class="cls-3" d="M796.35,152.59l-26.22,24.62c-7.57,3-12.28,9.21-17.14,13-1.1,1.28-2.31,3.74,2.79,2.73s8-2.77,9.94-2.94,5.34-2.16,11.89-7.15l27.11-15.25Z"/></clipPath><clipPath id="clip-path-128"><path class="cls-3" d="M805.16,140.26a190.42,190.42,0,0,1-40,35.74l12.09,14.64a295.73,295.73,0,0,0,34.22-13.37c4.8,13,12.38,20,23.38,17.89l36.6-7.12c-.78-17.16-5.88-36.31-13-54.57a2.36,2.36,0,0,0-.3-.75,283.59,283.59,0,0,0-19.6-40.2q8.58-.58,11.13-8.52c4.65-14.47.65-21.16-7.49-22s-14.05,5.33-26.29,7.71l-7.32,1.43C805.46,95.66,804.1,119.84,805.16,140.26Z"/></clipPath></defs><title>4 fazer e refazer</title><path class="cls-20" d="M-545.16-859.77c-2.14-11.06-1.28-22.64,5.23-32.48,18.77-28.36,56.2,1.37,55.77,20.79s-22.74,56.7-34.58,53.52c-4.72-1.27-12-8.83-17.92-19.27l-16.82,42.85-33.11-18.71Z"/><g class="cls-21"><rect class="cls-14" x="-2490.91" y="-453.17" width="3376.05" height="1134.86" transform="translate(-670.81 -685.88) rotate(-72.53)"/></g><path class="cls-22" d="M-554.52-828.63l22,12.22c-18.26,53.32-2.81,99.69,70.61,121l-1,28.16c-69.1,2.48-152.89,17-111.29-107C-567.74-793.24-562.23-813.27-554.52-828.63Z"/><g class="cls-23"><rect class="cls-24" x="-2142.3" y="-452.53" width="3123.31" height="1049.9" transform="translate(-610.25 -511.98) rotate(-85.79)"/></g><path class="cls-25" d="M-562.63-840.53l30.75,24.12c-27.91,59.27-26.83,106-37.66,154.12l-84.46-49c-10.34,12.41-21.72,38.27-30,48.62l-27.92-22.76c24.82-85.85,74.5-134.14,147-156.18l2.26,1.06Z"/><g class="cls-26"><rect class="cls-17" x="-2142.3" y="-452.53" width="3123.31" height="1049.9" transform="translate(-610.25 -511.98) rotate(-85.79)"/></g><path class="cls-22" d="M-593.41-784.51q-33.9,51.15-42.42,83.42L-654-711.49C-635.08-738.67-615.2-763.18-593.41-784.51Z"/><g class="cls-27"><rect class="cls-24" x="-2196.53" y="-453.85" width="3123.31" height="1049.9" transform="translate(-607.77 -567.17) rotate(-81.18)"/></g><path class="cls-20" d="M-545.16-418.77c-2.14-11.06-1.28-22.64,5.23-32.48,18.77-28.36,56.2,1.37,55.77,20.79s-22.74,56.7-34.58,53.52c-4.72-1.27-12-8.83-17.92-19.27l-16.82,42.85-33.11-18.71Z"/><g class="cls-28"><rect class="cls-14" x="-2490.91" y="-12.17" width="3376.05" height="1134.86" transform="translate(-1091.46 -377.29) rotate(-72.53)"/></g><path class="cls-22" d="M-554.52-387.63l22,12.22c-18.26,53.32-2.81,99.69,70.61,121l-1,28.16c-69.1,2.48-152.89,17-111.29-107C-567.74-352.24-562.23-372.27-554.52-387.63Z"/><g class="cls-29"><rect class="cls-24" x="-2142.3" y="-11.53" width="3123.31" height="1049.9" transform="translate(-1050.06 -103.34) rotate(-85.79)"/></g><path class="cls-25" d="M-562.63-399.53l30.75,24.12c-27.91,59.27-26.83,106-37.66,154.12l-84.46-49c-10.34,12.41-21.72,38.27-30,48.62l-27.92-22.76c24.82-85.85,74.5-134.14,147-156.18l2.26,1.06Z"/><g class="cls-30"><rect class="cls-17" x="-2142.3" y="-11.53" width="3123.31" height="1049.9" transform="translate(-1050.06 -103.34) rotate(-85.79)"/></g><path class="cls-22" d="M-593.41-343.51q-33.9,51.15-42.42,83.42L-654-270.49C-635.08-297.67-615.2-322.18-593.41-343.51Z"/><g class="cls-31"><rect class="cls-24" x="-2196.53" y="-12.85" width="3123.31" height="1049.9" transform="translate(-1043.56 -193.8) rotate(-81.18)"/></g><path class="cls-32" d="M417,5.15s46.2-8.08,78.54,31.19,27.72,85.47,21.94,108.57-37,121.27-170.94,173.25-231,18.48-244.85,12.7-73.92-27.72-63.53-84.31,82-50.82,82-50.82S199.28,209,235.09,164,354.05,9.2,417,5.15Z"/><g class="cls-33"><g class="cls-34"><path class="cls-35" d="M396.73,179.42c5-.26,11.22,2.67,11.76,8.12.39,4,.27,7.92.87,11.88a32,32,0,0,0,2.89,9.08c1.33,2.77,4.1,5.13,4.82,8.09a12.63,12.63,0,0,1-.43,6.39c-.77,2.24-.36,2.07,1.18,4a51.45,51.45,0,0,1,7.63,11.88c2.75,6.34,4.56,13.76,3.54,20.71-.13.88-.29,4.05-1.5,4.27-1.36.24-.72-1.57-.65-2.15a38.15,38.15,0,0,0,.31-10.78c-2.15-14.63-12.64-24.26-19.47-36.67-.37-.64-1.16-2.17-1.72-3.17-.87-1.59-1.74-4.61-2.92-5.79-2.22-2.22-.18,2.24.25,3.09.55,1.08,1.15,2.22,1.71,3.17,2.57,4.37,5.43,9.14,8.07,13.65-11.44,2.61-19.51-11.15-22.58-20.2-2.53-7.46-5.56-24.89,6.24-25.52"/><g class="cls-36"><rect class="cls-7" x="387.97" y="136.85" width="93.39" height="147.44"/><g class="cls-37"><rect class="cls-7" x="389.44" y="176.56" width="38.24" height="90.82" transform="translate(-20.96 43.92) rotate(-6)"/></g></g><path class="cls-38" d="M464,165.57c-8.39.67-13.78,6.21-16.29,14-1.35,4.18-1.51,8.46-2.26,12.75a27.2,27.2,0,0,1-8.31,15.94,16.22,16.22,0,0,0-3.33,4.45,19.11,19.11,0,0,0-3.84,5.49,10.15,10.15,0,0,0-.16,8.82,9.07,9.07,0,0,0,2.36,2.9,56.82,56.82,0,0,0-5.59,25.52c.14,5.28.4,10.57.7,15.84.08,1.42.54,3.76,1.24,1.38.63-2.17-.16-5.58-.24-7.85-.36-11.06-.66-21.12,3.89-31.45.48-1.09,1-2.16,1.51-3.23a.47.47,0,0,0,.09-.06l.06,0c0-.06.08-.13.13-.21a2.78,2.78,0,0,0,.41-.57,4,4,0,0,0,.86-1.58h0a148.54,148.54,0,0,1,9.35-13.21s3.57-4.88,3-2.16c-.27,1.3-2.92,3.79-4,5.18a128.89,128.89,0,0,0-7.46,10.75A5.38,5.38,0,0,0,435.1,230c-.18.33-.34.66-.5,1,8.18,2.7,14.55-2.75,18.89-9.08v0a27.48,27.48,0,0,1,4.37-4.88c2.82-2.31,5.84-2.71,9.16-3.85,9.07-3.1,12.93-14.85,14.15-23.57,1.38-9.84-5.37-24.93-17.17-24"/><g class="cls-39"><rect class="cls-9" x="387.97" y="136.85" width="93.39" height="147.44"/><g class="cls-40"><rect class="cls-9" x="424.74" y="163.69" width="58.46" height="111.78"/></g></g><path class="cls-35" d="M429.46,257.54H428a47.44,47.44,0,0,1,.53-5.32c1.14-6.73,4.7-16.61,12.5-17.7a20.73,20.73,0,0,1,2.63,0,4.79,4.79,0,0,1,2-.59c6.65-.49,14.07,4.87,17.27,10.45,2.58,4.49,2.15,10.4.55,15.18-1.07,3.2-3.4,7.76-7.29,7.8-4.86.06-5.1-6-5.19-9.47-.13-4.68-.72-8.75-4.4-11.93-.86-.75-1.79-1.4-2.66-2.13-1.36-1.15-2.86-2.32-3-4.21-.25-2.62,1.23-3.09,3.48-2.6.39.08,4.26,1.82,3.68.44-.17-.42-.81-.75-1.62-1a30.63,30.63,0,0,0-5.29-.33c-7.72,1.69-10.72,12.39-11.52,19.18C429.59,256.07,429.52,256.8,429.46,257.54Z"/><g class="cls-41"><rect class="cls-7" x="387.97" y="136.85" width="93.39" height="147.44"/><g class="cls-37"><rect class="cls-7" x="426.21" y="232.08" width="40.45" height="37.14"/></g></g></g></g><path class="cls-42" d="M47.25,291.59c15.83,23.37,45.26,34.29,54.44,38.12C115.55,335.48,212.56,369,346.54,317A346.51,346.51,0,0,0,399,291.59Z"/><polygon class="cls-43" points="177.61 100.66 191.03 95.46 185.84 82.03 172.41 87.23 177.61 100.66"/><polygon class="cls-43" points="204.46 90.26 217.89 85.06 212.69 71.63 199.26 76.83 204.46 90.26"/><polygon class="cls-43" points="231.31 79.86 244.74 74.67 239.54 61.24 226.12 66.44 231.31 79.86"/><polygon class="cls-43" points="258.17 69.47 271.6 64.27 266.4 50.84 252.97 56.04 258.17 69.47"/><path class="cls-13" d="M291.3,95.24,183.89,136.82,173.49,110a7.21,7.21,0,0,1,4.12-9.32l94-36.38a7.2,7.2,0,0,1,9.32,4.11L291.3,95.24Z"/><path class="cls-44" d="M367.27,30.3c3.32-3.9,5.57-8.68,5.19-14C371.38.85,349.91,4.24,345.73,12S342.05,39.56,347.45,41c2.15.55,6.74-.81,11.41-3.62l-2.93,20.72h17.29Z"/><g class="cls-45"><rect class="cls-11" x="14.94" y="-1059.24" width="458.7" height="1364.58"/><g class="cls-46"><rect class="cls-11" x="339.75" y="2.24" width="36.68" height="59.02"/></g></g><path class="cls-47" d="M361.89,21.92a3.43,3.43,0,0,1,2-.62,3.71,3.71,0,0,1,3.61,3.6,4.3,4.3,0,0,1-2.18,4c.68,1.34,1.37,2.31,2.18,2.49,3.11-.32,7.21-8.06,7.21-14.42,0-7-5.54-13-15.86-13-9.28,0-12.79,3.82-13,7.21,4,1.09,10.92,1.51,20.9,1.44v.72l-8.65.72-1.44,4.32C358.94,18.24,360.58,19.82,361.89,21.92Z"/><g class="cls-48"><rect class="cls-13" x="14.94" y="-1059.24" width="458.7" height="1364.58"/><g class="cls-49"><rect class="cls-13" x="342.63" y="0.8" width="35.24" height="33.79"/></g></g><polygon class="cls-44" points="384.73 118.92 357.65 207.63 344.53 283.07 334.25 283.07 348.11 118.92 384.73 118.92"/><g class="cls-50"><rect class="cls-11" x="14.94" y="-1059.24" width="458.7" height="1364.58"/><g class="cls-46"><rect class="cls-11" x="331.04" y="115.71" width="56.89" height="170.56"/></g></g><path class="cls-44" d="M394.42,118.92c-1.84,48.7.33,73.83.74,78.25s5,30.92,18.37,85.18l-9.94-1.57c-21.09-49.77-28.28-75.63-30.7-82.17s-8.84-33.1-19.27-79.69Z"/><g class="cls-51"><rect class="cls-11" x="14.94" y="-1059.24" width="458.7" height="1364.58"/><g class="cls-46"><rect class="cls-11" x="350.42" y="115.71" width="67.34" height="172.04"/></g></g><path class="cls-20" d="M346.74,280.54a15.7,15.7,0,0,1,1.28,5,35.42,35.42,0,0,1-.65,5.69H306.5q-1.59-5.24,1.84-5.66t5.7-.75l19.08-8.46a.63.63,0,0,1,.84.32v0l1.25,3a13,13,0,0,0,5.17,1.48,12.2,12.2,0,0,0,4.62-1.37h0a1.28,1.28,0,0,1,1.7.62Z"/><g class="cls-52"><rect class="cls-14" x="304.85" y="262.41" width="43.9" height="28.84"/><g class="cls-53"><rect class="cls-14" x="302.79" y="273.11" width="48.44" height="21.33"/></g></g><polygon class="cls-54" points="388.33 118.92 376.82 164.11 341.65 164.11 346.89 118.92 388.33 118.92"/><g class="cls-55"><rect class="cls-16" x="14.94" y="-1059.24" width="458.7" height="1364.58"/><g class="cls-56"><rect class="cls-16" x="338.44" y="115.71" width="53.09" height="51.6"/></g></g><path class="cls-25" d="M394.81,118.92Q400.5,136,397,164.11H361.08l-9.87-45.19Z"/><g class="cls-57"><rect class="cls-17" x="14.94" y="-1059.24" width="458.7" height="1364.58"/><g class="cls-58"><rect class="cls-17" x="348" y="115.71" width="53.51" height="51.6"/></g></g><path class="cls-44" d="M421.38,94.08l-14.22,5Q435,137,436.94,139.21c2.92,3.36,1.63,10.44,1.3,14.13,5.37.47,2.22-7,9-6.34,6.21.65,11.83,3.75,16.7-2.18.6-.73.82-2.78-1.66-3.46-6.2-1.71-15.49-5.23-17.15-6.87Q441.76,131.13,421.38,94.08Zm-105,11.57L288.93,98a61.88,61.88,0,0,0-14.56-8.43c-1.32-.22-3.49,0-.72,3s5.54,6.34,4.79,7.64-3.6.38-4.38,2.44q-.78,2.05,14.1,2.68l21.45,12.1Z"/><g class="cls-59"><rect class="cls-11" x="14.94" y="-1059.24" width="458.7" height="1364.58"/><g class="cls-46"><rect class="cls-11" x="274.08" y="73.28" width="189.23" height="92.74" transform="translate(-13.06 52.48) rotate(-8)"/></g></g><path class="cls-20" d="M359.33,47.1,353,46.91c-11.61,14.91-12.71,47-21.08,52.35-7.92,5.1-20.46,3-35.45-.1l-3,10.36c14.93,12.18,44.22,20.13,54.47,11.8C364.33,108,363.05,68.86,359.33,47.1Z"/><g class="cls-60"><rect class="cls-14" x="14.94" y="-1059.24" width="458.7" height="1364.58"/><g class="cls-61"><rect class="cls-14" x="286.74" y="50.2" width="84.61" height="79.09" transform="translate(-11.75 76.32) rotate(-13)"/></g></g><path class="cls-62" d="M397.11,120.74l-54.61,7.68c-2.49.35-2.53-3.32-2.42-5.18,1.22-21.53,14.3-46.4,10.11-76.21l15.4-4.68C381.56,61.43,389.68,86.55,397.11,120.74Z"/><g class="cls-63"><rect class="cls-19" x="14.94" y="-1059.24" width="458.7" height="1364.58"/><g class="cls-64"><rect class="cls-19" x="331.36" y="39.89" width="63.52" height="88.42" transform="translate(-8.17 51.36) rotate(-8)"/></g></g><path class="cls-20" d="M399.58,98.77q20.93,27.72,34.15,39.35l11.14-3.85q-20.69-66.92-78.26-92.06l-.18,0-6.06.85q-11.07,75.16,1.82,97.83L411.35,134A181.13,181.13,0,0,0,399.58,98.77Z"/><g class="cls-65"><rect class="cls-14" x="14.94" y="-1059.24" width="458.7" height="1364.58"/><g class="cls-61"><rect class="cls-14" x="349.37" y="35.46" width="92.17" height="110.73" transform="translate(-8.79 55.92) rotate(-8)"/></g></g><path class="cls-14" d="M414.36,280.46a1.28,1.28,0,0,0-1.7-.62,12.2,12.2,0,0,1-4.62,1.37,13,13,0,0,1-5.17-1.48l-1.25-3v0a.63.63,0,0,0-.84-.32l-19.08,8.46c-1.51.22-3.42.47-5.7.75s-2.91,2.17-1.84,5.66H401.5q7.06-4.31,13.56-8.75c-.18-.6-.4-1.23-.67-1.95Z"/><polygon class="cls-13" points="71.66 291.68 129.25 291.68 129.25 255.68 71.66 255.68 71.66 291.68"/><polygon class="cls-7" points="71.66 255.68 129.25 255.68 129.25 219.69 71.66 219.69 71.66 255.68"/><polygon class="cls-66" points="78.86 183.69 93.25 183.69 93.25 169.3 78.86 169.3 78.86 183.69"/><polygon class="cls-66" points="107.65 183.69 122.05 183.69 122.05 169.3 107.65 169.3 107.65 183.69"/><polygon class="cls-66" points="136.45 183.69 150.84 183.69 150.84 169.3 136.45 169.3 136.45 183.69"/><polygon class="cls-66" points="165.24 183.69 179.64 183.69 179.64 169.3 165.24 169.3 165.24 183.69"/><path class="cls-17" d="M186.84,219.69H71.66v-28.8a7.19,7.19,0,0,1,7.19-7.2H179.64a7.2,7.2,0,0,1,7.2,7.2v28.8Z"/><path class="cls-17" d="M137.82,291.74a3.61,3.61,0,0,1-2.55,1.05H110.08a3.6,3.6,0,1,1,0-7.2h25.19a3.61,3.61,0,0,1,2.55,6.15"/><path class="cls-17" d="M112.62,298.94a3.6,3.6,0,0,1-6.14-2.55v-7.2a3.6,3.6,0,1,1,7.19,0v7.2a3.61,3.61,0,0,1-1,2.55"/><polygon class="cls-9" points="164.07 267.59 149.67 267.6 149.67 253.2 164.07 253.2 164.07 267.59"/><polygon class="cls-9" points="192.86 267.59 178.47 267.6 178.47 253.2 192.86 253.2 192.86 267.59"/><polygon class="cls-9" points="250.46 267.6 236.06 267.59 236.06 253.2 250.46 253.2 250.46 267.6"/><polygon class="cls-9" points="221.66 267.59 207.26 267.6 207.26 253.2 221.66 253.2 221.66 267.59"/><polygon class="cls-9" points="279.25 267.59 264.86 267.59 264.85 253.2 279.25 253.2 279.25 267.59"/><path class="cls-17" d="M185.66,303.59a18,18,0,1,1-18-18,18,18,0,0,1,18,18"/><path class="cls-17" d="M279.25,303.59a18,18,0,1,1-18-18,18,18,0,0,1,18,18"/><path class="cls-7" d="M286.45,267.59h-144a7.21,7.21,0,0,0-7.2,7.2v28.8h14.4a18,18,0,0,1,36,0h57.59a18,18,0,1,1,36,0h14.4v-28.8a7.2,7.2,0,0,0-7.2-7.2"/><path class="cls-67" d="M263.8,309.74a3.6,3.6,0,0,1-6.14-2.55V300a3.6,3.6,0,1,1,7.19,0v7.2a3.62,3.62,0,0,1-1.05,2.55"/><path class="cls-67" d="M170.21,309.74a3.6,3.6,0,0,1-6.14-2.55V300a3.6,3.6,0,0,1,7.2,0v7.2a3.63,3.63,0,0,1-1.06,2.55"/></svg>