<svg id="Layer_1" data-name="Layer 1" xmlns="http://www.w3.org/2000/svg" xmlns:xlink="http://www.w3.org/1999/xlink" viewBox="0 0 571 351"><defs><style>.cls-1{fill:none;}.cls-16,.cls-2,.cls-41,.cls-6{fill:#ef9900;}.cls-2,.cls-3,.cls-4,.cls-7,.cls-9{clip-rule:evenodd;}.cls-22,.cls-24,.cls-3{fill:#00b576;}.cls-14,.cls-29,.cls-33,.cls-34,.cls-4,.cls-5{fill:#002168;}.cls-18,.cls-7,.cls-8{fill:#ffa900;}.cls-11,.cls-13,.cls-9{fill:#47e8c8;}.cls-10{clip-path:url(#clip-path);}.cls-11,.cls-14,.cls-16,.cls-18,.cls-22,.cls-34{fill-rule:evenodd;}.cls-12{clip-path:url(#clip-path-2);}.cls-15{clip-path:url(#clip-path-3);}.cls-17{clip-path:url(#clip-path-4);}.cls-19{clip-path:url(#clip-path-5);}.cls-20{clip-path:url(#clip-path-6);}.cls-21{fill:#9ee5a8;opacity:0.2;}.cls-23{clip-path:url(#clip-path-7);}.cls-25{clip-path:url(#clip-path-8);}.cls-26,.cls-28{fill:#d5e3dd;}.cls-26{opacity:0.45;}.cls-27{fill:#736ffe;}.cls-29,.cls-33,.cls-34{stroke:#fff;stroke-miterlimit:10;}.cls-29{stroke-width:0.25px;}.cls-30{fill:#344060;}.cls-31{clip-path:url(#clip-path-9);}.cls-32{clip-path:url(#clip-path-10);}.cls-35{clip-path:url(#clip-path-11);}.cls-36{clip-path:url(#clip-path-12);}.cls-37{clip-path:url(#clip-path-13);}.cls-38{clip-path:url(#clip-path-14);}.cls-39{clip-path:url(#clip-path-15);}.cls-40{clip-path:url(#clip-path-16);}.cls-41{opacity:0.1;}.cls-42{clip-path:url(#clip-path-17);}.cls-43{clip-path:url(#clip-path-18);}.cls-44{clip-path:url(#clip-path-19);}.cls-45{clip-path:url(#clip-path-20);}</style><clipPath id="clip-path"><rect class="cls-1" x="3" y="-439" width="570" height="349"/></clipPath><clipPath id="clip-path-2"><path class="cls-9" d="M1011.31,82.33l-8.65-1.48c-18.84,18.27-26.52,62.16-39.07,68-11.87,5.5-28.69.18-48.69-7l-6.12,13.68c18.17,19.66,56.87,36.27,72.56,26.79C1006.42,167.13,1012.21,113,1011.31,82.33Z"/></clipPath><clipPath id="clip-path-3"><path class="cls-4" d="M323.84-383.15c-2.14-11.06-1.28-22.63,5.23-32.48,18.77-28.36,56.2,1.37,55.77,20.8s-22.74,56.69-34.58,53.51c-4.72-1.27-12-8.83-17.92-19.27l-16.82,42.85-33.11-18.71Z"/></clipPath><clipPath id="clip-path-4"><path class="cls-2" d="M314.48-352l22,12.22c-18.26,53.32-2.81,99.69,70.61,121l-1,28.16c-69.1,2.48-152.89,17-111.29-107C301.26-316.61,306.77-336.65,314.48-352Z"/></clipPath><clipPath id="clip-path-5"><path class="cls-7" d="M306.37-363.91l30.75,24.12c-27.91,59.27-26.83,106-37.66,154.12l-84.46-49c-10.34,12.41-21.72,38.27-30,48.62l-27.92-22.76C181.9-294.67,231.58-343,304.1-365l2.26,1.06Z"/></clipPath><clipPath id="clip-path-6"><path class="cls-2" d="M275.59-307.89q-33.9,51.15-42.42,83.42L215-234.87C233.92-262,253.8-286.56,275.59-307.89Z"/></clipPath><clipPath id="clip-path-7"><path class="cls-3" d="M86.51,34.4c4.15-2.66,9.59-3.24,14.47-3.12,19.06.49,36.8,8,52,19a122.64,122.64,0,0,1,22.23,21.37,60.57,60.57,0,0,1,9.38,14.77,49.89,49.89,0,0,1,3.26,11.28A116.85,116.85,0,0,1,189.51,112c.08,1.88.92,11.89-2.22,12a5.19,5.19,0,0,1,0,.69c6.52,10.8,10.4,23.36,14,35.26a235.61,235.61,0,0,1,7.56,31.48,340.36,340.36,0,0,1,4,42.51c.1,3.05.14,6.11.16,9.16l.06,7.82c0,2.92.45,6.3-.09,9.19-.47,2.52-2.65,2.08-2.68-.44,0-3,.06-6.08,0-9.13q-.12-6-.25-12.11a283,283,0,0,0-13.93-82.49A192.23,192.23,0,0,0,183,124.8a213.76,213.76,0,0,0-16.47-25.43c-5.76-7.79-11.77-15.4-18.9-22.06A150,150,0,0,0,128.8,62.75c-8.36-5.62-16.72-11.11-25.83-15.49-4.73-2.28-9.56-4.34-14.34-6.53-.86-.39-1.78-.78-2.6-1.23-2.75-1.51-1.78-3.65.48-5.1"/></clipPath><clipPath id="clip-path-8"><path class="cls-3" d="M160.68,134.22c-7.73-.2-14.63.63-21.84,3.52a96.47,96.47,0,0,0-17.45,9.54c-7.79,5.18-14,11.28-18.41,19.46-2.65,4.89-4.68,11.85-3.13,17.29,1.83,6.42,7.17,11.86,14.41,10.93,4.48-.58,8.65-3.43,12.11-6.12a45.07,45.07,0,0,0,10.28-11.5c4.56-7.13,7.34-15.25,11.25-22.72,1.85-3.55,3.65-7.12,5.85-10.48a16.89,16.89,0,0,1,3.86-4.52c.86-.65,4.47-1.72,3.14-3.27,20,.78,37.41,16.64,40.77,35.8.31,1.78.55,3.58.8,5.37.15,1.14,0,5.3,1,6,2.19,1.64,1.37-3.21,1.3-3.91-.2-1.8-.42-3.61-.65-5.41a44.85,44.85,0,0,0-12.43-26.12c-8.07-8.16-19.12-13.61-30.82-13.91"/></clipPath><clipPath id="clip-path-9"><path class="cls-4" d="M323.84,57.85c-2.14-11.06-1.28-22.63,5.23-32.48,18.77-28.36,56.2,1.37,55.77,20.8s-22.74,56.69-34.58,53.51c-4.72-1.27-12-8.83-17.92-19.27l-16.82,42.85-33.11-18.71Z"/></clipPath><clipPath id="clip-path-10"><rect class="cls-5" x="-1621.91" y="464.45" width="3376.05" height="1134.86" transform="translate(-938.01 785.12) rotate(-72.53)"/></clipPath><clipPath id="clip-path-11"><path class="cls-2" d="M314.48,89l22,12.22c-18.26,53.32-2.81,99.69,70.61,121l-1,28.16c-69.1,2.48-152.89,17-111.29-107C301.26,124.39,306.77,104.35,314.48,89Z"/></clipPath><clipPath id="clip-path-12"><rect class="cls-6" x="-1273.3" y="465.09" width="3123.31" height="1049.9" transform="translate(-720.18 1204.96) rotate(-85.79)"/></clipPath><clipPath id="clip-path-13"><path class="cls-7" d="M306.37,77.09l30.75,24.12c-27.91,59.27-26.83,106-37.66,154.12l-84.46-49c-10.34,12.41-21.72,38.27-30,48.62l-27.92-22.76C181.9,146.33,231.58,98,304.1,76l2.26,1.06Z"/></clipPath><clipPath id="clip-path-14"><rect class="cls-8" x="-1273.3" y="465.09" width="3123.31" height="1049.9" transform="translate(-720.18 1204.96) rotate(-85.79)"/></clipPath><clipPath id="clip-path-15"><path class="cls-2" d="M275.59,133.11q-33.9,51.15-42.42,83.42L215,206.13C233.92,179,253.8,154.44,275.59,133.11Z"/></clipPath><clipPath id="clip-path-16"><rect class="cls-6" x="-1327.53" y="463.77" width="3123.31" height="1049.9" transform="translate(-778.81 1068.44) rotate(-81.18)"/></clipPath><clipPath id="clip-path-17"><path class="cls-4" d="M1310.84-859.77c-2.14-11.06-1.28-22.64,5.23-32.48,18.77-28.36,56.2,1.37,55.77,20.79s-22.74,56.7-34.58,53.52c-4.72-1.27-12-8.83-17.92-19.27l-16.82,42.85-33.11-18.71Z"/></clipPath><clipPath id="clip-path-18"><path class="cls-2" d="M1262.59-784.51q-33.9,51.15-42.42,83.42L1202-711.49C1220.92-738.67,1240.8-763.18,1262.59-784.51Z"/></clipPath><clipPath id="clip-path-19"><path class="cls-4" d="M1310.84-418.77c-2.14-11.06-1.28-22.64,5.23-32.48,18.77-28.36,56.2,1.37,55.77,20.79s-22.74,56.7-34.58,53.52c-4.72-1.27-12-8.83-17.92-19.27l-16.82,42.85-33.11-18.71Z"/></clipPath><clipPath id="clip-path-20"><path class="cls-2" d="M1262.59-343.51q-33.9,51.15-42.42,83.42L1202-270.49C1220.92-297.67,1240.8-322.18,1262.59-343.51Z"/></clipPath></defs><title>1 Projeto</title><path class="cls-11" d="M1011.31,82.33l-8.65-1.48c-18.84,18.27-26.52,62.16-39.07,68-11.87,5.5-28.69.18-48.69-7l-6.12,13.68c18.17,19.66,56.87,36.27,72.56,26.79C1006.42,167.13,1012.21,113,1011.31,82.33Z"/><g class="cls-12"><rect class="cls-13" x="494" y="-29" width="665" height="470"/></g><path class="cls-14" d="M323.84-383.15c-2.14-11.06-1.28-22.63,5.23-32.48,18.77-28.36,56.2,1.37,55.77,20.8s-22.74,56.69-34.58,53.51c-4.72-1.27-12-8.83-17.92-19.27l-16.82,42.85-33.11-18.71Z"/><g class="cls-15"><rect class="cls-5" x="-1621.91" y="23.45" width="3376.05" height="1134.86" transform="translate(-517.36 476.53) rotate(-72.53)"/></g><path class="cls-16" d="M314.48-352l22,12.22c-18.26,53.32-2.81,99.69,70.61,121l-1,28.16c-69.1,2.48-152.89,17-111.29-107C301.26-316.61,306.77-336.65,314.48-352Z"/><g class="cls-17"><rect class="cls-6" x="-1273.3" y="24.09" width="3123.31" height="1049.9" transform="translate(-280.37 796.32) rotate(-85.79)"/></g><path class="cls-18" d="M306.37-363.91l30.75,24.12c-27.91,59.27-26.83,106-37.66,154.12l-84.46-49c-10.34,12.41-21.72,38.27-30,48.62l-27.92-22.76C181.9-294.67,231.58-343,304.1-365l2.26,1.06Z"/><g class="cls-19"><rect class="cls-8" x="-1273.3" y="24.09" width="3123.31" height="1049.9" transform="translate(-280.37 796.32) rotate(-85.79)"/></g><path class="cls-16" d="M275.59-307.89q-33.9,51.15-42.42,83.42L215-234.87C233.92-262,253.8-286.56,275.59-307.89Z"/><g class="cls-20"><rect class="cls-6" x="-1327.53" y="22.77" width="3123.31" height="1049.9" transform="translate(-343.03 695.07) rotate(-81.18)"/></g><path class="cls-21" d="M205,91.54s32.23-38.72,88.54-40c43.11-1,60.94,35.16,60.94,35.16s50,84.2,96.44,100.49,107,37.08,107,80.41-41.63,58.58-41.63,58.58-39.07,22-94.37,9.81-74.85,4.34-89,6.37c-13.69,2-47.37,16.38-91.18-17.27s-58.19-101.87-58.19-101.87S166.75,136.24,205,91.54Z"/><path class="cls-22" d="M86.51,34.4c4.15-2.66,9.59-3.24,14.47-3.12,19.06.49,36.8,8,52,19a122.64,122.64,0,0,1,22.23,21.37,60.57,60.57,0,0,1,9.38,14.77,49.89,49.89,0,0,1,3.26,11.28A116.85,116.85,0,0,1,189.51,112c.08,1.88.92,11.89-2.22,12a5.19,5.19,0,0,1,0,.69c6.52,10.8,10.4,23.36,14,35.26a235.61,235.61,0,0,1,7.56,31.48,340.36,340.36,0,0,1,4,42.51c.1,3.05.14,6.11.16,9.16l.06,7.82c0,2.92.45,6.3-.09,9.19-.47,2.52-2.65,2.08-2.68-.44,0-3,.06-6.08,0-9.13q-.12-6-.25-12.11a283,283,0,0,0-13.93-82.49A192.23,192.23,0,0,0,183,124.8a213.76,213.76,0,0,0-16.47-25.43c-5.76-7.79-11.77-15.4-18.9-22.06A150,150,0,0,0,128.8,62.75c-8.36-5.62-16.72-11.11-25.83-15.49-4.73-2.28-9.56-4.34-14.34-6.53-.86-.39-1.78-.78-2.6-1.23-2.75-1.51-1.78-3.65.48-5.1"/><g class="cls-23"><rect class="cls-24" x="29.85" y="73.92" width="237.9" height="144.81" transform="translate(-1.31 291.32) rotate(-88.53)"/></g><path class="cls-22" d="M160.68,134.22c-7.73-.2-14.63.63-21.84,3.52a96.47,96.47,0,0,0-17.45,9.54c-7.79,5.18-14,11.28-18.41,19.46-2.65,4.89-4.68,11.85-3.13,17.29,1.83,6.42,7.17,11.86,14.41,10.93,4.48-.58,8.65-3.43,12.11-6.12a45.07,45.07,0,0,0,10.28-11.5c4.56-7.13,7.34-15.25,11.25-22.72,1.85-3.55,3.65-7.12,5.85-10.48a16.89,16.89,0,0,1,3.86-4.52c.86-.65,4.47-1.72,3.14-3.27,20,.78,37.41,16.64,40.77,35.8.31,1.78.55,3.58.8,5.37.15,1.14,0,5.3,1,6,2.19,1.64,1.37-3.21,1.3-3.91-.2-1.8-.42-3.61-.65-5.41a44.85,44.85,0,0,0-12.43-26.12c-8.07-8.16-19.12-13.61-30.82-13.91"/><g class="cls-25"><rect class="cls-24" x="116.26" y="107.12" width="72.41" height="115.85" transform="translate(-16.45 313.21) rotate(-88.53)"/></g><path class="cls-13" d="M165.65,245.75,6.52,267.06a2.5,2.5,0,0,0-.84,4.73l118.93,59.28a2.48,2.48,0,0,0,3.32-1.13l40.19-80.62a2.47,2.47,0,0,0-2.47-3.57Zm-48.43,57.73-44.35-22.1,60.67-10.63Z"/><path class="cls-24" d="M34.28,278.08a2.38,2.38,0,0,1,1.07,3.18l-2.13,4.26L29,283.4l2.12-4.26A2.38,2.38,0,0,1,34.28,278.08Z"/><path class="cls-24" d="M47,279.12a2.38,2.38,0,0,1,1.07,3.19l-4.24,8.51-4.25-2.12,4.24-8.51A2.38,2.38,0,0,1,47,279.12Z"/><path class="cls-24" d="M55.55,288.68a2.39,2.39,0,0,1,1.07,3.19l-2.12,4.25L50.24,294l2.12-4.25A2.38,2.38,0,0,1,55.55,288.68Z"/><path class="cls-24" d="M68.31,289.73a2.37,2.37,0,0,1,1.06,3.18l-4.24,8.51-4.25-2.12,4.24-8.51A2.38,2.38,0,0,1,68.31,289.73Z"/><path class="cls-24" d="M76.82,299.28a2.39,2.39,0,0,1,1.07,3.19l-2.12,4.25-4.26-2.12,2.12-4.25A2.39,2.39,0,0,1,76.82,299.28Z"/><path class="cls-24" d="M89.58,300.33a2.38,2.38,0,0,1,1.06,3.19L86.4,312l-4.25-2.13,4.24-8.5A2.38,2.38,0,0,1,89.58,300.33Z"/><path class="cls-24" d="M98.09,309.89a2.38,2.38,0,0,1,1.07,3.18L97,317.33l-4.25-2.12L94.91,311A2.37,2.37,0,0,1,98.09,309.89Z"/><path class="cls-24" d="M110.85,310.93a2.39,2.39,0,0,1,1.07,3.19l-4.24,8.51-4.26-2.12,4.24-8.51A2.39,2.39,0,0,1,110.85,310.93Z"/><path class="cls-24" d="M119.36,320.49a2.38,2.38,0,0,1,1.07,3.19l-2.12,4.25-4.25-2.12,2.12-4.26A2.38,2.38,0,0,1,119.36,320.49Z"/><path class="cls-26" d="M222.88,305.62a116.85,116.85,0,0,0,18.87,18.45c43.81,33.65,77.49,19.25,91.18,17.28,14.17-2,33.72-18.55,89-6.37s94.37-9.82,94.37-9.82a73.6,73.6,0,0,0,27.21-19.54Z"/><path class="cls-27" d="M420.21,262.22l-7.35-34L518.39,205.4l7.35,34Z"/><path class="cls-13" d="M378.82,235.53l34-7.35,7.35,34-34,7.35a17.41,17.41,0,0,1-7.35-34Z"/><path class="cls-28" d="M413.4,263.69l-7.35-34,13.62-2.94,7.35,34Z"/><path class="cls-8" d="M546.5,226.51l-20.76,12.93a11.54,11.54,0,0,1-7.75-.93,8.05,8.05,0,0,1-4.3-5.38,9.69,9.69,0,0,1,8.38-10.71,11.57,11.57,0,0,1-7.76-.93,8,8,0,0,1-4.29-5.38,9.68,9.68,0,0,1,8.37-10.71l24.24,3.21Z"/><path class="cls-29" d="M439.63,236.65l-3.4.74a3.48,3.48,0,1,0,1.47,6.8l3.4-.73a3.48,3.48,0,0,0-1.47-6.81Z"/><path class="cls-29" d="M501.64,226.83a3.48,3.48,0,0,0-4.14-2.67l-44.25,9.55a3.48,3.48,0,1,0,1.47,6.81L499,231A3.48,3.48,0,0,0,501.64,226.83Z"/><path class="cls-30" d="M542.63,208.61l17.5,2.32a3.44,3.44,0,0,1,1.35,6.26l-15,9.32A20.82,20.82,0,0,1,542.63,208.61Z"/><path class="cls-29" d="M330.32,341.81q-23.29-70-50.41-136.07l-78.36-5.62C216.7,243,225.2,282.73,237.06,320.24q2.3,2,4.69,3.83C283,355.75,315.25,344.84,330.32,341.81Z"/><path class="cls-14" d="M323.84,57.85c-2.14-11.06-1.28-22.63,5.23-32.48,18.77-28.36,56.2,1.37,55.77,20.8s-22.74,56.69-34.58,53.51c-4.72-1.27-12-8.83-17.92-19.27l-16.82,42.85-33.11-18.71Z"/><g class="cls-31"><rect class="cls-5" x="-1621.91" y="464.45" width="3376.05" height="1134.86" transform="translate(-938.01 785.12) rotate(-72.53)"/><g class="cls-32"><rect class="cls-5" x="274.07" y="29.35" width="131.56" height="82.42" transform="translate(111.21 331.71) rotate(-60.53)"/></g></g><path class="cls-11" d="M317.54,63.06c6.29-20.84,1.57-40.14,8-47.38q6.48-7.25,15.45-4.83,13.32-14.1,34,.82c20.69,14.93,29,31.71,11.76,48.6-5.34-3-10.71-8.61-21.51-10.34q-5.15-.82-11.61,6.35l-4-2.28q-.37-13.06-7.54-13.71t-9.69,11.07l-10.6,14.13Z"/><path class="cls-33" d="M201.85,198.48q-6.21,26.19-11.31,47.42c8.1,23,24,57.24,51.21,78.17,3.39,2.6,6.71,4.91,10,7Q270.2,284.93,293,205.18Z"/><path class="cls-34" d="M363.13,248.77,412.71,239q29.32,8.46,29.15,3.92c-.18-4.55-6.31-4.59-6.92-7.64s6.95-7.73,14.31-11.87,3.26-5.91.56-6.33q-15,.72-33.81,7.06l-58.37-2.76Z"/><path class="cls-34" d="M159.05,239.59c-4.18,2.25-24.35,3.78-37.43,3.55-5.25-.09-6,4.05-5.25,5.82,6.08,14.4,18.84,11.57,31.33,13.88,13.68,2.54,3.21,15.42,14,17.57,1.49-7.38,7.06-18.56,10.7-26.86,11-25,31.51-64,62.82-82.91l-19.65-14.48C167.91,183.27,164.76,236.51,159.05,239.59Z"/><path class="cls-16" d="M314.48,89l22,12.22c-18.26,53.32-2.81,99.69,70.61,121l-1,28.16c-69.1,2.48-152.89,17-111.29-107C301.26,124.39,306.77,104.35,314.48,89Z"/><g class="cls-35"><rect class="cls-6" x="-1273.3" y="465.09" width="3123.31" height="1049.9" transform="translate(-720.18 1204.96) rotate(-85.79)"/><g class="cls-36"><rect class="cls-6" x="269.39" y="103.06" width="159.18" height="178.04" transform="translate(7.39 397.02) rotate(-59.79)"/></g></g><path class="cls-18" d="M306.37,77.09l30.75,24.12c-27.91,59.27-26.83,106-37.66,154.12l-84.46-49c-10.34,12.41-21.72,38.27-30,48.62l-27.92-22.76C181.9,146.33,231.58,98,304.1,76l2.26,1.06Z"/><g class="cls-37"><rect class="cls-8" x="-1273.3" y="465.09" width="3123.31" height="1049.9" transform="translate(-720.18 1204.96) rotate(-85.79)"/><g class="cls-38"><rect class="cls-8" x="125.75" y="66.66" width="230.22" height="197.37" transform="translate(-11.33 312.84) rotate(-64.79)"/></g></g><path class="cls-16" d="M275.59,133.11q-33.9,51.15-42.42,83.42L215,206.13C233.92,179,253.8,154.44,275.59,133.11Z"/><g class="cls-39"><rect class="cls-6" x="-1327.53" y="463.77" width="3123.31" height="1049.9" transform="translate(-778.81 1068.44) rotate(-81.18)"/><g class="cls-40"><rect class="cls-41" x="193.27" y="153" width="108.13" height="35.57" transform="translate(-23.83 300.44) rotate(-60.18)"/></g></g><path class="cls-14" d="M1310.84-859.77c-2.14-11.06-1.28-22.64,5.23-32.48,18.77-28.36,56.2,1.37,55.77,20.79s-22.74,56.7-34.58,53.52c-4.72-1.27-12-8.83-17.92-19.27l-16.82,42.85-33.11-18.71Z"/><g class="cls-42"><rect class="cls-5" x="-634.91" y="-453.17" width="3376.05" height="1134.86" transform="translate(627.92 1084.48) rotate(-72.53)"/></g><path class="cls-16" d="M1262.59-784.51q-33.9,51.15-42.42,83.42L1202-711.49C1220.92-738.67,1240.8-763.18,1262.59-784.51Z"/><g class="cls-43"><rect class="cls-6" x="-340.53" y="-453.85" width="3123.31" height="1049.9" transform="translate(963.58 1266.87) rotate(-81.18)"/></g><path class="cls-14" d="M1310.84-418.77c-2.14-11.06-1.28-22.64,5.23-32.48,18.77-28.36,56.2,1.37,55.77,20.79s-22.74,56.7-34.58,53.52c-4.72-1.27-12-8.83-17.92-19.27l-16.82,42.85-33.11-18.71Z"/><g class="cls-44"><rect class="cls-5" x="-634.91" y="-12.17" width="3376.05" height="1134.86" transform="translate(207.27 1393.07) rotate(-72.53)"/></g><path class="cls-16" d="M1262.59-343.51q-33.9,51.15-42.42,83.42L1202-270.49C1220.92-297.67,1240.8-322.18,1262.59-343.51Z"/><g class="cls-45"><rect class="cls-6" x="-340.53" y="-12.85" width="3123.31" height="1049.9" transform="translate(527.8 1640.24) rotate(-81.18)"/></g></svg>