<svg id="Layer_1" data-name="Layer 1" xmlns="http://www.w3.org/2000/svg" xmlns:xlink="http://www.w3.org/1999/xlink" viewBox="0 0 170 180"><defs><style>.cls-1,.cls-2,.cls-46{fill:none;}.cls-2{clip-rule:evenodd;}.cls-3{clip-path:url(#clip-path);}.cls-4{clip-path:url(#clip-path-2);}.cls-5{clip-path:url(#clip-path-3);}.cls-6{clip-path:url(#clip-path-4);}.cls-7{clip-path:url(#clip-path-5);}.cls-8{clip-path:url(#clip-path-6);}.cls-9{clip-path:url(#clip-path-7);}.cls-10{clip-path:url(#clip-path-8);}.cls-11{clip-path:url(#clip-path-9);}.cls-12{clip-path:url(#clip-path-10);}.cls-13{clip-path:url(#clip-path-11);}.cls-14{clip-path:url(#clip-path-12);}.cls-15{clip-path:url(#clip-path-13);}.cls-16{clip-path:url(#clip-path-14);}.cls-17{clip-path:url(#clip-path-15);}.cls-18{clip-path:url(#clip-path-16);}.cls-19{clip-path:url(#clip-path-17);}.cls-20{clip-path:url(#clip-path-18);}.cls-21{clip-path:url(#clip-path-19);}.cls-22{clip-path:url(#clip-path-20);}.cls-23{clip-path:url(#clip-path-21);}.cls-24{clip-path:url(#clip-path-22);}.cls-25{clip-path:url(#clip-path-23);}.cls-26{clip-path:url(#clip-path-24);}.cls-27{clip-path:url(#clip-path-25);}.cls-28{clip-path:url(#clip-path-26);}.cls-29{clip-path:url(#clip-path-27);}.cls-30{clip-path:url(#clip-path-28);}.cls-31{clip-path:url(#clip-path-29);}.cls-32{clip-path:url(#clip-path-30);}.cls-33{clip-path:url(#clip-path-31);}.cls-34{clip-path:url(#clip-path-32);}.cls-35{clip-path:url(#clip-path-33);}.cls-36{clip-path:url(#clip-path-34);}.cls-37{fill:#fff;}.cls-38{fill:#edf4f2;}.cls-39{fill:#d5e3dd;}.cls-40{fill:#e2ece8;}.cls-41{fill:#faa601;}.cls-42{fill:#e49c0c;}.cls-43{fill:#726ffd;}.cls-44{fill:#47e8c8;}.cls-45{fill:#39c3bd;}.cls-46{stroke:#e2ece8;stroke-miterlimit:10;stroke-width:2px;}</style><clipPath id="clip-path"><circle class="cls-1" cx="117.5" cy="-538.5" r="82.5"/></clipPath><clipPath id="clip-path-2"><path class="cls-2" d="M110.31-613.47a4.67,4.67,0,0,0,3.43,1.47,5,5,0,0,0,4.87-5,5,5,0,0,0,4.87,5,5,5,0,0,0,4.87-5,5,5,0,0,0,4.87,5,5,5,0,0,0,4.87-5v-5H160v20H116.64A14.51,14.51,0,0,0,104-609.5V-612a5,5,0,0,0,4.87-5A4.93,4.93,0,0,0,110.31-613.47ZM82-622H96v20H82Z"/></clipPath><clipPath id="clip-path-3"><polygon class="cls-2" points="179 -612 160 -602 160 -622 179 -612"/></clipPath><clipPath id="clip-path-4"><rect class="cls-1" x="74" y="-622" width="8" height="20"/></clipPath><clipPath id="clip-path-5"><path class="cls-2" d="M57-612a10.19,10.19,0,0,1,2.84-7.08A9.6,9.6,0,0,1,66.71-622H74v20H66.71A9.86,9.86,0,0,1,57-612Z"/></clipPath><clipPath id="clip-path-6"><path class="cls-2" d="M108-635v17.11a4.72,4.72,0,0,1-4.5,4.89v-7.33a4.74,4.74,0,0,0-4.5-4.89v-4.89a4.72,4.72,0,0,1,4.5-4.89Zm10,2v15.56a4.49,4.49,0,0,1-4.5,4.44,4.51,4.51,0,0,1-4.5-4.44V-633Zm10,2v14a4.29,4.29,0,0,1-4.5,4,4.31,4.31,0,0,1-4.5-4v-14Zm1,2h4.5c2.48,0,4.49,1.59,4.5,3.56v8.88c0,2-2,3.55-4.5,3.56s-4.48-1.6-4.5-3.56Zm-13.54,26.2H138V-592q-2.17,6.57-3,7v14H101.18v-12.88C98-588,99.33-586,96-590a11.72,11.72,0,0,1-3-7.87v-22.2A4.91,4.91,0,0,1,97.89-625a5,5,0,0,1,4.89,4.93v9.87A14.61,14.61,0,0,1,115.46-602.8Z"/></clipPath><clipPath id="clip-path-7"><path class="cls-2" d="M156-586v17.11a4.72,4.72,0,0,1-4.5,4.89v-7.33a4.74,4.74,0,0,0-4.5-4.89v-4.89a4.72,4.72,0,0,1,4.5-4.89Zm10,2v15.56a4.49,4.49,0,0,1-4.5,4.44,4.51,4.51,0,0,1-4.5-4.44V-584Zm10,2v14a4.29,4.29,0,0,1-4.5,4,4.31,4.31,0,0,1-4.5-4v-14Zm1,2h4.5c2.48,0,4.49,1.59,4.5,3.56v8.88c0,2-2,3.55-4.5,3.56s-4.48-1.6-4.5-3.56Zm-13.54,26.2H186V-543q-2.17,6.57-3,7v14H149.18v-12.88C146-539,147.33-537,144-541a11.72,11.72,0,0,1-3-7.87v-22.2a4.91,4.91,0,0,1,4.89-4.93,5,5,0,0,1,4.89,4.93v9.87A14.61,14.61,0,0,1,163.46-553.8Z"/></clipPath><clipPath id="clip-path-8"><polygon class="cls-1" points="148 -576 186 -572 186 -549 148 -549 148 -576"/></clipPath><clipPath id="clip-path-9"><path class="cls-2" d="M63-576v17.11A4.72,4.72,0,0,1,58.5-554v-7.33a4.74,4.74,0,0,0-4.5-4.89v-4.89A4.72,4.72,0,0,1,58.5-576Zm10,2v15.56A4.49,4.49,0,0,1,68.5-554a4.51,4.51,0,0,1-4.5-4.44V-574Zm10,2v14a4.29,4.29,0,0,1-4.5,4,4.31,4.31,0,0,1-4.5-4v-14Zm1,2h4.5c2.48,0,4.49,1.59,4.5,3.56v8.88c0,2-2,3.55-4.5,3.56S84-555.6,84-557.56ZM70.46-543.8H93V-533q-2.18,6.57-3,7v14H56.18v-12.88C53-529,54.33-527,51-531a11.72,11.72,0,0,1-3-7.87v-22.2A4.91,4.91,0,0,1,52.89-566a5,5,0,0,1,4.89,4.93v9.87A14.61,14.61,0,0,1,70.46-543.8Z"/></clipPath><clipPath id="clip-path-10"><polygon class="cls-1" points="55 -566 93 -562 93 -539 55 -539 55 -566"/></clipPath><clipPath id="clip-path-11"><ellipse class="cls-1" cx="118.5" cy="-908" rx="82.5" ry="83"/></clipPath><clipPath id="clip-path-12"><path class="cls-2" d="M104.47-869.9a12.29,12.29,0,0,1,10.39,5.75.35.35,0,0,0,.25.15h0a.36.36,0,0,0,.25-.11,17.94,17.94,0,0,1,13.53-6.19,17.73,17.73,0,0,1,5.08.74L128.05-885H107l-6,15.61A12,12,0,0,1,104.47-869.9Z"/></clipPath><clipPath id="clip-path-13"><path class="cls-2" d="M111-884.94h-2.77l-6,15.41a13,13,0,0,1,2.95-.48Z"/></clipPath><clipPath id="clip-path-14"><path class="cls-2" d="M99.22-854.27a.37.37,0,0,0,.14.22.36.36,0,0,0,.2.06h0a22.91,22.91,0,0,1,3.58-.28,22.6,22.6,0,0,1,15.41,6,.35.35,0,0,0,.23.09.33.33,0,0,0,.23-.09,22.63,22.63,0,0,1,15.42-6,23,23,0,0,1,3.58.28h.05a.36.36,0,0,0,.2-.06.32.32,0,0,0,.13-.22,27.43,27.43,0,0,1,4.55-11.5,18.56,18.56,0,0,0-12.68-5,18.54,18.54,0,0,0-13.89,6.23,12.79,12.79,0,0,0-10.75-5.83,12.8,12.8,0,0,0-10.46,5.41A27.37,27.37,0,0,1,99.22-854.27Z"/></clipPath><clipPath id="clip-path-15"><path class="cls-2" d="M99-854.19A28,28,0,0,0,71.33-878,27.94,27.94,0,0,0,48-865.46,81.91,81.91,0,0,0,80.07-835,22.78,22.78,0,0,1,99-854.19Z"/></clipPath><clipPath id="clip-path-16"><path class="cls-2" d="M165.67-878A28,28,0,0,0,138-854.19,22.78,22.78,0,0,1,156.93-835,81.91,81.91,0,0,0,189-865.46,27.94,27.94,0,0,0,165.67-878Z"/></clipPath><clipPath id="clip-path-17"><path class="cls-2" d="M134.49-854.12A23.09,23.09,0,0,0,118.77-848a23.07,23.07,0,0,0-15.71-6.15,23,23,0,0,0-22.83,19.64A82.59,82.59,0,0,0,118.77-825a82.56,82.56,0,0,0,38.54-9.48A23,23,0,0,0,134.49-854.12Z"/></clipPath><clipPath id="clip-path-18"><path class="cls-2" d="M110.46-884.94h5L114-874.13A2.45,2.45,0,0,1,111.6-872l-.31,0a2.44,2.44,0,0,1-2.12-2.72Zm14.73,0,.55,4.35a2.44,2.44,0,0,1-2.12,2.72,2.45,2.45,0,0,1-2.74-2.11l-.63-5Z"/></clipPath><clipPath id="clip-path-19"><path class="cls-2" d="M92-931.87q0-4.08.29-8.13C84.42-935.48,79-925.4,79-913.73a34.22,34.22,0,0,0,4.34,17,1.46,1.46,0,0,0,1.25.73,1.5,1.5,0,0,0,.55-.11A31.16,31.16,0,0,1,97-898.5,110.93,110.93,0,0,1,92-931.87Z"/></clipPath><clipPath id="clip-path-20"><path class="cls-2" d="M82.91-913.73c0-9.64,3.89-18.19,9.92-23.42,0-1,.1-1.9.17-2.85-8.29,4.52-14,14.6-14,26.27a32.88,32.88,0,0,0,4.57,17,1.55,1.55,0,0,0,1.32.73,1.6,1.6,0,0,0,.57-.11c.65-.26,1.31-.49,2-.7A32.87,32.87,0,0,1,82.91-913.73Z"/></clipPath><clipPath id="clip-path-21"><path class="cls-2" d="M144.34-939.88q.28,4,.29,8.12a109,109,0,0,1-5.08,33.3,32.71,32.71,0,0,1,12.08,2.39,1.36,1.36,0,0,0,.56.11,1.46,1.46,0,0,0,1.27-.73,33.62,33.62,0,0,0,4.42-17C157.88-925.3,152.36-935.37,144.34-939.88Z"/></clipPath><clipPath id="clip-path-22"><path class="cls-2" d="M106.24-894.63v7.69a1.67,1.67,0,0,0,1.66,1.67h22.2a1.67,1.67,0,0,0,1.66-1.67v-7.69Z"/></clipPath><clipPath id="clip-path-23"><path class="cls-2" d="M110.41-886.6V-894H105v7.4a1.6,1.6,0,0,0,1.59,1.6H112A1.6,1.6,0,0,1,110.41-886.6Z"/></clipPath><clipPath id="clip-path-24"><path class="cls-2" d="M139.31-968H98.69A108.94,108.94,0,0,0,93-932.67,108.51,108.51,0,0,0,99.17-896a1.47,1.47,0,0,0,1.38,1h36.9a1.47,1.47,0,0,0,1.38-1,108.51,108.51,0,0,0,6.17-36.7A108.94,108.94,0,0,0,139.31-968Z"/></clipPath><clipPath id="clip-path-25"><path class="cls-2" d="M102.64-896a111,111,0,0,1-6-36.7A111.4,111.4,0,0,1,102.18-968H97.55A111.68,111.68,0,0,0,92-932.67,111,111,0,0,0,98-896a1.45,1.45,0,0,0,1.36,1H104A1.45,1.45,0,0,1,102.64-896Z"/></clipPath><clipPath id="clip-path-26"><path class="cls-2" d="M110-968v5.38a1.64,1.64,0,0,0,1.65,1.62h15.7a1.64,1.64,0,0,0,1.65-1.62V-968Z"/></clipPath><clipPath id="clip-path-27"><path class="cls-2" d="M112.47-962.62V-968H109v5.38a1.58,1.58,0,0,0,1.53,1.62H114A1.58,1.58,0,0,1,112.47-962.62Z"/></clipPath><clipPath id="clip-path-28"><path class="cls-2" d="M117.5-998a1.47,1.47,0,0,0-.93.33c-7.49,6.15-13.79,15.46-18.23,26.94-.47,1.22-.91,2.47-1.34,3.73h41c-.43-1.26-.87-2.51-1.34-3.73-4.44-11.48-10.74-20.79-18.23-26.94A1.47,1.47,0,0,0,117.5-998Z"/></clipPath><clipPath id="clip-path-29"><path class="cls-2" d="M120-996.43c-.48-.42-1-.84-1.45-1.24a1.48,1.48,0,0,0-.94-.33,1.47,1.47,0,0,0-.93.33c-7.53,6.15-13.87,15.46-18.33,26.94-.48,1.22-.92,2.47-1.35,3.73h4.77c.43-1.26.88-2.51,1.35-3.73C107.3-981.46,113.11-990.31,120-996.43Z"/></clipPath><clipPath id="clip-path-30"><circle class="cls-1" cx="119" cy="-937" r="17"/></clipPath><clipPath id="clip-path-31"><circle class="cls-1" cx="119" cy="-937" r="11"/></clipPath><clipPath id="clip-path-32"><path class="cls-2" d="M111-937a11,11,0,0,0,9,10.81,11.13,11.13,0,0,1-2,.19,11,11,0,0,1-11-11,11,11,0,0,1,11-11,11.13,11.13,0,0,1,2,.19A11,11,0,0,0,111-937Z"/></clipPath><clipPath id="clip-path-33"><path class="cls-2" d="M171-930a.83.83,0,0,1-.76-.51c-1.62-3.91-2.82-5.11-6.73-6.73A.83.83,0,0,1,163-938a.83.83,0,0,1,.51-.76c3.91-1.62,5.11-2.82,6.73-6.73A.83.83,0,0,1,171-946a.83.83,0,0,1,.76.51c1.62,3.91,2.82,5.11,6.73,6.73a.83.83,0,0,1,.51.76.83.83,0,0,1-.51.76c-3.91,1.62-5.11,2.82-6.73,6.73A.83.83,0,0,1,171-930Z"/></clipPath><clipPath id="clip-path-34"><path class="cls-2" d="M171.6-933.09c-1.57-3.79-2.72-4.94-6.51-6.51a.78.78,0,0,1-.42-.4c-.36.17-.75.34-1.18.52a.78.78,0,0,0-.49.73.79.79,0,0,0,.49.74c3.79,1.57,4.95,2.73,6.52,6.52a.79.79,0,0,0,.74.49.78.78,0,0,0,.73-.49c.18-.43.35-.82.52-1.18A.78.78,0,0,1,171.6-933.09Z"/></clipPath></defs><title>projeto 1</title><circle class="cls-37" cx="85.17" cy="95.22" r="82.78"/><path class="cls-38" d="M71.93,133a12.46,12.46,0,0,1,10.53,5.75.37.37,0,0,0,.26.15h0a.36.36,0,0,0,.25-.11,18.28,18.28,0,0,1,18.87-5.46l-6-15.45H74.51l-6.1,15.62A12.43,12.43,0,0,1,71.93,133Z"/><path class="cls-39" d="M77.29,117.92H74.51l-6.1,15.62a12.63,12.63,0,0,1,3-.49Z"/><path class="cls-40" d="M132.66,124.77a28.34,28.34,0,0,0-23.43,12.36,18.6,18.6,0,0,0-26.48,1.47,12.85,12.85,0,0,0-21.13-.71A28.4,28.4,0,0,0,14,137.5a83.09,83.09,0,0,0,32.55,30.95A23.13,23.13,0,0,1,65.45,149a.3.3,0,0,0,.12.21.36.36,0,0,0,.2.06h0a23.29,23.29,0,0,1,3.6-.29,22.7,22.7,0,0,1,15.52,6.11.35.35,0,0,0,.23.09.32.32,0,0,0,.23-.09A22.71,22.71,0,0,1,100.92,149a23.09,23.09,0,0,1,3.6.29h.06a.36.36,0,0,0,.2-.06.4.4,0,0,0,.12-.21,23.13,23.13,0,0,1,18.9,19.43,83.16,83.16,0,0,0,32.55-30.95A28.36,28.36,0,0,0,132.66,124.77Z"/><path class="cls-39" d="M100.92,148.66a23,23,0,0,0-15.75,6.21,23.1,23.1,0,0,0-38.62,13.58,82.88,82.88,0,0,0,77.25,0A23.13,23.13,0,0,0,100.92,148.66Z"/><path class="cls-39" d="M92.79,117.92H87.68l.65,5.15a2.53,2.53,0,0,0,5-.63Z"/><path class="cls-39" d="M77.56,117.92l-1.34,10.6a2.53,2.53,0,0,0,2.2,2.83l.32,0a2.53,2.53,0,0,0,2.51-2.22l1.42-11.23Z"/><path class="cls-41" d="M59.19,71.13c0-2.75.11-5.5.3-8.23-8.13,4.58-13.73,14.78-13.73,26.58a34.06,34.06,0,0,0,4.48,17.2,1.51,1.51,0,0,0,1.29.74,1.44,1.44,0,0,0,.57-.11,33.1,33.1,0,0,1,12.25-2.42A110.06,110.06,0,0,1,59.19,71.13Z"/><path class="cls-42" d="M49.59,89.48c0-9.75,3.82-18.4,9.73-23.7,0-1,.1-1.92.17-2.88-8.13,4.58-13.73,14.78-13.73,26.58a34.06,34.06,0,0,0,4.48,17.2,1.51,1.51,0,0,0,1.29.74,1.41,1.41,0,0,0,.57-.11c.63-.26,1.28-.49,1.93-.71A34.09,34.09,0,0,1,49.59,89.48Z"/><path class="cls-41" d="M110.86,62.9c.19,2.73.29,5.48.29,8.23A110.36,110.36,0,0,1,106,104.89a33.18,33.18,0,0,1,12.25,2.42,1.36,1.36,0,0,0,.56.11,1.49,1.49,0,0,0,1.29-.74,34,34,0,0,0,4.49-17.2C124.59,77.68,119,67.48,110.86,62.9Z"/><path class="cls-41" d="M72.24,108.77v7.79a1.69,1.69,0,0,0,1.68,1.69h22.5a1.69,1.69,0,0,0,1.69-1.69v-7.79Z"/><path class="cls-42" d="M78,116.56v-7.79H72.24v7.79a1.69,1.69,0,0,0,1.68,1.69h5.75A1.69,1.69,0,0,1,78,116.56Z"/><path class="cls-38" d="M105.74,35.52H64.61a109.5,109.5,0,0,0-5.76,35.61,109,109,0,0,0,6.25,37,1.48,1.48,0,0,0,1.4,1h37.35a1.5,1.5,0,0,0,1.4-1,109.21,109.21,0,0,0,6.24-37A109.76,109.76,0,0,0,105.74,35.52Z"/><path class="cls-39" d="M69.89,108.13a109,109,0,0,1-6.25-37A109.5,109.5,0,0,1,69.4,35.52H64.61a109.5,109.5,0,0,0-5.75,35.61,109,109,0,0,0,6.24,37,1.48,1.48,0,0,0,1.4,1h4.79A1.48,1.48,0,0,1,69.89,108.13Z"/><path class="cls-41" d="M75.44,35.52v5.6a1.69,1.69,0,0,0,1.68,1.69h16.1a1.69,1.69,0,0,0,1.69-1.69v-5.6Z"/><path class="cls-42" d="M79.27,41.12v-5.6H75.44v5.6a1.69,1.69,0,0,0,1.68,1.69H81A1.69,1.69,0,0,1,79.27,41.12Z"/><path class="cls-41" d="M85.17,5a1.52,1.52,0,0,0-.94.33c-7.54,6.12-13.9,15.39-18.38,26.82-.48,1.21-.93,2.45-1.36,3.71h41.36c-.43-1.26-.87-2.5-1.35-3.71C100,20.72,93.66,11.45,86.11,5.33A1.48,1.48,0,0,0,85.17,5Z"/><path class="cls-42" d="M87.57,6.56c-.48-.42-1-.83-1.46-1.23A1.48,1.48,0,0,0,85.17,5a1.52,1.52,0,0,0-.94.33c-7.54,6.12-13.9,15.39-18.38,26.82-.48,1.21-.93,2.45-1.36,3.71h4.79c.43-1.26.88-2.5,1.36-3.71C74.83,21.46,80.66,12.66,87.57,6.56Z"/><circle class="cls-43" cx="85.17" cy="66.13" r="17.24"/><circle class="cls-44" cx="85.17" cy="66.13" r="11.06"/><path class="cls-45" d="M78.17,66.14A11.07,11.07,0,0,0,87.2,77a11.27,11.27,0,0,1-2,.19,11.06,11.06,0,0,1,0-22.12,11.27,11.27,0,0,1,2,.18A11.07,11.07,0,0,0,78.17,66.14Z"/><path class="cls-46" d="M35.89,65.39A1,1,0,0,1,35,64.8c-1.88-4.55-3.27-5.94-7.83-7.83a1,1,0,0,1,0-1.77c4.56-1.89,5.95-3.28,7.83-7.83a1,1,0,0,1,.89-.59,1,1,0,0,1,.88.59c1.89,4.55,3.28,5.94,7.83,7.83a1,1,0,0,1,0,1.77c-4.55,1.89-5.94,3.28-7.83,7.83a1,1,0,0,1-.88.59Z"/><path class="cls-40" d="M137.71,73.05a.83.83,0,0,1-.78-.52c-1.66-4-2.88-5.22-6.89-6.88a.84.84,0,0,1,0-1.56c4-1.66,5.23-2.88,6.89-6.88a.84.84,0,0,1,1.55,0c1.66,4,2.88,5.22,6.89,6.88a.85.85,0,0,1,0,1.56c-4,1.66-5.23,2.88-6.89,6.88a.82.82,0,0,1-.77.52Z"/><path class="cls-46" d="M128.92,37.46a1,1,0,0,1-.91-.6c-1.93-4.67-3.35-6.09-8-8A1,1,0,0,1,120,27c4.67-1.93,6.09-3.36,8-8a1,1,0,0,1,.91-.61,1,1,0,0,1,.91.61c1.93,4.66,3.35,6.09,8,8a1,1,0,0,1,.6.91,1,1,0,0,1-.6.9c-4.67,1.94-6.09,3.36-8,8a1,1,0,0,1-.91.6Z"/></svg>