<svg id="Layer_1" data-name="Layer 1" xmlns="http://www.w3.org/2000/svg" viewBox="0 0 170 180"><defs><style>.cls-1{fill:#fff;}.cls-2{fill:#d5e3dd;}.cls-3{fill:#7c78ff;}.cls-4{fill:#edf4f2;}.cls-5{fill:#00b576;}.cls-6{fill:#47e8c8;}.cls-7{fill:#ea9b00;}.cls-8{fill:#ffa900;}</style></defs><title>projeto 10</title><path class="cls-1" d="M57.29,170.4a1.62,1.62,0,0,1-2.2,1.51,82.53,82.53,0,0,1,0-153.82,1.62,1.62,0,0,1,2.2,1.51Z"/><path class="cls-2" d="M57,172.61a82.75,82.75,0,0,1-12.57-5.78V23.17A82.75,82.75,0,0,1,57,17.39V172.61Z"/><path class="cls-3" d="M23.45,97.07l-5.32-6.44-6-7.23L22,63.72a1.61,1.61,0,0,1,2.88,0L34.73,83.4Z"/><path class="cls-4" d="M29.89,73.73l4.84,9.67L23.45,97.07l-5.32-6.44-6-7.23L17,73.73Z"/><path class="cls-4" d="M54.71,18.24a82.5,82.5,0,1,1,0,153.52Z"/><path class="cls-5" d="M135.27,48a16.12,16.12,0,1,1,16.12,16.11A16.12,16.12,0,0,1,135.27,48Zm16.12,25.78A16.12,16.12,0,1,0,167.5,89.84,16.12,16.12,0,0,0,151.39,73.73Zm0,41.89a16.12,16.12,0,1,0,16.11,16.12A16.12,16.12,0,0,0,151.39,115.62Z"/><path class="cls-6" d="M142.2,45.24a3.22,3.22,0,0,1,5.49-3.38l3.37,5.49,7-16.76A3.23,3.23,0,1,1,164,33.08l-9.45,22.56a3.24,3.24,0,0,1-2.72,2h-.25a3.21,3.21,0,0,1-2.74-1.54Zm20.1,25.52a3.22,3.22,0,0,0-4.22,1.73l-7,16.76-3.37-5.49a3.22,3.22,0,1,0-5.49,3.37L148.87,98a3.2,3.2,0,0,0,2.74,1.53h.25a3.2,3.2,0,0,0,2.72-2L164,75A3.23,3.23,0,0,0,162.3,70.76Zm0,41.89a3.24,3.24,0,0,0-4.22,1.73l-7,16.76-3.37-5.49A3.22,3.22,0,1,0,142.2,129l6.67,10.84a3.21,3.21,0,0,0,2.74,1.54h.25a3.24,3.24,0,0,0,2.72-2L164,116.87A3.24,3.24,0,0,0,162.3,112.65Z"/><path class="cls-3" d="M63.73,56V52.78c0-.89.43-1.61,1-1.61h36.74c.53,0,1,.72,1,1.61V56c0,.89-.43,1.61-1,1.61H64.7C64.16,57.62,63.73,56.9,63.73,56Zm62.84-17.73H65.34a1.61,1.61,0,0,0-1.61,1.61v3.23a1.61,1.61,0,0,0,1.61,1.61h61.23a1.61,1.61,0,0,0,1.61-1.61V39.89A1.61,1.61,0,0,0,126.57,38.28ZM64.7,99.51h36.74c.53,0,1-.72,1-1.61V94.68c0-.89-.43-1.61-1-1.61H64.7c-.54,0-1,.72-1,1.61V97.9C63.73,98.79,64.16,99.51,64.7,99.51Zm61.87-19.33H65.34a1.61,1.61,0,0,0-1.61,1.61V85a1.61,1.61,0,0,0,1.61,1.61h61.23A1.61,1.61,0,0,0,128.18,85V81.79A1.61,1.61,0,0,0,126.57,80.18ZM101.44,135H64.7c-.54,0-1,.72-1,1.61v3.22c0,.89.43,1.62,1,1.62h36.74c.53,0,1-.73,1-1.62v-3.22C102.4,135.68,102,135,101.44,135Zm25.13-12.89H65.34a1.61,1.61,0,0,0-1.61,1.61v3.22a1.62,1.62,0,0,0,1.61,1.62h61.23a1.62,1.62,0,0,0,1.61-1.62v-3.22A1.61,1.61,0,0,0,126.57,122.07Z"/><path class="cls-7" d="M12.17,83.4H34.73v77a82.78,82.78,0,0,1-22.56-26.63Z"/><path class="cls-8" d="M21.84,83.4H34.73v77a82.72,82.72,0,0,1-12.89-12.34Z"/></svg>