<svg id="Layer_1" data-name="Layer 1" xmlns="http://www.w3.org/2000/svg" xmlns:xlink="http://www.w3.org/1999/xlink" viewBox="0 0 170 180"><defs><style>.cls-1,.cls-2{fill:none;}.cls-2{clip-rule:evenodd;}.cls-3{clip-path:url(#clip-path);}.cls-4{clip-path:url(#clip-path-2);}.cls-5{clip-path:url(#clip-path-3);}.cls-6{clip-path:url(#clip-path-4);}.cls-7{clip-path:url(#clip-path-5);}.cls-8{clip-path:url(#clip-path-6);}.cls-9{clip-path:url(#clip-path-7);}.cls-10{clip-path:url(#clip-path-8);}.cls-11{clip-path:url(#clip-path-9);}.cls-12{clip-path:url(#clip-path-10);}.cls-13{clip-path:url(#clip-path-11);}.cls-14{clip-path:url(#clip-path-12);}.cls-15{clip-path:url(#clip-path-13);}.cls-16{clip-path:url(#clip-path-14);}.cls-17{clip-path:url(#clip-path-15);}.cls-18{clip-path:url(#clip-path-16);}.cls-19{clip-path:url(#clip-path-17);}.cls-20{clip-path:url(#clip-path-18);}.cls-21{clip-path:url(#clip-path-19);}.cls-22{clip-path:url(#clip-path-20);}.cls-23{clip-path:url(#clip-path-21);}.cls-24{clip-path:url(#clip-path-22);}.cls-25{clip-path:url(#clip-path-23);}.cls-26{clip-path:url(#clip-path-24);}.cls-27{clip-path:url(#clip-path-25);}.cls-28{clip-path:url(#clip-path-26);}.cls-29{clip-path:url(#clip-path-27);}.cls-30{clip-path:url(#clip-path-28);}.cls-31{clip-path:url(#clip-path-29);}.cls-32{clip-path:url(#clip-path-30);}.cls-33{clip-path:url(#clip-path-31);}.cls-34{clip-path:url(#clip-path-32);}.cls-35{clip-path:url(#clip-path-33);}.cls-36{clip-path:url(#clip-path-34);}.cls-37{clip-path:url(#clip-path-35);}.cls-38{clip-path:url(#clip-path-36);}.cls-39{clip-path:url(#clip-path-37);}.cls-40{clip-path:url(#clip-path-38);}.cls-41{clip-path:url(#clip-path-39);}.cls-42{clip-path:url(#clip-path-40);}.cls-43{clip-path:url(#clip-path-41);}.cls-44{clip-path:url(#clip-path-42);}.cls-45{clip-path:url(#clip-path-43);}.cls-46{clip-path:url(#clip-path-44);}.cls-47{clip-path:url(#clip-path-45);}.cls-48{clip-path:url(#clip-path-46);}.cls-49{clip-path:url(#clip-path-47);}.cls-50{fill:#edf4f2;}.cls-51{fill:#ffa900;}.cls-52{fill:#fff;}.cls-53{fill:#726ffd;}.cls-54{fill:#44e0c1;}.cls-55{fill:#00a66c;}.cls-56{fill:#e6e7e8;}</style><clipPath id="clip-path"><circle class="cls-1" cx="-119.5" cy="-538.5" r="82.5"/></clipPath><clipPath id="clip-path-2"><path class="cls-2" d="M-126.69-613.47a4.67,4.67,0,0,0,3.43,1.47,5,5,0,0,0,4.87-5,5,5,0,0,0,4.87,5,5,5,0,0,0,4.87-5,5,5,0,0,0,4.87,5,5,5,0,0,0,4.87-5v-5H-77v20h-43.36A14.51,14.51,0,0,0-133-609.5V-612a5,5,0,0,0,4.87-5A4.93,4.93,0,0,0-126.69-613.47ZM-155-622h14v20h-14Z"/></clipPath><clipPath id="clip-path-3"><polygon class="cls-2" points="-58 -612 -77 -602 -77 -622 -58 -612"/></clipPath><clipPath id="clip-path-4"><rect class="cls-1" x="-163" y="-622" width="8" height="20"/></clipPath><clipPath id="clip-path-5"><path class="cls-2" d="M-180-612a10.19,10.19,0,0,1,2.84-7.08,9.6,9.6,0,0,1,6.87-2.92H-163v20h-7.29A9.86,9.86,0,0,1-180-612Z"/></clipPath><clipPath id="clip-path-6"><path class="cls-2" d="M-129-635v17.11a4.72,4.72,0,0,1-4.5,4.89v-7.33a4.74,4.74,0,0,0-4.5-4.89v-4.89a4.72,4.72,0,0,1,4.5-4.89Zm10,2v15.56a4.49,4.49,0,0,1-4.5,4.44,4.51,4.51,0,0,1-4.5-4.44V-633Zm10,2v14a4.29,4.29,0,0,1-4.5,4,4.31,4.31,0,0,1-4.5-4v-14Zm1,2h4.5c2.48,0,4.49,1.59,4.5,3.56v8.88c0,2-2,3.55-4.5,3.56s-4.48-1.6-4.5-3.56Zm-13.54,26.2H-99V-592q-2.18,6.57-3,7v14h-33.82v-12.88C-139-588-137.67-586-141-590a11.72,11.72,0,0,1-3-7.87v-22.2a4.91,4.91,0,0,1,4.89-4.93,5,5,0,0,1,4.89,4.93v9.87A14.61,14.61,0,0,1-121.54-602.8Z"/></clipPath><clipPath id="clip-path-7"><path class="cls-2" d="M-81-586v17.11A4.72,4.72,0,0,1-85.5-564v-7.33a4.74,4.74,0,0,0-4.5-4.89v-4.89A4.72,4.72,0,0,1-85.5-586Zm10,2v15.56A4.49,4.49,0,0,1-75.5-564a4.51,4.51,0,0,1-4.5-4.44V-584Zm10,2v14a4.29,4.29,0,0,1-4.5,4,4.31,4.31,0,0,1-4.5-4v-14Zm1,2h4.5c2.48,0,4.49,1.59,4.5,3.56v8.88c0,2-2,3.55-4.5,3.56s-4.48-1.6-4.5-3.56Zm-13.54,26.2H-51V-543q-2.18,6.57-3,7v14H-87.82v-12.88C-91-539-89.67-537-93-541a11.72,11.72,0,0,1-3-7.87v-22.2A4.91,4.91,0,0,1-91.11-576a5,5,0,0,1,4.89,4.93v9.87A14.61,14.61,0,0,1-73.54-553.8Z"/></clipPath><clipPath id="clip-path-8"><polygon class="cls-1" points="-89 -576 -51 -572 -51 -549 -89 -549 -89 -576"/></clipPath><clipPath id="clip-path-9"><path class="cls-2" d="M-174-576v17.11a4.72,4.72,0,0,1-4.5,4.89v-7.33a4.74,4.74,0,0,0-4.5-4.89v-4.89a4.72,4.72,0,0,1,4.5-4.89Zm10,2v15.56a4.49,4.49,0,0,1-4.5,4.44,4.51,4.51,0,0,1-4.5-4.44V-574Zm10,2v14a4.29,4.29,0,0,1-4.5,4,4.31,4.31,0,0,1-4.5-4v-14Zm1,2h4.5c2.48,0,4.49,1.59,4.5,3.56v8.88c0,2-2,3.55-4.5,3.56s-4.48-1.6-4.5-3.56Zm-13.54,26.2H-144V-533q-2.17,6.57-3,7v14h-33.82v-12.88C-184-529-182.67-527-186-531a11.72,11.72,0,0,1-3-7.87v-22.2a4.91,4.91,0,0,1,4.89-4.93,5,5,0,0,1,4.89,4.93v9.87A14.61,14.61,0,0,1-166.54-543.8Z"/></clipPath><clipPath id="clip-path-10"><polygon class="cls-1" points="-182 -566 -144 -562 -144 -539 -182 -539 -182 -566"/></clipPath><clipPath id="clip-path-11"><ellipse class="cls-1" cx="-118.5" cy="-908" rx="82.5" ry="83"/></clipPath><clipPath id="clip-path-12"><path class="cls-2" d="M-132.53-869.9a12.29,12.29,0,0,1,10.39,5.75.35.35,0,0,0,.25.15h0a.36.36,0,0,0,.25-.11,17.94,17.94,0,0,1,13.53-6.19,17.73,17.73,0,0,1,5.08.74l-6-15.44h-21l-6,15.61A12,12,0,0,1-132.53-869.9Z"/></clipPath><clipPath id="clip-path-13"><path class="cls-2" d="M-126-884.94h-2.77l-6,15.41a13,13,0,0,1,2.95-.48Z"/></clipPath><clipPath id="clip-path-14"><path class="cls-2" d="M-137.78-854.27a.37.37,0,0,0,.14.22.36.36,0,0,0,.2.06h.05a22.91,22.91,0,0,1,3.58-.28,22.6,22.6,0,0,1,15.41,6,.35.35,0,0,0,.23.09.33.33,0,0,0,.23-.09,22.63,22.63,0,0,1,15.42-6,23,23,0,0,1,3.58.28h0a.36.36,0,0,0,.2-.06.32.32,0,0,0,.13-.22A27.43,27.43,0,0,1-94-865.77a18.56,18.56,0,0,0-12.68-5,18.54,18.54,0,0,0-13.89,6.23,12.79,12.79,0,0,0-10.75-5.83,12.8,12.8,0,0,0-10.46,5.41A27.37,27.37,0,0,1-137.78-854.27Z"/></clipPath><clipPath id="clip-path-15"><path class="cls-2" d="M-138-854.19A28,28,0,0,0-165.67-878,27.94,27.94,0,0,0-189-865.46,81.91,81.91,0,0,0-156.93-835,22.78,22.78,0,0,1-138-854.19Z"/></clipPath><clipPath id="clip-path-16"><path class="cls-2" d="M-71.33-878A28,28,0,0,0-99-854.19,22.78,22.78,0,0,1-80.07-835,81.91,81.91,0,0,0-48-865.46,27.94,27.94,0,0,0-71.33-878Z"/></clipPath><clipPath id="clip-path-17"><path class="cls-2" d="M-102.51-854.12A23.09,23.09,0,0,0-118.23-848a23.07,23.07,0,0,0-15.71-6.15,23,23,0,0,0-22.83,19.64A82.59,82.59,0,0,0-118.23-825a82.56,82.56,0,0,0,38.54-9.48A23,23,0,0,0-102.51-854.12Z"/></clipPath><clipPath id="clip-path-18"><path class="cls-2" d="M-126.54-884.94h5L-123-874.13A2.45,2.45,0,0,1-125.4-872l-.31,0a2.44,2.44,0,0,1-2.12-2.72Zm14.73,0,.55,4.35a2.44,2.44,0,0,1-2.12,2.72,2.45,2.45,0,0,1-2.74-2.11l-.63-5Z"/></clipPath><clipPath id="clip-path-19"><path class="cls-2" d="M-145-931.87q0-4.08.29-8.13c-7.88,4.52-13.3,14.6-13.3,26.27a34.22,34.22,0,0,0,4.34,17,1.46,1.46,0,0,0,1.25.73,1.5,1.5,0,0,0,.55-.11A31.16,31.16,0,0,1-140-898.5,110.93,110.93,0,0,1-145-931.87Z"/></clipPath><clipPath id="clip-path-20"><path class="cls-2" d="M-154.09-913.73c0-9.64,3.89-18.19,9.92-23.42,0-1,.1-1.9.17-2.85-8.29,4.52-14,14.6-14,26.27a32.88,32.88,0,0,0,4.57,17,1.55,1.55,0,0,0,1.32.73,1.6,1.6,0,0,0,.57-.11c.65-.26,1.31-.49,2-.7A32.87,32.87,0,0,1-154.09-913.73Z"/></clipPath><clipPath id="clip-path-21"><path class="cls-2" d="M-92.66-939.88q.28,4,.29,8.12a109,109,0,0,1-5.08,33.3,32.71,32.71,0,0,1,12.08,2.39,1.36,1.36,0,0,0,.56.11,1.46,1.46,0,0,0,1.27-.73,33.62,33.62,0,0,0,4.42-17C-79.12-925.3-84.64-935.37-92.66-939.88Z"/></clipPath><clipPath id="clip-path-22"><path class="cls-2" d="M-130.76-894.63v7.69a1.67,1.67,0,0,0,1.66,1.67h22.2a1.67,1.67,0,0,0,1.66-1.67v-7.69Z"/></clipPath><clipPath id="clip-path-23"><path class="cls-2" d="M-126.59-886.6V-894H-132v7.4a1.6,1.6,0,0,0,1.59,1.6H-125A1.6,1.6,0,0,1-126.59-886.6Z"/></clipPath><clipPath id="clip-path-24"><path class="cls-2" d="M-97.69-968h-40.62A108.94,108.94,0,0,0-144-932.67a108.51,108.51,0,0,0,6.17,36.7,1.47,1.47,0,0,0,1.38,1h36.9a1.47,1.47,0,0,0,1.38-1A108.51,108.51,0,0,0-92-932.67,108.94,108.94,0,0,0-97.69-968Z"/></clipPath><clipPath id="clip-path-25"><path class="cls-2" d="M-134.36-896a111,111,0,0,1-6-36.7A111.4,111.4,0,0,1-134.82-968h-4.63A111.68,111.68,0,0,0-145-932.67a111,111,0,0,0,6,36.7,1.45,1.45,0,0,0,1.36,1H-133A1.45,1.45,0,0,1-134.36-896Z"/></clipPath><clipPath id="clip-path-26"><path class="cls-2" d="M-127-968v5.38a1.64,1.64,0,0,0,1.65,1.62h15.7a1.64,1.64,0,0,0,1.65-1.62V-968Z"/></clipPath><clipPath id="clip-path-27"><path class="cls-2" d="M-124.53-962.62V-968H-128v5.38a1.58,1.58,0,0,0,1.53,1.62H-123A1.58,1.58,0,0,1-124.53-962.62Z"/></clipPath><clipPath id="clip-path-28"><path class="cls-2" d="M-119.5-998a1.47,1.47,0,0,0-.93.33c-7.49,6.15-13.79,15.46-18.23,26.94-.47,1.22-.91,2.47-1.34,3.73h41c-.43-1.26-.87-2.51-1.34-3.73-4.44-11.48-10.74-20.79-18.23-26.94A1.47,1.47,0,0,0-119.5-998Z"/></clipPath><clipPath id="clip-path-29"><path class="cls-2" d="M-117-996.43c-.48-.42-1-.84-1.45-1.24a1.48,1.48,0,0,0-.94-.33,1.47,1.47,0,0,0-.93.33c-7.53,6.15-13.87,15.46-18.33,26.94-.48,1.22-.92,2.47-1.35,3.73h4.77c.43-1.26.88-2.51,1.35-3.73C-129.7-981.46-123.89-990.31-117-996.43Z"/></clipPath><clipPath id="clip-path-30"><circle class="cls-1" cx="-118" cy="-937" r="17"/></clipPath><clipPath id="clip-path-31"><circle class="cls-1" cx="-118" cy="-937" r="11"/></clipPath><clipPath id="clip-path-32"><path class="cls-2" d="M-126-937a11,11,0,0,0,9,10.81,11.13,11.13,0,0,1-2,.19,11,11,0,0,1-11-11,11,11,0,0,1,11-11,11.13,11.13,0,0,1,2,.19A11,11,0,0,0-126-937Z"/></clipPath><clipPath id="clip-path-33"><path class="cls-2" d="M-66-930a.83.83,0,0,1-.76-.51c-1.62-3.91-2.82-5.11-6.73-6.73A.83.83,0,0,1-74-938a.83.83,0,0,1,.51-.76c3.91-1.62,5.11-2.82,6.73-6.73A.83.83,0,0,1-66-946a.83.83,0,0,1,.76.51c1.62,3.91,2.82,5.11,6.73,6.73A.83.83,0,0,1-58-938a.83.83,0,0,1-.51.76c-3.91,1.62-5.11,2.82-6.73,6.73A.83.83,0,0,1-66-930Z"/></clipPath><clipPath id="clip-path-34"><path class="cls-2" d="M-65.4-933.09c-1.57-3.79-2.72-4.94-6.51-6.51a.78.78,0,0,1-.42-.4c-.36.17-.75.34-1.18.52a.78.78,0,0,0-.49.73.79.79,0,0,0,.49.74c3.79,1.57,5,2.73,6.52,6.52a.79.79,0,0,0,.74.49.78.78,0,0,0,.73-.49c.18-.43.35-.82.52-1.18A.78.78,0,0,1-65.4-933.09Z"/></clipPath><clipPath id="clip-path-35"><circle class="cls-1" cx="149.5" cy="-901.5" r="82.5"/></clipPath><clipPath id="clip-path-36"><circle class="cls-1" cx="149.5" cy="-901.5" r="70.5"/></clipPath><clipPath id="clip-path-37"><circle class="cls-1" cx="149.5" cy="-901.5" r="53.5" transform="translate(925.17 -418.39) rotate(-67.5)"/></clipPath><clipPath id="clip-path-38"><circle class="cls-1" cx="149.5" cy="-901.5" r="36.5" transform="translate(925.17 -418.39) rotate(-67.5)"/></clipPath><clipPath id="clip-path-39"><path class="cls-2" d="M150-882a20,20,0,0,1-20-20,20,20,0,0,1,20-20,20,20,0,0,1,20,20A20,20,0,0,1,150-882Z"/></clipPath><clipPath id="clip-path-40"><path class="cls-2" d="M217-962.61l-64.28,64.29a4.54,4.54,0,0,1-6.4,0,4.54,4.54,0,0,1,0-6.4L210.61-969Z"/></clipPath><clipPath id="clip-path-41"><path class="cls-2" d="M217-962.79l-64.58,64.46a4.54,4.54,0,0,1-6.42,0L213.79-966Z"/></clipPath><clipPath id="clip-path-42"><polygon class="cls-2" points="180 -959 204.32 -984 210 -969 185.68 -944 180 -959"/></clipPath><clipPath id="clip-path-43"><polygon class="cls-2" points="185.27 -965.04 189.03 -968.8 194.87 -953.79 191.11 -950.03 185.27 -965.04"/></clipPath><clipPath id="clip-path-44"><polygon class="cls-2" points="194.45 -974.22 198.2 -977.97 204.04 -962.96 200.29 -959.21 194.45 -974.22"/></clipPath><clipPath id="clip-path-45"><polygon class="cls-2" points="216.98 -962.96 191.95 -937.94 206.97 -932.1 232 -957.12 216.98 -962.96"/></clipPath><clipPath id="clip-path-46"><polygon class="cls-2" points="210.41 -955.88 206.6 -952.15 221.87 -946.34 225.69 -950.07 210.41 -955.88"/></clipPath><clipPath id="clip-path-47"><polygon class="cls-2" points="201.08 -946.76 197.27 -943.03 212.54 -937.22 216.35 -940.95 201.08 -946.76"/></clipPath></defs><title>projeto 2</title><circle class="cls-50" cx="84.5" cy="94.5" r="82.5"/><rect class="cls-51" x="67.92" y="64.4" width="34.16" height="106.6"/><rect class="cls-52" x="67.92" y="64.4" width="34.16" height="19.6"/><rect class="cls-52" x="67.92" y="99.4" width="34.16" height="20.12"/><rect class="cls-52" x="67.92" y="134.4" width="34.16" height="19.6"/><path class="cls-52" d="M67.92,176.51a82.15,82.15,0,0,0,34.16-.64V169.4H67.92Z"/><path class="cls-52" d="M116.92,170.38a82.82,82.82,0,0,0,34.16-27.18V112.77H116.92Z"/><path class="cls-52" d="M23.92,150.48a82.5,82.5,0,0,0,34.16,22.17V122.4H23.92Z"/><polygon class="cls-53" points="114.5 58.5 114.5 83.5 154.5 80.59 154.5 62.08 114.5 58.5"/><path class="cls-53" d="M132,80.24h22.5v7.64A45.06,45.06,0,0,1,153,95a18.44,18.44,0,0,1-2,4v13H117V99s-5-6-6-8a12.26,12.26,0,0,1-1.4-5.88v-22a4.88,4.88,0,1,1,9.76,0v9.76A14.59,14.59,0,0,1,132,80.24Z"/><path class="cls-53" d="M144.76,55.52h4.88a4.9,4.9,0,0,1,4.88,4.88v5.2a4.88,4.88,0,0,1-9.76,0Z"/><path class="cls-53" d="M144.43,53.52V65.6a4.88,4.88,0,1,1-9.76,0V53.52Z"/><path class="cls-53" d="M134.33,51.52V65.6a4.88,4.88,0,0,1-9.76,0V51.52Z"/><path class="cls-53" d="M124.24,50.52V65.6a4.9,4.9,0,0,1-4.88,4.88V63.16a4.91,4.91,0,0,0-4.88-4.88V55.4a4.9,4.9,0,0,1,4.88-4.88Z"/><path class="cls-54" d="M48.15,12.91l.5,19.51,14.64-.37-.5-19.51Z"/><path class="cls-55" d="M146,22.48l-19.52,9.76V12.72Z"/><path class="cls-55" d="M41.08,12.72H48.4V32.24H41.08Z"/><path class="cls-56" d="M24,22.36a9.75,9.75,0,0,1,9.89-9.62l7.32.1-.27,19.52-7.31-.1A9.78,9.78,0,0,1,24,22.36Z"/><path class="cls-54" d="M76.68,21a4.73,4.73,0,0,0,3.44,1.44A4.9,4.9,0,0,0,85,17.6a4.91,4.91,0,0,0,4.88,4.88c2.69,0,5.87-2.19,5.88-4.88a4.88,4.88,0,1,0,9.76,0V12.72h21V32.24H83a14.59,14.59,0,0,0-12.66-7.32V22.48a4.9,4.9,0,0,0,4.88-4.88A4.73,4.73,0,0,0,76.68,21Z"/><path class="cls-53" d="M83,32.24h22.5v7.64A45.06,45.06,0,0,1,104,47a18.44,18.44,0,0,1-2,4V64H68V51s-5-6-6-8a12.26,12.26,0,0,1-1.4-5.88v-22a4.88,4.88,0,1,1,9.76,0v9.76A14.59,14.59,0,0,1,83,32.24Z"/><path class="cls-53" d="M95.76,7.52h4.88a4.9,4.9,0,0,1,4.88,4.88v5.2a4.88,4.88,0,1,1-9.76,0Z"/><path class="cls-53" d="M95.43,5.52V17.6a4.88,4.88,0,0,1-9.76,0V5.52Z"/><path class="cls-53" d="M85.33,3.52V17.6a4.88,4.88,0,1,1-9.76,0V3.52Z"/><path class="cls-53" d="M75.24,2.52V17.6a4.9,4.9,0,0,1-4.88,4.88V15.16a4.91,4.91,0,0,0-4.88-4.88V7.4a4.9,4.9,0,0,1,4.88-4.88Z"/><polygon class="cls-53" points="21.5 68.5 21.5 93.5 61.5 90.59 61.5 72.08 21.5 68.5"/><path class="cls-53" d="M39,90.24h22.5v7.64A45.06,45.06,0,0,1,60,105a18.44,18.44,0,0,1-2,4v13H24V109s-5-6-6-8a12.26,12.26,0,0,1-1.4-5.88v-22a4.88,4.88,0,0,1,9.76,0v9.76A14.59,14.59,0,0,1,39,90.24Z"/><path class="cls-53" d="M51.76,65.52h4.88a4.9,4.9,0,0,1,4.88,4.88v5.2a4.88,4.88,0,0,1-9.76,0Z"/><path class="cls-53" d="M51.43,63.52V75.6a4.88,4.88,0,0,1-9.76,0V63.52Z"/><path class="cls-53" d="M41.33,61.52V75.6a4.88,4.88,0,1,1-9.76,0V61.52Z"/><path class="cls-53" d="M31.24,60.52V75.6a4.9,4.9,0,0,1-4.88,4.88V73.16a4.91,4.91,0,0,0-4.88-4.88V65.4a4.9,4.9,0,0,1,4.88-4.88Z"/></svg>