<svg id="Layer_1" data-name="Layer 1" xmlns="http://www.w3.org/2000/svg" xmlns:xlink="http://www.w3.org/1999/xlink" viewBox="0 0 170 180"><defs><style>.cls-1,.cls-2{fill:none;}.cls-2{clip-rule:evenodd;}.cls-3{clip-path:url(#clip-path);}.cls-4{clip-path:url(#clip-path-2);}.cls-5{clip-path:url(#clip-path-3);}.cls-6{clip-path:url(#clip-path-4);}.cls-7{clip-path:url(#clip-path-5);}.cls-8{clip-path:url(#clip-path-6);}.cls-9{clip-path:url(#clip-path-7);}.cls-10{clip-path:url(#clip-path-8);}.cls-11{clip-path:url(#clip-path-9);}.cls-12{clip-path:url(#clip-path-10);}.cls-13{clip-path:url(#clip-path-11);}.cls-14{clip-path:url(#clip-path-12);}.cls-15{clip-path:url(#clip-path-13);}.cls-16{fill:#faa601;}.cls-17{fill:#fff;}.cls-18{fill:#44e0c1;}.cls-19{fill:#726ffd;}.cls-20{fill:#9fc5e6;}.cls-21{fill:#00a66c;}</style><clipPath id="clip-path"><circle class="cls-1" cx="-120.5" cy="-901.5" r="82.5"/></clipPath><clipPath id="clip-path-2"><circle class="cls-1" cx="-120.5" cy="-901.5" r="70.5"/></clipPath><clipPath id="clip-path-3"><circle class="cls-1" cx="-120.5" cy="-901.5" r="53.5" transform="translate(758.49 -667.84) rotate(-67.5)"/></clipPath><clipPath id="clip-path-4"><circle class="cls-1" cx="-120.5" cy="-901.5" r="36.5" transform="translate(758.49 -667.84) rotate(-67.5)"/></clipPath><clipPath id="clip-path-5"><path class="cls-2" d="M-120-882a20,20,0,0,1-20-20,20,20,0,0,1,20-20,20,20,0,0,1,20,20A20,20,0,0,1-120-882Z"/></clipPath><clipPath id="clip-path-6"><path class="cls-2" d="M-53-962.61l-64.28,64.29a4.54,4.54,0,0,1-6.4,0,4.54,4.54,0,0,1,0-6.4L-59.39-969Z"/></clipPath><clipPath id="clip-path-7"><path class="cls-2" d="M-53-962.79l-64.58,64.46a4.54,4.54,0,0,1-6.42,0L-56.21-966Z"/></clipPath><clipPath id="clip-path-8"><polygon class="cls-2" points="-90 -959 -65.68 -984 -60 -969 -84.33 -944 -90 -959"/></clipPath><clipPath id="clip-path-9"><polygon class="cls-2" points="-84.73 -965.04 -80.97 -968.8 -75.13 -953.79 -78.89 -950.03 -84.73 -965.04"/></clipPath><clipPath id="clip-path-10"><polygon class="cls-2" points="-75.55 -974.22 -71.8 -977.97 -65.95 -962.96 -69.71 -959.21 -75.55 -974.22"/></clipPath><clipPath id="clip-path-11"><polygon class="cls-2" points="-53.02 -962.96 -78.05 -937.94 -63.03 -932.1 -38 -957.12 -53.02 -962.96"/></clipPath><clipPath id="clip-path-12"><polygon class="cls-2" points="-59.59 -955.88 -63.4 -952.15 -48.13 -946.34 -44.31 -950.07 -59.59 -955.88"/></clipPath><clipPath id="clip-path-13"><polygon class="cls-2" points="-68.92 -946.76 -72.73 -943.03 -57.46 -937.22 -53.65 -940.95 -68.92 -946.76"/></clipPath></defs><title>projeto 3</title><circle class="cls-16" cx="84.3" cy="95.56" r="82.3"/><circle class="cls-17" cx="84.3" cy="95.56" r="70.16"/><path class="cls-18" d="M84.15,148.92a53.36,53.36,0,1,1,53.51-53.21A53.41,53.41,0,0,1,84.15,148.92Z"/><path class="cls-17" d="M84.19,132.13a36.57,36.57,0,1,1,36.67-36.47A36.61,36.61,0,0,1,84.19,132.13Z"/><path class="cls-19" d="M84.24,115.33a19.77,19.77,0,1,1,19.83-19.71A19.79,19.79,0,0,1,84.24,115.33Z"/><path class="cls-20" d="M152.2,34.55,87.38,99A4.55,4.55,0,0,1,81,99h0a4.55,4.55,0,0,1,0-6.43L145.79,28.1Z"/><path class="cls-17" d="M152.2,34.55,87.38,99A4.55,4.55,0,0,1,81,99h0l68-67.65Z"/><polygon class="cls-18" points="115.07 37.97 140.02 13.16 145.79 28.1 120.83 52.91 115.07 37.97"/><polygon class="cls-21" points="120.69 32.39 124.43 28.66 130.19 43.61 126.45 47.33 120.69 32.39"/><polygon class="cls-21" points="129.83 23.29 133.58 19.57 139.34 34.51 135.6 38.23 129.83 23.29"/><polygon class="cls-21" points="152.2 34.55 127.24 59.36 142.16 65.21 167.11 40.4 152.2 34.55"/><polygon class="cls-18" points="145.75 40.96 142.01 44.68 156.92 50.53 160.66 46.81 145.75 40.96"/><polygon class="cls-18" points="136.6 50.06 132.86 53.78 147.77 59.63 151.51 55.91 136.6 50.06"/></svg>