<svg id="Layer_1" data-name="Layer 1" xmlns="http://www.w3.org/2000/svg" xmlns:xlink="http://www.w3.org/1999/xlink" viewBox="0 0 170 180"><defs><style>.cls-1,.cls-2{fill:none;}.cls-1{clip-rule:evenodd;}.cls-3{clip-path:url(#clip-path);}.cls-4{clip-path:url(#clip-path-2);}.cls-5{clip-path:url(#clip-path-3);}.cls-6{clip-path:url(#clip-path-4);}.cls-7{clip-path:url(#clip-path-5);}.cls-8{clip-path:url(#clip-path-6);}.cls-9{clip-path:url(#clip-path-7);}.cls-10{clip-path:url(#clip-path-8);}.cls-11{clip-path:url(#clip-path-9);}.cls-12{clip-path:url(#clip-path-10);}.cls-13{clip-path:url(#clip-path-11);}.cls-14{clip-path:url(#clip-path-12);}.cls-15{clip-path:url(#clip-path-13);}.cls-16{clip-path:url(#clip-path-14);}.cls-17{fill:#edf4f2;}.cls-18{fill:#00b576;}.cls-19{fill:#2ed9b7;}.cls-20{fill:#47e8c8;}.cls-21{fill:#21ca8f;}.cls-22{fill:#ecf8d9;}.cls-23{fill:#ea9b00;}.cls-24{fill:#ffa900;}.cls-25{fill:#ececeb;}.cls-26{fill:#fff;}.cls-27{fill:#7c78ff;}</style><clipPath id="clip-path"><path class="cls-1" d="M108.1-498.55a2.54,2.54,0,0,0,3,2.51A83,83,0,0,0,179-577.87c0-45.39-36.11-82.29-81-83.12-46.16-.85-83.84,36.23-84,82.75A83.26,83.26,0,0,0,27.66-532a2.07,2.07,0,0,0,1.73.93H108.1Z"/></clipPath><clipPath id="clip-path-2"><circle class="cls-2" cx="121" cy="-606" r="52"/></clipPath><clipPath id="clip-path-3"><path class="cls-1" d="M81-606c0,22.64,18.13,41,40.5,41S162-583.36,162-606s-18.13-41-40.5-41S81-628.64,81-606Z"/></clipPath><clipPath id="clip-path-4"><path class="cls-1" d="M121.37-565a40,40,0,0,0,6.23-.49c13.28-7.4,22.4-22.76,22.4-40.51s-9.12-33.11-22.4-40.51a40,40,0,0,0-6.23-.49C99.07-647,81-628.64,81-606S99.07-565,121.37-565Z"/></clipPath><clipPath id="clip-path-5"><path class="cls-2" d="M90.46-612a5.46,5.46,0,0,1,5.46,5.46,5.46,5.46,0,0,1-5.46,5.46A5.45,5.45,0,0,1,85-606.54,5.45,5.45,0,0,1,90.46-612Zm24.62,33.54a5.46,5.46,0,0,0,5.46,5.46,5.45,5.45,0,0,0,5.46-5.46,5.45,5.45,0,0,0-5.46-5.46A5.46,5.46,0,0,0,115.08-578.46Z"/></clipPath><clipPath id="clip-path-6"><path class="cls-1" d="M101.91-622.65,120.69-603a3,3,0,0,0,4.4,0,3.38,3.38,0,0,0,0-4.61l-.21-.22a3.36,3.36,0,0,0,.37-1.53v-42.42a3.19,3.19,0,0,0-3.12-3.26,3.19,3.19,0,0,0-3.11,3.26v37.81l-12.71-13.33a3,3,0,0,0-4.4,0A3.38,3.38,0,0,0,101.91-622.65Z"/></clipPath><clipPath id="clip-path-7"><path class="cls-2" d="M121.65-615a8.57,8.57,0,0,1,8.64,8.5,8.57,8.57,0,0,1-8.64,8.5,8.57,8.57,0,0,1-8.65-8.5A8.57,8.57,0,0,1,121.65-615Zm24.49,8.5a5.38,5.38,0,0,0,5.43,5.34A5.38,5.38,0,0,0,157-606.5a5.38,5.38,0,0,0-5.43-5.34A5.38,5.38,0,0,0,146.14-606.5Z"/></clipPath><clipPath id="clip-path-8"><path class="cls-1" d="M28-560h84v-15.71a6.37,6.37,0,0,0-6.46-6.29H34.46A6.37,6.37,0,0,0,28-575.71Z"/></clipPath><clipPath id="clip-path-9"><path class="cls-1" d="M27-560h74v-15.71A6.36,6.36,0,0,0,94.57-582H33.43A6.36,6.36,0,0,0,27-575.71Z"/></clipPath><clipPath id="clip-path-10"><path class="cls-1" d="M28-531.93A82.86,82.86,0,0,0,97.14-495,83.64,83.64,0,0,0,112-496.32V-566H28Z"/></clipPath><clipPath id="clip-path-11"><path class="cls-1" d="M101-495.16V-566H27v34.07A82.41,82.41,0,0,0,95.85-495C97.58-495,99.3-495.06,101-495.16Z"/></clipPath><clipPath id="clip-path-12"><path class="cls-2" d="M42.82-593A4.79,4.79,0,0,0,38-588.25v12.67A1.6,1.6,0,0,0,39.61-574H46a1.59,1.59,0,0,0,1.6-1.58v-12.67A4.78,4.78,0,0,0,42.82-593Zm46.55,4.75v12.67A1.59,1.59,0,0,0,91-574h6.42A1.6,1.6,0,0,0,99-575.58v-12.67A4.79,4.79,0,0,0,94.18-593,4.78,4.78,0,0,0,89.37-588.25Z"/></clipPath><clipPath id="clip-path-13"><path class="cls-2" d="M59.45-534.88a6.38,6.38,0,0,1,6.37,6.38,6.38,6.38,0,0,1-6.37,6.38,6.37,6.37,0,0,1-6.36-6.38A6.37,6.37,0,0,1,59.45-534.88Zm0,19.13a6.37,6.37,0,0,1,6.37,6.37,6.39,6.39,0,0,1-4.1,6,81.6,81.6,0,0,1-8.46-4.53,6.09,6.09,0,0,1-.17-1.43A6.37,6.37,0,0,1,59.45-515.75Zm19.1,0a6.37,6.37,0,0,1,6.36,6.37A6.37,6.37,0,0,1,78.55-503a6.37,6.37,0,0,1-6.37-6.38A6.37,6.37,0,0,1,78.55-515.75Zm19.09,0a6.37,6.37,0,0,1,6.36,6.37A6.37,6.37,0,0,1,97.64-503a6.37,6.37,0,0,1-6.37-6.38A6.37,6.37,0,0,1,97.64-515.75ZM40.36-534.88a6.38,6.38,0,0,1,6.37,6.38,6.38,6.38,0,0,1-6.37,6.38A6.37,6.37,0,0,1,34-528.5,6.37,6.37,0,0,1,40.36-534.88Zm38.19,0H97.64A6.37,6.37,0,0,1,104-528.5a6.37,6.37,0,0,1-6.36,6.38H78.55a6.38,6.38,0,0,1-6.37-6.38A6.38,6.38,0,0,1,78.55-534.88ZM104-547.62A6.37,6.37,0,0,0,97.64-554H40.36A6.37,6.37,0,0,0,34-547.62a6.37,6.37,0,0,0,6.36,6.37H97.64A6.37,6.37,0,0,0,104-547.62Z"/></clipPath><clipPath id="clip-path-14"><path class="cls-2" d="M59.45-534.2a6.48,6.48,0,0,0-6.36,6.6,6.48,6.48,0,0,0,6.36,6.6,6.48,6.48,0,0,0,6.37-6.6A6.48,6.48,0,0,0,59.45-534.2Zm-19.09,0A6.48,6.48,0,0,0,34-527.6a6.48,6.48,0,0,0,6.36,6.6,6.48,6.48,0,0,0,6.37-6.6A6.48,6.48,0,0,0,40.36-534.2ZM97.64-554a6.48,6.48,0,0,0-6.37,6.6,6.48,6.48,0,0,0,6.37,6.6,6.48,6.48,0,0,0,6.36-6.6A6.48,6.48,0,0,0,97.64-554Zm-19.09,0a6.48,6.48,0,0,0-6.37,6.6,6.48,6.48,0,0,0,6.37,6.6,6.48,6.48,0,0,0,6.36-6.6A6.48,6.48,0,0,0,78.55-554Zm-19.1,0a6.48,6.48,0,0,0-6.36,6.6,6.48,6.48,0,0,0,6.36,6.6,6.48,6.48,0,0,0,6.37-6.6A6.48,6.48,0,0,0,59.45-554Zm-12.72,6.6a6.48,6.48,0,0,1-6.37,6.6A6.48,6.48,0,0,1,34-547.4a6.48,6.48,0,0,1,6.36-6.6A6.48,6.48,0,0,1,46.73-547.4Z"/></clipPath></defs><title>projeto 4</title><path class="cls-17" d="M97.1,141.91H18.39a2.09,2.09,0,0,1-1.73-.93,82.5,82.5,0,1,1,83.42,35.73,2.54,2.54,0,0,1-3-2.49Z"/><path class="cls-18" d="M110,16.22A51.57,51.57,0,1,1,58.43,67.78,51.56,51.56,0,0,1,110,16.22Z"/><path class="cls-19" d="M110,26.89A40.9,40.9,0,1,1,69.1,67.78,40.9,40.9,0,0,1,110,26.89Z"/><path class="cls-20" d="M69.1,67.78a40.89,40.89,0,0,1,47.2-40.4c13.45,7.38,22.7,22.7,22.7,40.4s-9.25,33-22.7,40.41A40.89,40.89,0,0,1,69.1,67.78Z"/><path class="cls-21" d="M110,90.34a5.45,5.45,0,1,1-5.44,5.45A5.45,5.45,0,0,1,110,90.34ZM74.54,67.78A5.45,5.45,0,1,0,80,62.34,5.45,5.45,0,0,0,74.54,67.78Z"/><path class="cls-22" d="M90,46.84a3.22,3.22,0,0,1,4.56,0L107.74,60V22.67a3.22,3.22,0,1,1,6.44,0V64.56a3.19,3.19,0,0,1-.38,1.51l.22.22a3.22,3.22,0,0,1-4.56,4.55L90,51.4A3.22,3.22,0,0,1,90,46.84Z"/><path class="cls-18" d="M140,62.34a5.45,5.45,0,1,1-5.45,5.44A5.45,5.45,0,0,1,140,62.34Zm-38.68,5.44A8.67,8.67,0,1,0,110,59.12,8.67,8.67,0,0,0,101.32,67.78Z"/><path class="cls-23" d="M16.53,96.79A6.45,6.45,0,0,1,23,90.34h70.9a6.44,6.44,0,0,1,6.44,6.45V112.9H16.53Z"/><path class="cls-24" d="M16.53,96.79A6.45,6.45,0,0,1,23,90.34H84.21a6.45,6.45,0,0,1,6.45,6.45V112.9H16.53Z"/><path class="cls-25" d="M16.53,106.46h83.79v70.21a82.61,82.61,0,0,1-83.79-35.89Z"/><path class="cls-26" d="M85.5,178a82.42,82.42,0,0,1-69-37.22V106.46H90.66v71.38C89,177.94,87.23,178,85.5,178Z"/><path class="cls-27" d="M84.21,80.68A4.83,4.83,0,0,1,89,85.51V98.4A1.61,1.61,0,0,1,87.43,100H81a1.61,1.61,0,0,1-1.61-1.61V85.51A4.83,4.83,0,0,1,84.21,80.68Zm-56.4,4.83V98.4A1.61,1.61,0,0,0,29.42,100h6.45a1.61,1.61,0,0,0,1.61-1.61V85.51a4.84,4.84,0,0,0-9.67,0Z"/><path class="cls-27" d="M84.21,93.57A4.84,4.84,0,0,0,89,88.73V98.4A1.61,1.61,0,0,1,87.43,100H81a1.61,1.61,0,0,1-1.61-1.61V88.73A4.84,4.84,0,0,0,84.21,93.57Zm-56.4-4.84V98.4A1.61,1.61,0,0,0,29.42,100h6.45a1.61,1.61,0,0,0,1.61-1.61V88.73a4.84,4.84,0,1,1-9.67,0Z"/><path class="cls-25" d="M87.43,132.24h-58a6.45,6.45,0,0,1,0-12.89h58a6.45,6.45,0,1,1,0,12.89ZM61.65,145.13a6.44,6.44,0,0,0,6.45,6.44H87.43a6.45,6.45,0,1,0,0-12.89H68.1A6.45,6.45,0,0,0,61.65,145.13Zm-38.67,0a6.45,6.45,0,1,0,6.44-6.45A6.44,6.44,0,0,0,23,145.13Zm58,19.33A6.45,6.45,0,1,0,87.43,158,6.44,6.44,0,0,0,81,164.46Zm-19.34,0A6.45,6.45,0,1,0,68.1,158,6.45,6.45,0,0,0,61.65,164.46Zm-19.33,0a6.93,6.93,0,0,0,.16,1.45,82.69,82.69,0,0,0,8.57,4.57,6.44,6.44,0,1,0-8.73-6Zm0-19.33a6.45,6.45,0,1,0,6.44-6.45A6.44,6.44,0,0,0,42.32,145.13Z"/><path class="cls-24" d="M35.87,125.79a6.45,6.45,0,1,1-6.45-6.44A6.45,6.45,0,0,1,35.87,125.79Zm12.89-6.44a6.45,6.45,0,1,0,6.45,6.44A6.44,6.44,0,0,0,48.76,119.35Zm19.34,0a6.45,6.45,0,1,0,6.44,6.44A6.44,6.44,0,0,0,68.1,119.35Zm19.33,0a6.45,6.45,0,1,0,6.45,6.44A6.44,6.44,0,0,0,87.43,119.35Zm-58,19.33a6.45,6.45,0,1,0,6.45,6.45A6.44,6.44,0,0,0,29.42,138.68Zm19.34,0a6.45,6.45,0,1,0,6.45,6.45A6.44,6.44,0,0,0,48.76,138.68Z"/></svg>