<svg id="Layer_1" data-name="Layer 1" xmlns="http://www.w3.org/2000/svg" xmlns:xlink="http://www.w3.org/1999/xlink" viewBox="0 0 170 180"><defs><style>.cls-1,.cls-2{fill:none;}.cls-1{clip-rule:evenodd;}.cls-3{clip-path:url(#clip-path);}.cls-4{clip-path:url(#clip-path-2);}.cls-5{clip-path:url(#clip-path-3);}.cls-6{clip-path:url(#clip-path-4);}.cls-7{clip-path:url(#clip-path-5);}.cls-8{clip-path:url(#clip-path-6);}.cls-9{clip-path:url(#clip-path-7);}.cls-10{clip-path:url(#clip-path-8);}.cls-11{clip-path:url(#clip-path-9);}.cls-12{clip-path:url(#clip-path-10);}.cls-13{clip-path:url(#clip-path-11);}.cls-14{clip-path:url(#clip-path-12);}.cls-15{clip-path:url(#clip-path-13);}.cls-16{clip-path:url(#clip-path-14);}.cls-17{fill:#fff;}.cls-18{fill:#7c78ff;}.cls-19{fill:#d5e3dd;}.cls-20{fill:#edf4f2;}.cls-21{fill:#47e8c8;}.cls-22{fill:#00b576;}.cls-23{fill:#ea9b00;}.cls-24{fill:#ffa900;}</style><clipPath id="clip-path"><path class="cls-1" d="M-143.9-498.55a2.54,2.54,0,0,0,3,2.51A83,83,0,0,0-73-577.87c0-45.39-36.11-82.29-81-83.12-46.16-.85-83.84,36.23-84,82.75A83.26,83.26,0,0,0-224.34-532a2.07,2.07,0,0,0,1.73.93h78.71Z"/></clipPath><clipPath id="clip-path-2"><circle class="cls-2" cx="-131" cy="-606" r="52"/></clipPath><clipPath id="clip-path-3"><path class="cls-1" d="M-171-606c0,22.64,18.13,41,40.5,41S-90-583.36-90-606s-18.13-41-40.5-41S-171-628.64-171-606Z"/></clipPath><clipPath id="clip-path-4"><path class="cls-1" d="M-130.63-565a40,40,0,0,0,6.23-.49c13.28-7.4,22.4-22.76,22.4-40.51s-9.12-33.11-22.4-40.51a40,40,0,0,0-6.23-.49c-22.3,0-40.37,18.36-40.37,41S-152.93-565-130.63-565Z"/></clipPath><clipPath id="clip-path-5"><path class="cls-2" d="M-161.54-612a5.46,5.46,0,0,1,5.46,5.46,5.46,5.46,0,0,1-5.46,5.46,5.45,5.45,0,0,1-5.46-5.46A5.45,5.45,0,0,1-161.54-612Zm24.62,33.54a5.46,5.46,0,0,0,5.46,5.46,5.45,5.45,0,0,0,5.46-5.46,5.45,5.45,0,0,0-5.46-5.46A5.46,5.46,0,0,0-136.92-578.46Z"/></clipPath><clipPath id="clip-path-6"><path class="cls-1" d="M-150.09-622.65-131.31-603a3,3,0,0,0,4.4,0,3.38,3.38,0,0,0,0-4.61l-.21-.22a3.36,3.36,0,0,0,.37-1.53v-42.42a3.19,3.19,0,0,0-3.12-3.26,3.19,3.19,0,0,0-3.11,3.26v37.81l-12.71-13.33a3,3,0,0,0-4.4,0A3.38,3.38,0,0,0-150.09-622.65Z"/></clipPath><clipPath id="clip-path-7"><path class="cls-2" d="M-130.35-615a8.57,8.57,0,0,1,8.64,8.5,8.57,8.57,0,0,1-8.64,8.5,8.57,8.57,0,0,1-8.65-8.5A8.57,8.57,0,0,1-130.35-615Zm24.49,8.5a5.38,5.38,0,0,0,5.43,5.34A5.38,5.38,0,0,0-95-606.5a5.38,5.38,0,0,0-5.43-5.34A5.38,5.38,0,0,0-105.86-606.5Z"/></clipPath><clipPath id="clip-path-8"><path class="cls-1" d="M-224-560h84v-15.71a6.37,6.37,0,0,0-6.46-6.29h-71.08a6.37,6.37,0,0,0-6.46,6.29Z"/></clipPath><clipPath id="clip-path-9"><path class="cls-1" d="M-225-560h74v-15.71a6.36,6.36,0,0,0-6.43-6.29h-61.14a6.36,6.36,0,0,0-6.43,6.29Z"/></clipPath><clipPath id="clip-path-10"><path class="cls-1" d="M-224-531.93A82.86,82.86,0,0,0-154.86-495,83.64,83.64,0,0,0-140-496.32V-566h-84Z"/></clipPath><clipPath id="clip-path-11"><path class="cls-1" d="M-151-495.16V-566h-74v34.07A82.41,82.41,0,0,0-156.15-495C-154.42-495-152.7-495.06-151-495.16Z"/></clipPath><clipPath id="clip-path-12"><path class="cls-2" d="M-209.18-593a4.79,4.79,0,0,0-4.82,4.75v12.67a1.6,1.6,0,0,0,1.61,1.58H-206a1.59,1.59,0,0,0,1.6-1.58v-12.67A4.78,4.78,0,0,0-209.18-593Zm46.55,4.75v12.67A1.59,1.59,0,0,0-161-574h6.42a1.6,1.6,0,0,0,1.61-1.58v-12.67a4.79,4.79,0,0,0-4.82-4.75A4.78,4.78,0,0,0-162.63-588.25Z"/></clipPath><clipPath id="clip-path-13"><path class="cls-2" d="M-192.55-534.88a6.38,6.38,0,0,1,6.37,6.38,6.38,6.38,0,0,1-6.37,6.38,6.37,6.37,0,0,1-6.36-6.38A6.37,6.37,0,0,1-192.55-534.88Zm0,19.13a6.37,6.37,0,0,1,6.37,6.37,6.39,6.39,0,0,1-4.1,6,81.6,81.6,0,0,1-8.46-4.53,6.09,6.09,0,0,1-.17-1.43A6.37,6.37,0,0,1-192.55-515.75Zm19.1,0a6.37,6.37,0,0,1,6.36,6.37,6.37,6.37,0,0,1-6.36,6.38,6.37,6.37,0,0,1-6.37-6.38A6.37,6.37,0,0,1-173.45-515.75Zm19.09,0a6.37,6.37,0,0,1,6.36,6.37,6.37,6.37,0,0,1-6.36,6.38,6.37,6.37,0,0,1-6.37-6.38A6.37,6.37,0,0,1-154.36-515.75Zm-57.28-19.13a6.38,6.38,0,0,1,6.37,6.38,6.38,6.38,0,0,1-6.37,6.38A6.37,6.37,0,0,1-218-528.5,6.37,6.37,0,0,1-211.64-534.88Zm38.19,0h19.09A6.37,6.37,0,0,1-148-528.5a6.37,6.37,0,0,1-6.36,6.38h-19.09a6.38,6.38,0,0,1-6.37-6.38A6.38,6.38,0,0,1-173.45-534.88ZM-148-547.62a6.37,6.37,0,0,0-6.36-6.38h-57.28a6.37,6.37,0,0,0-6.36,6.38,6.37,6.37,0,0,0,6.36,6.37h57.28A6.37,6.37,0,0,0-148-547.62Z"/></clipPath><clipPath id="clip-path-14"><path class="cls-2" d="M-192.55-534.2a6.48,6.48,0,0,0-6.36,6.6,6.48,6.48,0,0,0,6.36,6.6,6.48,6.48,0,0,0,6.37-6.6A6.48,6.48,0,0,0-192.55-534.2Zm-19.09,0a6.48,6.48,0,0,0-6.36,6.6,6.48,6.48,0,0,0,6.36,6.6,6.48,6.48,0,0,0,6.37-6.6A6.48,6.48,0,0,0-211.64-534.2Zm57.28-19.8a6.48,6.48,0,0,0-6.37,6.6,6.48,6.48,0,0,0,6.37,6.6,6.48,6.48,0,0,0,6.36-6.6A6.48,6.48,0,0,0-154.36-554Zm-19.09,0a6.48,6.48,0,0,0-6.37,6.6,6.48,6.48,0,0,0,6.37,6.6,6.48,6.48,0,0,0,6.36-6.6A6.48,6.48,0,0,0-173.45-554Zm-19.1,0a6.48,6.48,0,0,0-6.36,6.6,6.48,6.48,0,0,0,6.36,6.6,6.48,6.48,0,0,0,6.37-6.6A6.48,6.48,0,0,0-192.55-554Zm-12.72,6.6a6.48,6.48,0,0,1-6.37,6.6,6.48,6.48,0,0,1-6.36-6.6,6.48,6.48,0,0,1,6.36-6.6A6.48,6.48,0,0,1-205.27-547.4Z"/></clipPath></defs><title>projeto 5</title><path class="cls-17" d="M167,95.25a82.06,82.06,0,0,1-5,28.4c-.81,2.22-1.72,4.41-2.73,6.54a82.43,82.43,0,0,1-42.52,40.87,80.69,80.69,0,0,1-9.34,3.29A82.3,82.3,0,0,1,7.54,66.85c.6-1.64,1.26-3.26,2-4.85A82.47,82.47,0,0,1,52.79,19.44a82.21,82.21,0,0,1,63.92,0A82.21,82.21,0,0,1,167,95.25Z"/><path class="cls-18" d="M47.94,48.57H12.38a4.85,4.85,0,0,1-4.84-4.85V24.56a4.84,4.84,0,0,1,4.84-4.84H47.94a4.84,4.84,0,0,1,4.85,4.84V43.72A4.85,4.85,0,0,1,47.94,48.57Z"/><path class="cls-19" d="M52.79,65.89V153.2a4.85,4.85,0,0,1-4.85,4.85H31.63A82.8,82.8,0,0,1,18,143.32c-.78-1.08-1.54-2.19-2.27-3.32a81.44,81.44,0,0,1-8.19-16.35V65.89A4.83,4.83,0,0,1,9.5,62a4.78,4.78,0,0,1,2.88-1H47.94A4.85,4.85,0,0,1,52.79,65.89Z"/><path class="cls-20" d="M107.37,115.17v38a4.83,4.83,0,0,1-4.84,4.85H67a4.85,4.85,0,0,1-4.85-4.85v-38A4.85,4.85,0,0,1,67,110.32h35.56A4.85,4.85,0,0,1,107.37,115.17Z"/><path class="cls-21" d="M107.37,174.35a82.79,82.79,0,0,1-45.24,0A4.85,4.85,0,0,1,67,169.74h35.56A4.85,4.85,0,0,1,107.37,174.35Z"/><path class="cls-21" d="M102.53,68.25H67a4.85,4.85,0,0,1-4.85-4.85V21.2A4.85,4.85,0,0,1,67,16.36h35.56a4.84,4.84,0,0,1,4.84,4.84V63.4A4.85,4.85,0,0,1,102.53,68.25Z"/><path class="cls-21" d="M162,82v41.63c-.81,2.22-1.72,4.41-2.73,6.54a4.84,4.84,0,0,1-2.11.48H121.56a4.85,4.85,0,0,1-4.85-4.84V82a4.85,4.85,0,0,1,4.85-4.85h35.56A4.85,4.85,0,0,1,162,82Z"/><path class="cls-18" d="M121.56,24.75h35.56A4.85,4.85,0,0,1,162,29.6V59.1A4.85,4.85,0,0,1,157.12,64H121.56a4.85,4.85,0,0,1-4.85-4.85V29.6A4.85,4.85,0,0,1,121.56,24.75Z"/><path class="cls-22" d="M15.73,74.53H44.6v4.85H15.73Z"/><path class="cls-22" d="M15.73,83.66H44.6v4.86H15.73Z"/><path class="cls-22" d="M15.73,92.8H44.6v4.85H15.73Z"/><path class="cls-22" d="M15.73,101.93H44.6v4.86H15.73Z"/><path class="cls-22" d="M15.73,111.06H44.6v4.86H15.73Z"/><path class="cls-22" d="M15.73,120.2H44.6v4.86H15.73Z"/><path class="cls-22" d="M15.73,129.33H44.6v4.86H15.73Z"/><path class="cls-22" d="M44.6,138.47v4.85H18c-.78-1.08-1.54-2.19-2.27-3.32v-1.53Z"/><path class="cls-22" d="M70.31,26.17H99.18V31H70.31Z"/><path class="cls-22" d="M70.31,35.31H99.18v4.85H70.31Z"/><path class="cls-22" d="M70.31,44.44H99.18V49.3H70.31Z"/><path class="cls-22" d="M70.31,53.58H99.18v4.85H70.31Z"/><path class="cls-22" d="M124.9,87.8h28.87v4.85H124.9Z"/><path class="cls-22" d="M124.9,96.93h28.87v4.86H124.9Z"/><path class="cls-22" d="M124.9,106.06h28.87v4.86H124.9Z"/><path class="cls-22" d="M124.9,115.2h28.87v4.85H124.9Z"/><path class="cls-23" d="M107.37,131.56V153.2a4.83,4.83,0,0,1-4.84,4.85H67a4.85,4.85,0,0,1-4.85-4.85v-7l14.36-10.28L91.86,146.1Z"/><path class="cls-24" d="M102.53,98.27H67a4.84,4.84,0,0,1-4.85-4.84v-8A4.85,4.85,0,0,1,67,80.56h35.56a4.85,4.85,0,0,1,4.84,4.85v8A4.84,4.84,0,0,1,102.53,98.27Z"/><path class="cls-24" d="M152.69,141.63a82.58,82.58,0,0,1-36,29.43V146.47a4.85,4.85,0,0,1,4.85-4.84Z"/><path class="cls-24" d="M80.76,124.88a6.09,6.09,0,1,1-6.08-6.08A6.09,6.09,0,0,1,80.76,124.88Z"/><path class="cls-24" d="M107.37,131.57V153.2a4.83,4.83,0,0,1-.8,2.68L91.86,146.1Z"/><path class="cls-24" d="M76.48,135.88l-6.24,22.17H67a4.85,4.85,0,0,1-4.85-4.85v-7Z"/></svg>