<svg id="Layer_1" data-name="Layer 1" xmlns="http://www.w3.org/2000/svg" viewBox="0 0 170 180"><defs><style>.cls-1{fill:#edf4f2;}.cls-2{fill:#ffa900;}.cls-3{fill:#47e8c8;}.cls-4{fill:#00b576;}.cls-5{fill:#7c78ff;}.cls-6{fill:#fff;}.cls-7{fill:#f2f4f3;}.cls-8{fill:#ea9b00;}</style></defs><title>projeto 6</title><path class="cls-1" d="M168,95.13a82,82,0,0,1-11.78,42.47,82.94,82.94,0,0,1-16.61,19.75,83.81,83.81,0,0,1-7,5.44h0A82.39,82.39,0,0,1,15.55,138.43q-1.86-3-3.47-6.19A82.39,82.39,0,1,1,162.25,64.83a81.32,81.32,0,0,1,2.93,8.86A82.39,82.39,0,0,1,168,95.13Z"/><path class="cls-2" d="M38.15,113.48l-22.6,25q-1.86-3-3.47-6.19L33.17,109Z"/><path class="cls-2" d="M165.18,73.69l-18.49,35L116.34,87.61l3.84-5.52,24.11,16.75,18-34A81.32,81.32,0,0,1,165.18,73.69Z"/><path class="cls-3" d="M156.22,137.6a82.94,82.94,0,0,1-16.61,19.75,83.81,83.81,0,0,1-7,5.44h0a17.73,17.73,0,0,1-3.51-3.37L106,130,95.32,116.38l15.19-15.18,12.78,10L153.54,135A17.46,17.46,0,0,1,156.22,137.6Z"/><path class="cls-4" d="M139.61,157.35a83.81,83.81,0,0,1-7,5.44,17.5,17.5,0,0,1-3.51-3.38L106,130h0L95.32,116.38h0l3.84-3.83h0l11.35-11.34,12.78,10a48.18,48.18,0,0,1-3.43,4.74,16,16,0,0,0,.57,20.54l14.86,16.73A34.59,34.59,0,0,0,139.61,157.35Z"/><path class="cls-5" d="M124.79,73.15A61.15,61.15,0,1,1,63.65,12,61.14,61.14,0,0,1,124.79,73.15Z"/><path class="cls-6" d="M96.68,106.18a46.66,46.66,0,0,1-66.07,0c-.41-.41-.81-.83-1.2-1.25a46.08,46.08,0,0,1-5.3-6.9A46.76,46.76,0,0,1,25.9,45.6a49.39,49.39,0,0,1,4.71-5.49,46.72,46.72,0,0,1,66.07,66.07Z"/><path class="cls-7" d="M86.48,50.32a46.72,46.72,0,0,1,4.71,60.57A46.73,46.73,0,0,1,25.9,45.61,46.71,46.71,0,0,1,86.48,50.32Z"/><path class="cls-8" d="M110,67,93.61,78.75,68.74,53.88,42.29,88.06,29.41,104.93a46.08,46.08,0,0,1-5.3-6.9l11.52-15.1L67.94,41.19,94.51,67.76l13.39-9.61A46.38,46.38,0,0,1,110,67Z"/><path class="cls-2" d="M110,67,99.35,74.63a46.71,46.71,0,0,0-2.49-8.56l11-7.92A46.38,46.38,0,0,1,110,67Z"/><path class="cls-4" d="M46.91,85.48A7.94,7.94,0,1,1,39,77.54,7.94,7.94,0,0,1,46.91,85.48Z"/><path class="cls-4" d="M76.28,47.54a7.94,7.94,0,1,1-7.94-7.94A7.93,7.93,0,0,1,76.28,47.54Z"/><path class="cls-4" d="M102,73.26a7.94,7.94,0,1,1-7.94-8A7.94,7.94,0,0,1,102,73.26Z"/><path class="cls-3" d="M102,73.26a7.91,7.91,0,0,1-2.08,5.35,46.41,46.41,0,0,0-3.18-12.83A7.94,7.94,0,0,1,102,73.26Z"/><path class="cls-3" d="M152.58,103.76a7.09,7.09,0,1,1-7.09-7.08A7.1,7.1,0,0,1,152.58,103.76Z"/></svg>