<svg id="Layer_1" data-name="Layer 1" xmlns="http://www.w3.org/2000/svg" viewBox="0 0 170 180"><defs><style>.cls-1{fill:#fff;}.cls-2{fill:#edf4f2;}.cls-3{fill:#ffa900;}.cls-4{fill:#ea9b00;}.cls-5{fill:#7c78ff;}.cls-6{fill:#6666ed;}.cls-7{fill:#47e8c8;}.cls-8{fill:#2ed9b7;}.cls-9{fill:#21ca8f;}.cls-10{fill:#00b576;}</style></defs><title>projeto 7</title><path class="cls-1" d="M168,94.2A83,83,0,0,1,68.61,176a6.22,6.22,0,0,1-5-6.11A5.88,5.88,0,0,0,57.75,164H41.25a5.81,5.81,0,0,1-3.3-1,83.55,83.55,0,0,1-21.82-22.06A6.68,6.68,0,0,1,15,137.18V119.34a7.22,7.22,0,0,0-7.22-7.22,4.7,4.7,0,0,1-4.64-4A83,83,0,1,1,168,94.2Z"/><path class="cls-2" d="M71.15,28.61c.22-.69.42-1.33.56-1.72a63.78,63.78,0,0,1,7.7-15.08c1.86-.12,3.73-.19,5.62-.19l1.87,0a57.34,57.34,0,0,0-9.6,17.11c-.13.36-.33,1-.53,1.62a2.94,2.94,0,0,1-5.62-1.76ZM168,92.86A57.72,57.72,0,0,1,82.4,78.05l2.84-1.55a1.31,1.31,0,0,0-.1-2.33L76,70.06a1.29,1.29,0,0,0-1.81,1L72.69,81a1.29,1.29,0,0,0,1.91,1.32l2.63-1.44a63.53,63.53,0,0,0,90.61,19.39c.12-1.87.19-3.75.19-5.65C168,94,168,93.45,168,92.86ZM90.64,163.6A2.94,2.94,0,0,0,87,165.51c-.21.65-.41,1.25-.54,1.62a57.44,57.44,0,0,1-5,10.4c1.2.06,2.4.09,3.61.09,1.06,0,2.12,0,3.17-.07A63.34,63.34,0,0,0,92,169c.15-.39.36-1,.58-1.72A3,3,0,0,0,90.64,163.6ZM90,124.85l1.56-9.93a1.3,1.3,0,0,0-1.9-1.34L87,115A63.52,63.52,0,0,0,2.1,91.41c0,1.06-.07,2.13-.07,3.21s0,2.34.08,3.5A57.75,57.75,0,0,1,81.8,117.78L79,119.31a1.3,1.3,0,0,0,.07,2.32l9.13,4.2A1.31,1.31,0,0,0,90,124.85Zm2,5.27a2.84,2.84,0,1,0,1.89,3.53A2.84,2.84,0,0,0,92,130.12Zm-1.33,11.13a2.84,2.84,0,1,0,3.65-1.66A2.84,2.84,0,0,0,90.67,141.25Zm3.88,6.27a2.84,2.84,0,1,0,1.66,3.65A2.83,2.83,0,0,0,94.55,147.52Zm-.9,8.27a2.84,2.84,0,1,0,1.66,3.65A2.83,2.83,0,0,0,93.65,155.79Zm-21.56-90a2.83,2.83,0,1,0-1.93-3.51A2.84,2.84,0,0,0,72.09,65.8Zm1.22-11.14a2.84,2.84,0,1,0-3.63,1.69A2.84,2.84,0,0,0,73.31,54.66Zm-3.94-6.23a2.84,2.84,0,1,0-1.69-3.63A2.83,2.83,0,0,0,69.37,48.43Zm.83-8.28a2.84,2.84,0,1,0-1.69-3.63A2.84,2.84,0,0,0,70.2,40.15Z"/><path class="cls-3" d="M69.07,176.08A82.57,82.57,0,0,1,37.6,162.73,16.3,16.3,0,1,0,16.88,142,82.57,82.57,0,0,1,3.09,107.85a7,7,0,0,1,2.82,1.33l2.41,1.87a43.88,43.88,0,0,1,6.82-3.67l-.3-2.87a7.12,7.12,0,0,1,13.68-3.41l1.14,2.82a42.84,42.84,0,0,1,7.75.22l1.17-2.62a7.12,7.12,0,0,1,13.55,3.89l-.41,3a42.17,42.17,0,0,1,6.6,4.06l2.32-1.68A7.12,7.12,0,0,1,70.43,121l-1.87,2.4a44.8,44.8,0,0,1,3.68,6.82l2.86-.29a7.12,7.12,0,0,1,3.41,13.67L75.7,144.7a43.69,43.69,0,0,1-.23,7.74l2.62,1.18a7.12,7.12,0,0,1-3.89,13.55l-3-.42a43.24,43.24,0,0,1-4.06,6.6l1.68,2.33Z"/><path class="cls-4" d="M47.9,152a16.31,16.31,0,0,0-31-10,83.85,83.85,0,0,1-7.13-12.39A28.66,28.66,0,1,1,50,169.87a83.43,83.43,0,0,1-12.38-7.14A16.28,16.28,0,0,0,47.9,152Z"/><path class="cls-5" d="M94.48,12.16A7.12,7.12,0,0,0,94.86,20l1.7,2.3a43.49,43.49,0,0,0-4,6.64l-3-.39a7.12,7.12,0,0,0-3.76,13.59l2.63,1.15a42.79,42.79,0,0,0-.16,7.75l-2.8,1.17A7.12,7.12,0,0,0,89,65.89l2.86-.32a42.6,42.6,0,0,0,3.74,6.78l-1.85,2.42a7.12,7.12,0,0,0,9.88,10l2.31-1.7a41.79,41.79,0,0,0,6.64,4l-.39,3a7.12,7.12,0,0,0,13.58,3.76l1.15-2.63a42.82,42.82,0,0,0,7.75.16l1.17,2.8a7.12,7.12,0,0,0,13.65-3.53l-.32-2.86a45.2,45.2,0,0,0,6.78-3.74L158.36,86a7.13,7.13,0,0,0,9.17-.46A83,83,0,0,0,94.48,12.16Zm52.8,40.46A16.3,16.3,0,1,1,136.21,32.4,16.3,16.3,0,0,1,147.28,52.62Z"/><path class="cls-6" d="M122.92,20.75a28.65,28.65,0,1,0,36,36A83.43,83.43,0,0,0,122.92,20.75Zm20.5,30.74a12.28,12.28,0,1,1-8.34-15.23A12.28,12.28,0,0,1,143.42,51.49Z"/><path class="cls-7" d="M58.65,50.15A22.44,22.44,0,0,0,58.28,46l1.42-.78a3.79,3.79,0,0,0-2.66-7l-1.49.33a23.22,23.22,0,0,0-2.37-3.37L54,33.81a3.79,3.79,0,0,0-5.81-4.76l-1.13,1a22.35,22.35,0,0,0-3.74-1.74l0-1.62A3.79,3.79,0,0,0,36,25.52L35.51,27a23.27,23.27,0,0,0-4.11.36l-.78-1.41a3.79,3.79,0,0,0-7,2.65l.33,1.5a23.87,23.87,0,0,0-3.38,2.37l-1.38-.84a3.79,3.79,0,0,0-4.76,5.81l1,1.12a22.35,22.35,0,0,0-1.74,3.74l-1.62,0a3.79,3.79,0,0,0-1.21,7.41l1.46.46a22.44,22.44,0,0,0,.36,4.11L11.28,55a3.79,3.79,0,0,0,2.66,7l1.5-.33a23.16,23.16,0,0,0,2.36,3.37L17,66.46a3.79,3.79,0,0,0,5.81,4.75l1.13-1a24.06,24.06,0,0,0,3.74,1.74l0,1.62A3.79,3.79,0,0,0,35,74.75l.46-1.46a22.52,22.52,0,0,0,4.11-.37l.78,1.42a3.79,3.79,0,0,0,7-2.65l-.34-1.5a22.78,22.78,0,0,0,3.38-2.37l1.39.84a3.79,3.79,0,0,0,4.75-5.81l-1-1.12A22.85,22.85,0,0,0,57.27,58l1.62,0a3.79,3.79,0,0,0,1.21-7.4ZM44,51.65a8.68,8.68,0,1,1-7-10.06A8.69,8.69,0,0,1,44,51.65Z"/><path class="cls-8" d="M38.32,34.23A16.15,16.15,0,1,0,51.4,53,16.14,16.14,0,0,0,38.32,34.23Zm8.07,17.84a11.07,11.07,0,1,1-9-12.84A11.07,11.07,0,0,1,46.39,52.07Z"/><path class="cls-9" d="M148.67,147.9a11.27,11.27,0,1,0-16.26,14.87A82.91,82.91,0,0,1,115.19,172a29.49,29.49,0,0,1-2.25-3.37l-2,.44a4.92,4.92,0,0,1-3.44-9.11l1.84-1a28.67,28.67,0,0,1-.47-5.34L107,153a4.92,4.92,0,0,1,1.58-9.61l2.1,0a29.33,29.33,0,0,1,2.25-4.85l-1.34-1.46a4.92,4.92,0,0,1,6.16-7.54l1.81,1.09a30.12,30.12,0,0,1,4.37-3.07l-.43-1.94a4.92,4.92,0,0,1,9.11-3.45l1,1.84a29.43,29.43,0,0,1,5.33-.47l.6-1.89a4.92,4.92,0,0,1,9.61,1.57l0,2.1a30.17,30.17,0,0,1,4.85,2.25l1.46-1.34a4.92,4.92,0,0,1,6.42-.2A83.21,83.21,0,0,1,148.67,147.9Z"/><path class="cls-10" d="M153.82,141.06a83.74,83.74,0,0,1-5.15,6.84,11.27,11.27,0,1,0-16.26,14.87,83.82,83.82,0,0,1-7.12,4.43,19.45,19.45,0,1,1,28.53-26.14Z"/></svg>