<svg id="Layer_1" data-name="Layer 1" xmlns="http://www.w3.org/2000/svg" viewBox="0 0 170 180"><defs><style>.cls-1{fill:#edf4f2;}.cls-2{fill:#47e8c8;}.cls-3{fill:#fff;}.cls-4{fill:#ececeb;}.cls-5{fill:#2ed9b7;}.cls-6{fill:#00b576;}.cls-7{fill:#ffa900;}.cls-8{fill:#7c78ff;}</style></defs><title>projeto 8</title><path class="cls-1" d="M168,94.5a82.13,82.13,0,0,1-8.24,36c-.41.84-.83,1.67-1.27,2.5a82.62,82.62,0,0,1-5.82,9.43,81.73,81.73,0,0,1-7.21,8.75,82.6,82.6,0,0,1-84.39,22.16,81.73,81.73,0,0,1-12.87-5.21,82.69,82.69,0,0,1-22.66-17,81.73,81.73,0,0,1-7.21-8.75A82.62,82.62,0,0,1,12.51,133c-.44-.83-.86-1.66-1.27-2.51A82.51,82.51,0,0,1,131.34,25.9,82.36,82.36,0,0,1,168,94.5Z"/><path class="cls-2" d="M74.19,142.74,61.07,173.32a81.73,81.73,0,0,1-12.87-5.21l10.89-25.37Z"/><path class="cls-2" d="M122.8,168.11a82.51,82.51,0,0,1-12.87,5.21L96.8,142.74h15.11Z"/><path class="cls-3" d="M159.76,25.9V130.48c-.41.84-.83,1.67-1.27,2.5a82.62,82.62,0,0,1-5.82,9.43H18.33A82.62,82.62,0,0,1,12.51,133c-.44-.83-.86-1.66-1.27-2.51V25.9Z"/><rect class="cls-4" x="11.24" y="25.9" width="148.52" height="16.16"/><path class="cls-5" d="M164.65,21.92v9.3a4.44,4.44,0,0,1-4.44,4.44H10.79a4.44,4.44,0,0,1-4.44-4.44v-9.3a4.44,4.44,0,0,1,4.44-4.44H160.21A4.44,4.44,0,0,1,164.65,21.92Z"/><path class="cls-2" d="M164.65,21.92v4.25a4.44,4.44,0,0,1-4.44,4.44H10.79a4.44,4.44,0,0,1-4.44-4.44V21.92a4.44,4.44,0,0,1,4.44-4.44H160.21A4.44,4.44,0,0,1,164.65,21.92Z"/><path class="cls-2" d="M158.49,133c-1,1.84-2,3.64-3.11,5.39a82.09,82.09,0,0,1-9.92,12.79H25.54a82.09,82.09,0,0,1-9.92-12.79c-1.1-1.76-2.14-3.55-3.11-5.39Z"/><path class="cls-6" d="M58.16,112l5.48-5.48a3.37,3.37,0,1,0-4.77-4.76l-5.47,5.48-5.48-5.48a3.37,3.37,0,1,0-4.76,4.76L48.64,112l-5.48,5.48a3.37,3.37,0,0,0,4.76,4.76l5.48-5.48,5.47,5.48a3.37,3.37,0,0,0,4.77-4.76Z"/><path class="cls-7" d="M120.52,120.18A13.47,13.47,0,1,1,134,106.71,13.48,13.48,0,0,1,120.52,120.18Zm0-20.2a6.74,6.74,0,1,0,6.73,6.73A6.74,6.74,0,0,0,120.52,100Z"/><path class="cls-7" d="M59.58,71.45A13.47,13.47,0,1,1,73.05,58,13.48,13.48,0,0,1,59.58,71.45Zm0-20.2A6.74,6.74,0,1,0,66.31,58,6.74,6.74,0,0,0,59.58,51.25Z"/><path class="cls-8" d="M147.72,62.09l-9.83-9.84a1.75,1.75,0,0,0-3,1.24v2.6a3.75,3.75,0,0,1-3.64,3.76A81.24,81.24,0,0,0,85.43,75.11c-11.36,8.18-17,16.6-17.22,17a3.37,3.37,0,0,0,5.62,3.72A67.42,67.42,0,0,1,89.59,80.41a73.36,73.36,0,0,1,41.46-13.82,3.75,3.75,0,0,1,3.85,3.75v3.39a1.75,1.75,0,0,0,3,1.24l9.83-9.84A2.13,2.13,0,0,0,147.72,62.09Z"/><path class="cls-5" d="M158.49,133c-1,1.84-2,3.64-3.11,5.39H15.62c-1.1-1.76-2.14-3.55-3.11-5.39Z"/></svg>