<svg id="Layer_1" data-name="Layer 1" xmlns="http://www.w3.org/2000/svg" viewBox="0 0 170 180"><defs><style>.cls-1{fill:#fff;}.cls-2{fill:#ececeb;}.cls-3{fill:#ffa900;}.cls-4{fill:#726ffd;}.cls-5{fill:#ea9b00;}.cls-6{fill:#47e8c8;}.cls-7{fill:#7c78ff;}</style></defs><title>projeto 9</title><path class="cls-1" d="M168,95A83,83,0,0,1,2,95c0-1.64,0-3.27.14-4.88A83,83,0,0,1,168,95Z"/><path class="cls-2" d="M69.13,74.33v64.51H91.28l31.25,17.86L115,138.84h30.82a82.08,82.08,0,0,0,9.13-20.3V74.33Z"/><path class="cls-2" d="M86.13,25.61V90.12H64L32.73,108l7.52-17.86H2.14a83,83,0,0,1,37.3-64.51Z"/><path class="cls-3" d="M7.44,25.61H93.27V90.12H7.44Z"/><path class="cls-3" d="M49.08,86.09,39.87,108l40.32-23Z"/><path class="cls-4" d="M42.48,57.86a4.76,4.76,0,1,1-4.76-4.76A4.76,4.76,0,0,1,42.48,57.86Z"/><path class="cls-4" d="M55.11,57.86a4.76,4.76,0,1,1-4.76-4.76A4.76,4.76,0,0,1,55.11,57.86Z"/><path class="cls-4" d="M67.75,57.86A4.76,4.76,0,1,1,63,53.1,4.76,4.76,0,0,1,67.75,57.86Z"/><path class="cls-5" d="M73.74,74.33H93.27V90.12H73.74Z"/><path class="cls-6" d="M164.61,74.33v44.21a82.42,82.42,0,0,1-9.12,20.3H78.79V74.33Z"/><path class="cls-6" d="M123,134.81l9.21,21.89-40.32-23Z"/><path class="cls-7" d="M134.33,101.82a4.76,4.76,0,1,0,4.76,4.76A4.76,4.76,0,0,0,134.33,101.82Z"/><path class="cls-7" d="M121.7,101.82a4.76,4.76,0,1,0,4.76,4.76A4.76,4.76,0,0,0,121.7,101.82Z"/><path class="cls-7" d="M109.07,101.82a4.76,4.76,0,1,0,4.76,4.76A4.76,4.76,0,0,0,109.07,101.82Z"/></svg>