<?xml version="1.0" encoding="UTF-8"?>
<svg width="36px" height="36px" viewBox="0 0 36 36" version="1.1" xmlns="http://www.w3.org/2000/svg" xmlns:xlink="http://www.w3.org/1999/xlink">
    <!-- Generator: Sketch 52.2 (67145) - http://www.bohemiancoding.com/sketch -->
    <title>icone-bloco/atividade pratica</title>
    <desc>Created with Sketch.</desc>
    <g id="icone-bloco/atividade-pratica" stroke="none" stroke-width="1" fill="none" fill-rule="evenodd">
        <path d="M29.0933724,28.899 C27.0443724,25.487 22.8043724,19.936 22.8043724,18.477 C22.8043724,17.017 22.8023724,14.542 22.8023724,13.117 C22.8023724,11.693 22.8653724,10.932 23.5063724,10 L17.5043724,10 C18.1453724,10.932 18.2083724,11.693 18.2083724,13.117 C18.2083724,14.542 18.2063724,17.017 18.2063724,18.477 C18.2063724,19.936 13.9653724,25.487 11.9173724,28.899 C10.8433724,30.687 10.0353724,32.768 13.5643724,32.768 L27.4463724,32.768 C30.9753724,32.768 30.1673724,30.687 29.0933724,28.899" id="Fill-17" fill="#F5C921"></path>
        <path d="M23.7338237,23.4094187 C21.5348237,23.6394187 19.2948237,22.9544187 17.1208237,23.0024187 C16.0458237,24.6774187 14.6018237,26.7054187 13.7038237,28.1984187 C12.8798237,29.5714187 12.2598237,31.1684187 14.9678237,31.1684187 L25.6228237,31.1684187 C28.3308237,31.1684187 27.7108237,29.5714187 26.8868237,28.1984187 C26.0608237,26.8244187 24.7718237,24.9974187 23.7338237,23.4094187" id="Fill-19" fill="#D9D9D9"></path>
        <path d="M20.659,26.829 C20.659,26.371 20.287,26 19.829,26 C19.371,26 19,26.371 19,26.829 C19,27.288 19.371,27.659 19.829,27.659 C20.287,27.659 20.659,27.288 20.659,26.829" id="Fill-21" fill="#C7C4C4"></path>
        <path d="M21.659,29.83 C21.659,29.372 21.287,29 20.829,29 C20.371,29 20,29.372 20,29.83 C20,30.289 20.371,30.66 20.829,30.66 C21.287,30.66 21.659,30.289 21.659,29.83" id="Fill-23" fill="#C7C4C4"></path>
        <path d="M21.9325,27.5005 C21.9325,27.2605 21.7385,27.0675 21.4995,27.0675 C21.2605,27.0675 21.0675,27.2605 21.0675,27.5005 C21.0675,27.7395 21.2605,27.9325 21.4995,27.9325 C21.7385,27.9325 21.9325,27.7395 21.9325,27.5005" id="Fill-25" fill="#C7C4C4"></path>
        <path d="M20.9325,24.4995 C20.9325,24.2615 20.7385,24.0675 20.4995,24.0675 C20.2605,24.0675 20.0675,24.2615 20.0675,24.4995 C20.0675,24.7395 20.2605,24.9325 20.4995,24.9325 C20.7385,24.9325 20.9325,24.7395 20.9325,24.4995" id="Fill-27" fill="#C7C4C4"></path>
        <path d="M19.9,6.449 C19.9,5.648 19.25,5 18.449,5 C17.649,5 17,5.648 17,6.449 C17,7.251 17.649,7.9 18.449,7.9 C19.25,7.9 19.9,7.251 19.9,6.449" id="Fill-29" fill="#D9D9D9"></path>
        <path d="M23.9,7.45 C23.9,6.649 23.249,6 22.45,6 C21.649,6 21,6.649 21,7.45 C21,8.252 21.649,8.901 22.45,8.901 C23.249,8.901 23.9,8.252 23.9,7.45" id="Fill-31" fill="#D9D9D9"></path>
        <path d="M23.512,3.757 C23.512,3.338 23.173,3 22.755,3 C22.338,3 22,3.338 22,3.757 C22,4.175 22.338,4.512 22.755,4.512 C23.173,4.512 23.512,4.175 23.512,3.757" id="Fill-33" fill="#D9D9D9"></path>
        <path d="M20.513,2.756 C20.513,2.339 20.174,2 19.757,2 C19.338,2 19,2.339 19,2.756 C19,3.175 19.338,3.512 19.757,3.512 C20.174,3.512 20.513,3.175 20.513,2.756" id="Fill-35" fill="#D9D9D9"></path>
        <path d="M11.782,4.89 C11.782,4.4 11.382,4 10.891,4 C10.398,4 10,4.4 10,4.89 C10,5.383 10.398,5.781 10.891,5.781 C11.382,5.781 11.782,5.383 11.782,4.89" id="Fill-37" fill="#D9D9D9"></path>
        <path d="M8.782,4.89 C8.782,4.4 8.382,4 7.891,4 C7.398,4 7,4.4 7,4.89 C7,5.383 7.398,5.781 7.891,5.781 C8.382,5.781 8.782,5.383 8.782,4.89" id="Fill-39" fill="#D9D9D9"></path>
        <path d="M12.836,22.842 L13.769,22.632 C15.12,22.329 15.969,20.987 15.665,19.636 L12.825,7 L7,8.309 L9.84,20.945 C10.144,22.297 11.485,23.146 12.836,22.842" id="Fill-41" fill="#F0820A"></path>
        <path d="M6.70784763,8.74079622 L13.4888476,7.21679622 C13.7908476,7.14879622 13.9808476,6.84879622 13.9128476,6.54679622 L13.8888476,6.43779622 C13.8208476,6.13579622 13.5208476,5.94579622 13.2188476,6.01379622 L6.43684763,7.53779622 C6.13484763,7.60579622 5.94584763,7.90579622 6.01384763,8.20779622 L6.03784763,8.31679622 C6.10584763,8.61979622 6.40584763,8.80879622 6.70784763,8.74079622" id="Fill-43" fill="#F0820A"></path>
        <path d="M13.285,21.682 L12.694,21.815 C11.68,22.043 10.674,21.406 10.447,20.393 L9,13.957 L13.261,13 L14.707,19.435 C14.935,20.448 14.298,21.454 13.285,21.682" id="Fill-45" fill="#D9D9D9"></path>
        <polygon id="Fill-48" fill="#F0820A" points="14.369 15.542 9.501 15.729 8 9.051 12.674 8"></polygon>
    </g>
</svg>