<?xml version="1.0" encoding="UTF-8"?>
<svg width="36px" height="36px" viewBox="0 0 36 36" version="1.1" xmlns="http://www.w3.org/2000/svg" xmlns:xlink="http://www.w3.org/1999/xlink">
    <!-- Generator: Sketch 52.2 (67145) - http://www.bohemiancoding.com/sketch -->
    <title>icone-bloco/calcule copy</title>
    <desc>Created with Sketch.</desc>
    <g id="icone-bloco/calcule-copy" stroke="none" stroke-width="1" fill="none" fill-rule="evenodd">
        <g id="Group" transform="translate(8.000000, 5.000000)">
            <path d="M17.766,26.554 L3.321,26.554 C1.494,26.554 -2.27373675e-13,25.059 -2.27373675e-13,23.233 L-2.27373675e-13,3.321 C-2.27373675e-13,1.494 1.494,1.77635684e-15 3.321,1.77635684e-15 L17.766,1.77635684e-15 C19.593,1.77635684e-15 21.087,1.494 21.087,3.321 L21.087,23.233 C21.087,25.059 19.593,26.554 17.766,26.554" id="Fill-175" fill="#F5C921"></path>
            <path d="M18.549,7.772 L2.827,7.772 C2.37,7.772 2,7.401 2,6.944 L2,2.828 C2,2.37 2.37,2 2.827,2 L18.549,2 C19.006,2 19.377,2.37 19.377,2.828 L19.377,6.944 C19.377,7.401 19.006,7.772 18.549,7.772" id="Fill-177" fill="#D9D9D9"></path>
            <path d="M10,7.772 L14.775,2 L18.149,2 C18.232,2.01 18.545,2.004 18.808,2.318 C18.981,2.526 18.981,3.039 18.98,3.495 L18.98,7.363 C18.98,7.589 18.799,7.772 18.576,7.772 L17.728,7.772 L10,7.772 Z" id="Fill-179" fill="#C7C4C4"></path>
            <path d="M4.794,12.051 L2.256,12.051 C2.114,12.051 2,11.936 2,11.795 L2,9.257 C2,9.115 2.114,9 2.256,9 L4.794,9 C4.936,9 5.05,9.115 5.05,9.257 L5.05,11.795 C5.05,11.936 4.936,12.051 4.794,12.051" id="Fill-181" fill="#F08208"></path>
            <path d="M9.794,12.051 L7.256,12.051 C7.114,12.051 7,11.936 7,11.795 L7,9.257 C7,9.115 7.114,9 7.256,9 L9.794,9 C9.936,9 10.05,9.115 10.05,9.257 L10.05,11.795 C10.05,11.936 9.936,12.051 9.794,12.051" id="Fill-183" fill="#F08208"></path>
            <path d="M13.794,12.051 L11.255,12.051 C11.114,12.051 11,11.936 11,11.795 L11,9.257 C11,9.115 11.114,9 11.255,9 L13.794,9 C13.936,9 14.05,9.115 14.05,9.257 L14.05,11.795 C14.05,11.936 13.936,12.051 13.794,12.051" id="Fill-185" fill="#F08208"></path>
            <path d="M18.794,12.051 L16.256,12.051 C16.114,12.051 16,11.936 16,11.795 L16,9.257 C16,9.115 16.114,9 16.256,9 L18.794,9 C18.936,9 19.05,9.115 19.05,9.257 L19.05,11.795 C19.05,11.936 18.936,12.051 18.794,12.051" id="Fill-187" fill="#F08208"></path>
            <path d="M4.794,17.051 L2.256,17.051 C2.114,17.051 2,16.936 2,16.795 L2,14.257 C2,14.115 2.114,14 2.256,14 L4.794,14 C4.936,14 5.05,14.115 5.05,14.257 L5.05,16.795 C5.05,16.936 4.936,17.051 4.794,17.051" id="Fill-189" fill="#F08208"></path>
            <path d="M9.794,17.051 L7.256,17.051 C7.114,17.051 7,16.936 7,16.795 L7,14.257 C7,14.115 7.114,14 7.256,14 L9.794,14 C9.936,14 10.05,14.115 10.05,14.257 L10.05,16.795 C10.05,16.936 9.936,17.051 9.794,17.051" id="Fill-191" fill="#F08208"></path>
            <path d="M13.794,17.051 L11.255,17.051 C11.114,17.051 11,16.936 11,16.795 L11,14.257 C11,14.115 11.114,14 11.255,14 L13.794,14 C13.936,14 14.05,14.115 14.05,14.257 L14.05,16.795 C14.05,16.936 13.936,17.051 13.794,17.051" id="Fill-193" fill="#F08208"></path>
            <path d="M4.794,21.051 L2.256,21.051 C2.114,21.051 2,20.936 2,20.795 L2,18.257 C2,18.115 2.114,18 2.256,18 L4.794,18 C4.936,18 5.05,18.115 5.05,18.257 L5.05,20.795 C5.05,20.936 4.936,21.051 4.794,21.051" id="Fill-195" fill="#F08208"></path>
            <path d="M9.794,21.051 L7.256,21.051 C7.114,21.051 7,20.936 7,20.795 L7,18.257 C7,18.115 7.114,18 7.256,18 L9.794,18 C9.936,18 10.05,18.115 10.05,18.257 L10.05,20.795 C10.05,20.936 9.936,21.051 9.794,21.051" id="Fill-197" fill="#F08208"></path>
            <path d="M13.794,21.051 L11.256,21.051 C11.114,21.051 11,20.936 11,20.795 L11,18.257 C11,18.115 11.114,18 11.256,18 L13.794,18 C13.936,18 14.05,18.115 14.05,18.257 L14.05,20.795 C14.05,20.936 13.936,21.051 13.794,21.051" id="Fill-199" fill="#F08208"></path>
            <path d="M4.794,25.051 L2.256,25.051 C2.114,25.051 2,24.936 2,24.795 L2,22.257 C2,22.115 2.114,22 2.256,22 L4.794,22 C4.936,22 5.05,22.115 5.05,22.257 L5.05,24.795 C5.05,24.936 4.936,25.051 4.794,25.051" id="Fill-201" fill="#F08208"></path>
            <path d="M9.794,25.051 L7.256,25.051 C7.114,25.051 7,24.936 7,24.795 L7,22.257 C7,22.115 7.114,22 7.256,22 L9.794,22 C9.936,22 10.05,22.115 10.05,22.257 L10.05,24.795 C10.05,24.936 9.936,25.051 9.794,25.051" id="Fill-203" fill="#F08208"></path>
            <path d="M13.794,25.051 L11.256,25.051 C11.114,25.051 11,24.936 11,24.795 L11,22.257 C11,22.115 11.114,22 11.256,22 L13.794,22 C13.936,22 14.05,22.115 14.05,22.257 L14.05,24.795 C14.05,24.936 13.936,25.051 13.794,25.051" id="Fill-205" fill="#F08208"></path>
            <path d="M18.794,17.051 L16.256,17.051 C16.114,17.051 16,16.936 16,16.795 L16,14.257 C16,14.115 16.114,14 16.256,14 L18.794,14 C18.936,14 19.05,14.115 19.05,14.257 L19.05,16.795 C19.05,16.936 18.936,17.051 18.794,17.051" id="Fill-207" fill="#F08208"></path>
            <path d="M18.659,25.151 L16.393,25.151 C16.176,25.151 16,24.976 16,24.759 L16,18.393 C16,18.176 16.176,18 16.393,18 L18.659,18 C18.875,18 19.051,18.176 19.051,18.393 L19.051,24.759 C19.051,24.976 18.875,25.151 18.659,25.151" id="Fill-209" fill="#F08208"></path>
        </g>
    </g>
</svg>