<?xml version="1.0" encoding="UTF-8"?>
<svg width="36px" height="36px" viewBox="0 0 36 36" version="1.1" xmlns="http://www.w3.org/2000/svg" xmlns:xlink="http://www.w3.org/1999/xlink">
    <!-- Generator: Sketch 52.2 (67145) - http://www.bohemiancoding.com/sketch -->
    <title>icone-bloco/fique-atento copy</title>
    <desc>Created with Sketch.</desc>
    <g id="icone-bloco/fique-atento-copy" stroke="none" stroke-width="1" fill="none" fill-rule="evenodd">
        <path d="M16.769,23.217 L15.136,9.797 C15.091,9.457 15.057,9.148 15.034,8.87 C15.011,8.592 15,8.368 15,8.198 C15,7.2 15.286,6.418 15.859,5.851 C16.432,5.284 17.223,5 18.232,5 C19.252,5 20.054,5.284 20.639,5.851 C21.222,6.418 21.515,7.2 21.515,8.198 C21.515,8.368 21.503,8.592 21.48,8.87 C21.457,9.148 21.424,9.457 21.378,9.797 L19.694,23.217 L16.769,23.217 Z M15.306,28.779 C15.306,27.996 15.595,27.314 16.174,26.73 C16.752,26.146 17.438,25.854 18.232,25.854 C19.048,25.854 19.74,26.137 20.307,26.704 C20.873,27.271 21.157,27.962 21.157,28.779 C21.157,29.584 20.871,30.274 20.298,30.846 C19.725,31.418 19.037,31.704 18.232,31.704 C17.449,31.704 16.766,31.415 16.182,30.837 C15.598,30.259 15.306,29.573 15.306,28.779 Z" id="Fill-94" fill="#F0820A"></path>
        <path d="M16.769,23.216 L15.136,9.797 C15.091,9.456 15.057,9.148 15.034,8.869 C15.011,8.592 15,8.367 15,8.197 C15,7.2 15.286,6.417 15.859,5.851 C16.432,5.283 17.223,5 18.232,5 C19.252,5 20.054,5.283 20.639,5.851 C21.222,6.417 21.515,7.2 21.515,8.197 C21.515,8.367 21.503,8.592 21.48,8.869 C21.457,9.148 21.424,9.456 21.378,9.797 L19.695,23.216 L16.769,23.216 Z M15.306,28.778 C15.306,27.996 15.595,27.314 16.174,26.729 C16.752,26.145 17.438,25.853 18.232,25.853 C19.048,25.853 19.74,26.137 20.307,26.703 C20.874,27.271 21.157,27.962 21.157,28.778 C21.157,29.584 20.871,30.273 20.298,30.845 C19.726,31.418 19.037,31.704 18.232,31.704 C17.449,31.704 16.766,31.415 16.182,30.836 C15.598,30.259 15.306,29.572 15.306,28.778 Z" id="Fill-96" fill="#F5C91F"></path>
    </g>
</svg>