<?xml version="1.0" encoding="UTF-8"?>
<svg width="36px" height="36px" viewBox="0 0 36 36" version="1.1" xmlns="http://www.w3.org/2000/svg" xmlns:xlink="http://www.w3.org/1999/xlink">
    <!-- Generator: Sketch 52.2 (67145) - http://www.bohemiancoding.com/sketch -->
    <title>icone-bloco/lab de informatica copy</title>
    <desc>Created with Sketch.</desc>
    <g id="icone-bloco/lab-de-informatica-copy" stroke="none" stroke-width="1" fill="none" fill-rule="evenodd">
        <path d="M22.0035845,8.84987784 C22.0055845,7.67487784 22.6245845,7.02587784 23.7755845,7.01287784 C25.3845845,6.99587784 26.9945845,6.99587784 28.6045845,7.01187784 C29.7445845,7.02487784 30.4035845,7.69987784 30.4045845,8.83487784 C30.4095845,14.8708778 30.4095845,22.5298778 30.4055845,28.5648778 C30.4045845,29.7198778 29.7055845,30.4128778 28.5465845,30.4188778 C27.0325845,30.4278778 25.5175845,30.4218778 24.0035845,30.4208778 C22.6295845,30.4198778 22.0035845,29.8018778 22.0015845,28.4368778 C21.9985845,25.4548778 22.0005845,22.4728778 22.0015845,19.4908778 C22.0015845,16.4848778 21.9975845,11.8558778 22.0035845,8.84987784 Z M23.6725845,11.9258778 L28.6685845,11.9258778 L28.6685845,10.3358778 L23.6725845,10.3358778 L23.6725845,11.9258778 Z M23.6855845,15.2888778 L28.6785845,15.2888778 L28.6785845,13.6788778 L23.6855845,13.6788778 L23.6855845,15.2888778 Z M28.7035845,24.5658778 C28.7105845,24.0258778 28.3885845,23.7308778 27.8735845,23.7218778 C27.3855845,23.7128778 27.0705845,24.0108778 27.0435845,24.4968778 C27.0125845,25.0228778 27.3185845,25.3168778 27.8725845,25.3848778 C28.3445845,25.3388778 28.6965845,25.1128778 28.7035845,24.5658778 Z" id="Fill-67" fill="#F5C91F"></path>
        <path d="M21.4485464,23.43575 C16.5705464,23.43875 11.6925464,23.44875 6.8155464,23.43575 C5.6205464,23.43175 5.0035464,22.76875 5.0025464,21.55575 C4.9985464,16.72575 4.9995464,11.89475 5.0035464,7.06475 C5.0045464,5.61175 5.6155464,5.00375 7.0745464,5.00275 C13.5865464,5.00175 20.0975464,5.00175 26.6095464,5.00275 C26.7755464,5.00275 26.9435464,4.99175 27.1065464,5.01375 C27.9685464,5.13275 28.5665464,5.85175 28.4625464,6.72175 L6.7155464,6.72175 L6.7155464,20.13575 L21.8025464,20.13575 L21.8025464,23.39175 C21.6315464,23.41475 21.5395464,23.43575 21.4485464,23.43575 M15.9435464,21.78575 C15.9455464,22.30875 16.3015464,22.61875 16.8135464,22.60575 C17.2885464,22.59375 17.6115464,22.29775 17.6175464,21.79675 C17.6245464,21.26475 17.3015464,20.99275 16.7905464,20.91675 C16.2725464,20.98175 15.9415464,21.27275 15.9435464,21.78575" id="Fill-69" fill="#F08208"></path>
        <path d="M14.689186,25 C14.675186,25.236 14.634186,25.427 14.660186,25.607 C14.751186,26.24 14.604186,26.635 13.895186,26.833 C13.290186,27.002 12.978186,27.532 13.001186,28.239 L21.288186,28.239 C21.251186,27.276 20.950186,26.952 19.668186,26.538 L19.668186,25.823 L19.668186,25 L14.689186,25 Z" id="Fill-71" fill="#F08208"></path>
    </g>
</svg>