<?xml version="1.0" encoding="UTF-8"?>
<svg width="36px" height="36px" viewBox="0 0 36 36" version="1.1" xmlns="http://www.w3.org/2000/svg" xmlns:xlink="http://www.w3.org/1999/xlink">
    <!-- Generator: Sketch 52.2 (67145) - http://www.bohemiancoding.com/sketch -->
    <title>icone-bloco/musica copy</title>
    <desc>Created with Sketch.</desc>
    <g id="icone-bloco/musica-copy" stroke="none" stroke-width="1" fill="none" fill-rule="evenodd">
        <g id="Group" transform="translate(5.000000, 3.000000)">
            <path d="M4.03266508,18.144002 C3.53605794,16.4757877 3.31909365,14.9416092 3.31909365,13.5482163 C3.32584365,10.2715734 4.4974508,7.76443058 6.23991508,6.01907344 C7.98527223,4.27853772 10.3313794,3.32196629 12.7122008,3.31907344 L12.7131651,3.31907344 L12.7314865,3.31907344 C14.3794508,3.32003772 15.7564508,3.59871629 16.9000937,4.07796629 C18.6126651,4.80214487 19.8382722,5.95735915 20.7061294,7.53107344 C21.5672365,9.10382344 22.0368437,11.1191806 22.0358794,13.4421449 C22.0368437,15.0717877 21.8054151,16.8470377 21.3348437,18.7013592 C21.1082365,19.5894663 21.6463079,20.493002 22.5344151,20.7186449 C23.4234865,20.9442877 24.3260579,20.4071806 24.5517008,19.5181092 C25.0830222,17.4265734 25.3559151,15.383252 25.3559151,13.4421449 C25.3559151,9.76628772 24.3742722,6.40478772 22.2190937,3.91982344 C21.1458437,2.68264487 19.7833079,1.68557344 18.1835579,1.01635915 C16.5838079,0.345216295 14.7545579,-0.000962276726 12.7314865,2.0089879e-06 L12.7064151,2.0089879e-06 L12.7073794,2.0089879e-06 C9.44423651,0.00482343756 6.26498651,1.30853772 3.8967008,3.66814487 C1.52455794,6.02293058 -0.00672777476,9.45578772 2.22252409e-05,13.5482163 C2.22252409e-05,15.2868234 0.270986511,17.1421092 0.850522225,19.0909306 C1.11184365,19.9693949 2.03659365,20.4698592 2.91505794,20.2085377 C3.79352223,19.9472163 4.29398651,19.0224663 4.03266508,18.144002" id="Fill-385" fill="#94C226"></path>
            <path d="M2.58042857,25.3202143 C1.161,25.3202143 2.84217094e-13,24.1592143 2.84217094e-13,22.74075 L2.84217094e-13,18.9732857 C2.84217094e-13,17.5538571 1.161,16.3928571 2.58042857,16.3928571 C3.99985714,16.3928571 5.15989286,17.5538571 5.15989286,18.9732857 L5.15989286,22.74075 C5.15989286,24.1592143 3.99985714,25.3202143 2.58042857,25.3202143" id="Fill-387" fill="#94C226"></path>
            <path d="M5.18110714,26.8418571 C3.92175,26.8418571 2.89285714,25.812 2.89285714,24.5536071 L2.89285714,17.7177857 C2.89285714,16.4584286 3.92175,15.4285714 5.18110714,15.4285714 C6.4395,15.4285714 7.46935714,16.4584286 7.46935714,17.7177857 L7.46935714,24.5536071 C7.46935714,25.812 6.4395,26.8418571 5.18110714,26.8418571" id="Fill-389" fill="#D9D9D9"></path>
            <path d="M5.86786783,5.77222141 C5.97876068,5.66325712 6.07808211,5.55525712 6.21018925,5.41929284 C6.6595464,4.95450712 7.43483211,4.19947141 8.6035464,3.55147141 C9.77322497,2.90636427 11.3180107,2.36925712 13.3565107,2.36732855 L13.613975,2.37022141 C16.1770464,2.4319357 17.8134393,3.18889998 18.9175464,3.97382855 C19.4681535,4.36822141 19.8808678,4.7741857 20.1904035,5.12132855 C20.3456535,5.29489998 20.4739035,5.45400712 20.5847964,5.59382855 C20.6985821,5.73557855 20.7834393,5.85032855 20.8981893,5.98147141 C21.329225,6.47229284 22.0765464,6.52147141 22.5683321,6.0904357 C23.0591535,5.65939998 23.1083321,4.91111427 22.6772964,4.42029284 C22.6570464,4.39907855 22.5615821,4.27757855 22.4400821,4.12232855 C21.9994035,3.5659357 21.1411893,2.54089998 19.7207964,1.66725712 C18.3013678,0.786864268 16.3091535,0.0597928392 13.6670107,0.00386426776 C13.5628678,0.00193569634 13.458725,7.12490769e-06 13.3565107,7.12490769e-06 C10.5379035,-0.00288573224 8.36826068,0.875578553 6.86011783,1.83504284 C6.10411783,2.31429284 5.50818925,2.81186427 5.06268925,3.2284357 C4.83993925,3.43575712 4.65383211,3.62282855 4.50822497,3.77422141 C4.3645464,3.92272141 4.25268925,4.04132855 4.21315354,4.07989998 C3.74547497,4.53697141 3.73776068,5.28622141 4.19483211,5.7529357 C4.65093925,6.22061427 5.40018925,6.22929284 5.86786783,5.77222141" id="Fill-391" fill="#F5C91F"></path>
            <path d="M23.7947143,25.3202143 C22.3752857,25.3202143 21.2142857,24.1592143 21.2142857,22.74075 L21.2142857,18.9732857 C21.2142857,17.5538571 22.3752857,16.3928571 23.7947143,16.3928571 C25.2131786,16.3928571 26.3741786,17.5538571 26.3741786,18.9732857 L26.3741786,22.74075 C26.3741786,24.1592143 25.2131786,25.3202143 23.7947143,25.3202143" id="Fill-393" fill="#94C226"></path>
            <path d="M20.6096786,26.8418571 C19.3512857,26.8418571 18.3214286,25.812 18.3214286,24.5536071 L18.3214286,17.7177857 C18.3214286,16.4584286 19.3512857,15.4285714 20.6096786,15.4285714 C21.8680714,15.4285714 22.8979286,16.4584286 22.8979286,17.7177857 L22.8979286,24.5536071 C22.8979286,25.812 21.8680714,26.8418571 20.6096786,26.8418571" id="Fill-395" fill="#D9D9D9"></path>
        </g>
    </g>
</svg>