<?xml version="1.0" encoding="UTF-8"?>
<svg width="36px" height="36px" viewBox="0 0 36 36" version="1.1" xmlns="http://www.w3.org/2000/svg" xmlns:xlink="http://www.w3.org/1999/xlink">
    <!-- Generator: Sketch 52.2 (67145) - http://www.bohemiancoding.com/sketch -->
    <title>icone-bloco/ouca o professor copy</title>
    <desc>Created with Sketch.</desc>
    <g id="icone-bloco/ouca-o-professor-copy" stroke="none" stroke-width="1" fill="none" fill-rule="evenodd">
        <path d="M31.716,15.7718454 C30.241,16.6178454 28.854,17.4158454 27.466,18.2108454 C24.714,19.7888454 21.953,21.3498454 19.219,22.9568454 C18.786,23.2108454 18.508,23.1198454 18.145,22.9048454 C15.163,21.1428454 12.174,19.3918454 9.188,17.6378454 C9.08,17.5748454 8.968,17.5178454 8.732,17.3898454 C8.732,18.1308454 8.73,18.7928454 8.733,19.4528454 C8.735,19.8088454 8.734,20.1258454 9.018,20.4528454 C9.221,20.6858454 9.203,21.1338454 9.234,21.4908454 C9.357,22.9368454 9.461,24.3848454 9.574,25.8558454 L7.261,25.8558454 C7.332,24.6428454 7.399,23.4648454 7.469,22.2878454 C7.499,21.7798454 7.534,21.2718454 7.571,20.7638454 L7.621,20.5558454 C8.405,19.4588454 7.84,18.2198454 7.973,17.0558454 C7.985,16.9528454 7.754,16.7918454 7.608,16.7038454 C6.769,16.1978454 5.922,15.7068454 5,15.1638454 C6.328,14.3968454 7.584,13.6688454 8.841,12.9458454 C11.621,11.3448454 14.408,9.75684543 17.174,8.13184543 C17.552,7.91084543 17.803,7.99784543 18.116,8.17184543 C22.19,10.4498454 26.264,12.7228454 30.339,14.9978454 C30.765,15.2358454 31.191,15.4758454 31.716,15.7718454 M8.143,17.0098454 L8.147,17.2388454 C8.558,17.2698454 8.992,17.4028454 9.376,17.3168454 C11.31,16.8808454 13.232,16.3888454 15.157,15.9158454 C16.006,15.7078454 16.857,15.5068454 17.699,15.2738454 C17.828,15.2388454 17.912,15.0418454 18.018,14.9188454 C17.868,14.8498454 17.721,14.7688454 17.566,14.7168454 L17.357,14.7668454 C15.252,15.2748454 13.147,15.7798454 11.043,16.2908454 C10.075,16.5248454 9.11,16.7698454 8.143,17.0098454" id="Fill-117" fill="#94C226"></path>
        <path d="M25.2184031,20.091 C25.3344031,20.972 25.4844031,21.797 25.5414031,22.629 C25.6134031,23.68 25.0764031,24.477 24.3074031,25.13 C23.0844031,26.169 21.6164031,26.654 20.0664031,26.879 C17.8614031,27.199 15.6824031,27.033 13.6714031,26.017 C12.8964031,25.626 12.2184031,25.002 11.5824031,24.394 C11.1284031,23.96 10.9404031,23.326 11.0164031,22.678 C11.1194031,21.815 11.2644031,20.957 11.4054031,20 C11.6314031,20.114 11.8034031,20.189 11.9624031,20.282 C13.9434031,21.445 15.9274031,22.605 17.8984031,23.786 C18.2094031,23.973 18.4284031,23.962 18.7364031,23.782 C20.7994031,22.578 22.8744031,21.395 24.9464031,20.206 C25.0074031,20.171 25.0764031,20.151 25.2184031,20.091" id="Fill-119" fill="#94C226"></path>
    </g>
</svg>