<?xml version="1.0" encoding="UTF-8"?>
<svg width="36px" height="36px" viewBox="0 0 36 36" version="1.1" xmlns="http://www.w3.org/2000/svg" xmlns:xlink="http://www.w3.org/1999/xlink">
    <!-- Generator: Sketch 52.2 (67145) - http://www.bohemiancoding.com/sketch -->
    <title>icone-bloco/para saber mais copy</title>
    <desc>Created with Sketch.</desc>
    <g id="icone-bloco/para-saber-mais-copy" stroke="none" stroke-width="1" fill="none" fill-rule="evenodd">
        <path d="M21.072,26 C21.013,26.394 20.959,26.762 20.901,27.154 C20.755,27.161 20.619,27.173 20.483,27.173 C18.557,27.174 16.631,27.168 14.705,27.179 C14.369,27.181 14.141,27.15 14.146,26.729 C14.149,26.5 14.057,26.27 14,26 L21.072,26 Z" id="Fill-273" fill="#00B3BA"></path>
        <path d="M21.206,29 C20.303,30.29 19.066,30.607 17.697,30.505 C16.616,30.424 15.647,30.045 15,29 L21.206,29 Z" id="Fill-275" fill="#00B3BA"></path>
        <path d="M15,27 L21.625,27 C21.625,27.228 21.648,27.46 21.618,27.686 C21.589,27.908 21.475,28.042 21.197,28.04 C19.283,28.027 17.368,28.03 15.454,28.039 C15.211,28.04 15.082,27.948 15.053,27.722 C15.025,27.49 15.018,27.257 15,27" id="Fill-277" fill="#00B3BA"></path>
        <path d="M17.0060592,7.33532085 C17.0060592,6.85932085 16.9950592,6.38432085 17.0090592,5.90932085 C17.0260592,5.34132085 17.3180592,5.01132085 17.7830592,5.00032085 C18.2700592,4.98832085 18.5860592,5.31332085 18.5980592,5.90832085 C18.6170592,6.87232085 18.6150592,7.83732085 18.5960592,8.80032085 C18.5860592,9.31832085 18.2480592,9.65632085 17.8070592,9.65832085 C17.3700592,9.65932085 17.0300592,9.31332085 17.0100592,8.80232085 C16.9900592,8.31432085 17.0060592,7.82432085 17.0060592,7.33532085" id="Fill-279" fill="#FFFFFF"></path>
        <path d="M25.7119428,7.78763957 C25.6079428,7.99063957 25.5419428,8.22563957 25.3949428,8.39063957 C24.7559428,9.11163957 24.0999428,9.81763957 23.4379428,10.5186396 C23.0769428,10.9006396 22.5789428,10.9286396 22.2489428,10.6116396 C21.9079428,10.2856396 21.9169428,9.81363957 22.2779428,9.42063957 C22.9299428,8.71063957 23.5849428,8.00363957 24.2399428,7.29663957 C24.4909428,7.02563957 24.7909428,6.92763957 25.1469428,7.05563957 C25.4719428,7.17263957 25.6359428,7.40963957 25.7119428,7.78763957" id="Fill-281" fill="#FFFFFF"></path>
        <path d="M29.4545116,13.2245544 C29.2615116,13.3445544 29.0825116,13.5115544 28.8725116,13.5775544 C27.9525116,13.8655544 27.0265116,14.1315544 26.0975116,14.3905544 C25.5915116,14.5325544 25.1505116,14.2985544 25.0305116,13.8565544 C24.9085116,13.4015544 25.1585116,13.0015544 25.6705116,12.8515544 C26.5955116,12.5795544 27.5205116,12.3125544 28.4465116,12.0445544 C28.8015116,11.9415544 29.1095116,12.0125544 29.3485116,12.3055544 C29.5665116,12.5735544 29.5845116,12.8615544 29.4545116,13.2245544" id="Fill-283" fill="#FFFFFF"></path>
        <path d="M10.6753783,14.2159825 C10.3633783,14.1279825 10.1343783,14.1079825 9.95337834,14.0039825 C9.10537834,13.5179825 8.26737834,13.0129825 7.43237834,12.5049825 C7.01137834,12.2489825 6.88337834,11.7709825 7.11237834,11.3909825 C7.35137834,10.9939825 7.80237834,10.8809825 8.24237834,11.1369825 C9.10037834,11.6359825 9.95037834,12.1479825 10.7993783,12.6599825 C11.1163783,12.8509825 11.3073783,13.1469825 11.1793783,13.5019825 C11.0853783,13.7589825 10.8583783,13.9659825 10.6753783,14.2159825" id="Fill-285" fill="#FFFFFF"></path>
        <path d="M13.6513168,11.0713956 C13.3893168,10.8803956 13.1813168,10.7813956 13.0483168,10.6213956 C12.4223168,9.87139555 11.8113168,9.10739555 11.2043168,8.34039555 C10.8973168,7.95339555 10.9443168,7.46139555 11.2913168,7.18439555 C11.6523168,6.89539555 12.1143168,6.94539555 12.4393168,7.33939555 C13.0703168,8.10439555 13.6893168,8.88039555 14.3083168,9.65439555 C14.5393168,9.94439555 14.6153168,10.2873956 14.3713168,10.5763956 C14.1943168,10.7843956 13.9093168,10.9003956 13.6513168,11.0713956" id="Fill-287" fill="#FFFFFF"></path>
        <path d="M27.2882963,19.569128 C26.7852963,19.568128 26.2832963,19.577128 25.7802963,19.566128 C25.2982963,19.555128 25.0122963,19.273128 25.0002963,18.824128 C24.9892963,18.363128 25.2852963,18.020128 25.7652963,18.012128 C26.7982963,17.995128 27.8312963,17.997128 28.8642963,18.011128 C29.3042963,18.018128 29.6402963,18.380128 29.6422963,18.788128 C29.6452963,19.234128 29.3252963,19.555128 28.8382963,19.567128 C28.3212963,19.579128 27.8052963,19.569128 27.2882963,19.569128" id="Fill-289" fill="#FFFFFF"></path>
        <path d="M8.32218012,19.5676299 C7.82018012,19.5686299 7.31818012,19.5746299 6.81618012,19.5666299 C6.30818012,19.5576299 6.01118012,19.2736299 6.00018012,18.8106299 C5.99118012,18.3486299 6.32018012,18.0126299 6.82518012,18.0076299 C7.81418012,17.9976299 8.80418012,17.9976299 9.79518012,18.0066299 C10.3101801,18.0116299 10.6261801,18.3266299 10.6261801,18.7986299 C10.6261801,19.2796299 10.3241801,19.5606299 9.78618012,19.5656299 C9.29818012,19.5706299 8.81018012,19.5666299 8.32218012,19.5676299" id="Fill-291" fill="#FFFFFF"></path>
        <path d="M14.012294,25.289 C14.012294,25.289 13.262294,21.279 12.804294,20.162 C9.86029403,12.968 15.773294,11 18.101294,11 C22.901294,11 24.840294,16.155 22.653294,20.162 C21.628294,22.039 21.467294,25.289 21.467294,25.289 L14.012294,25.289 Z" id="Fill-293" fill="#F5C91F"></path>
    </g>
</svg>