<?xml version="1.0" encoding="UTF-8"?>
<svg width="36px" height="36px" viewBox="0 0 36 36" version="1.1" xmlns="http://www.w3.org/2000/svg" xmlns:xlink="http://www.w3.org/1999/xlink">
    <!-- Generator: Sketch 52.2 (67145) - http://www.bohemiancoding.com/sketch -->
    <title>icone-bloco/recitacao numerica copy</title>
    <desc>Created with Sketch.</desc>
    <g id="icone-bloco/recitacao-numerica-copy" stroke="none" stroke-width="1" fill="none" fill-rule="evenodd">
        <g id="Group" transform="translate(7.000000, -1.000000)">
            <text id="1" font-family="LucidaGrande, Lucida Grande" font-size="10.592" font-weight="normal" fill="#A3C932">
                <tspan x="3" y="12">1</tspan>
            </text>
            <polygon id="Stroke-458" stroke="#FFFFFF" stroke-width="0.103" points="3.727 13.331 4.538 12.585 1.237 9 0.542 9.64 2.27373675e-13 10.955 0.717 11.456 1.101 10.501 1.112 10.491"></polygon>
            <text id="-" font-family="LucidaGrande, Lucida Grande" font-size="10.3053" font-weight="normal"></text>
            <text id="2" font-family="LucidaGrande, Lucida Grande" font-size="9.5714" font-weight="normal" fill="#F59503">
                <tspan x="7" y="9">2</tspan>
            </text>
            <path d="M10.689,10.2046062 L10.376,9.3216062 L8.645,9.9356062 L8.64,9.9216062 L8.938,9.4176062 C9.392,8.5886062 9.732,7.7766062 9.458,7.0066062 C9.163,6.1726062 8.375,5.7686062 7.336,6.1366062 C6.715,6.3576062 6.253,6.7596062 6,7.1446062 L6.577,7.8066062 C6.752,7.5376062 7.028,7.2166062 7.423,7.0766062 C7.953,6.8886062 8.284,7.1046062 8.417,7.4796062 C8.594,8.0216062 8.289,8.7096062 7.605,9.9626062 L7.202,10.7106062 L7.432,11.3606062 L10.689,10.2046062 Z" id="Stroke-459" stroke="#FFFFFF" stroke-width="0.103"></path>
            <text id="-" font-family="LucidaGrande, Lucida Grande" font-size="7.907" font-weight="normal"></text>
            <text id="3" font-family="LucidaGrande, Lucida Grande" font-size="5.8458" font-weight="normal" fill="#00BEC7">
                <tspan x="12" y="9">3</tspan>
            </text>
            <path d="M12,9.33629222 C12.243,9.56929222 12.732,9.83729222 13.349,9.96329222 C14.56,10.2102922 15.428,9.74529222 15.601,8.90029222 C15.728,8.27629222 15.354,7.74829222 14.802,7.52829222 L14.805,7.51429222 C15.434,7.42829222 15.802,7.09029222 15.905,6.58329222 C16.039,5.92929222 15.582,5.27829222 14.561,5.06929222 C13.945,4.94429222 13.336,5.00329222 13.012,5.12829222 L13.075,5.98229222 C13.297,5.90529222 13.743,5.82029222 14.132,5.90029222 C14.602,5.99629222 14.793,6.25729222 14.735,6.54329222 C14.653,6.94729222 14.147,6.98929222 13.771,6.92029222 L13.337,6.83229222 L13.174,7.63229222 L13.629,7.72529222 C14.121,7.82629222 14.548,8.13529222 14.452,8.60529222 C14.379,8.96529222 14.028,9.18429222 13.448,9.06529222 C12.992,8.97229222 12.576,8.68829222 12.399,8.54529222 L12,9.33629222 Z" id="Stroke-461" stroke="#FFFFFF" stroke-width="0.103"></path>
            <text id="-" font-family="LucidaGrande, Lucida Grande" font-size="3.0749" font-weight="normal"></text>
            <text id="4" font-family="LucidaGrande, Lucida Grande" font-size="1.6277" font-weight="normal" fill="#F8D126">
                <tspan x="16" y="11">4</tspan>
            </text>
            <path d="M18.841,12.492 L19.478,11.603 L19.925,11.923 L20.393,11.27 L19.946,10.949 L21.511,8.764 L20.444,8 L17.407,9.26 L17,9.828 L18.652,11.011 L18.015,11.9 L18.841,12.492 Z M18.283,9.758 L18.291,9.746 L19.373,9.289 C19.668,9.144 19.921,8.996 20.214,8.842 L20.237,8.858 C20.048,9.087 19.872,9.308 19.712,9.532 L19.12,10.358 L18.283,9.758 Z" id="Stroke-463" stroke="#FFFFFF" stroke-width="0.097"></path>
            <text id="-" font-family="LucidaGrande, Lucida Grande" font-size="0.647" font-weight="normal"></text>
            <text id="5" font-family="LucidaGrande, Lucida Grande" font-size="2.8113" font-weight="normal" fill="#A3C932">
                <tspan x="20" y="14">5</tspan>
            </text>
            <path d="M25.331,15.217 L24.121,13 L21.864,13.887 C21.98,14.04 22.077,14.189 22.198,14.411 C22.638,15.216 22.563,15.683 22.148,15.91 C21.721,16.143 21.309,15.83 21.096,15.439 C20.896,15.074 20.808,14.648 20.797,14.421 L20,14.639 C20.004,14.926 20.115,15.396 20.383,15.885 C20.974,16.969 21.988,17.251 22.738,16.842 C23.208,16.585 23.441,16.217 23.48,15.802 C23.529,15.405 23.402,14.968 23.193,14.584 C23.139,14.485 23.098,14.411 23.038,14.331 L23.705,14.079 L24.557,15.64 L25.331,15.217 Z" id="Stroke-465" stroke="#FFFFFF" stroke-width="0.097"></path>
            <text id="-" font-family="LucidaGrande, Lucida Grande" font-size="4.7969" font-weight="normal"></text>
            <text id="6" font-family="LucidaGrande, Lucida Grande" font-size="6.7608" font-weight="normal" fill="#F59503">
                <tspan x="22" y="17">6</tspan>
            </text>
            <path d="M26.7740195,20.9018664 C26.7770195,20.7958664 26.7710195,20.6688664 26.7490195,20.4718664 C26.6850195,19.7548664 26.4350195,19.1718664 26.0000195,18.7308664 C25.5220195,18.2558664 24.7900195,17.9678664 23.9300195,18.0028664 C22.8370195,18.0478664 21.9520195,18.6838664 22.0020195,19.9038664 C22.0430195,20.8978664 22.8190195,21.5648664 23.7280195,21.5278664 C24.6800195,21.4888664 25.1960195,20.8178664 25.1650195,20.0498664 C25.1470195,19.6198664 25.0000195,19.3078664 24.7580195,19.0918664 L24.7570195,19.0708664 C25.2980195,19.1688664 25.8020195,19.5718664 25.9180195,20.5198664 C25.9390195,20.6888664 25.9510195,20.8158664 25.9490195,20.9358664 L26.7740195,20.9018664 Z M22.7910195,19.8578664 C22.7710195,19.3708664 23.1990195,19.1208664 23.6840195,19.0798664 C23.8110195,19.0738664 23.8960195,19.0848664 23.9540195,19.1108664 C24.1910195,19.2068664 24.3770195,19.4398664 24.3890195,19.7288664 C24.4080195,20.1868664 24.0500195,20.4268664 23.6270195,20.4448664 C23.1620195,20.4638664 22.8070195,20.2378664 22.7910195,19.8578664 Z" id="Stroke-467" stroke="#FFFFFF" stroke-width="0.097"></path>
            <text id="-" font-family="LucidaGrande, Lucida Grande" font-size="7.468" font-weight="normal"></text>
            <text id="7" font-family="LucidaGrande, Lucida Grande" font-size="8.5424" font-weight="normal" fill="#00BEC7">
                <tspan x="22" y="21">7</tspan>
            </text>
            <polygon id="Stroke-469" stroke="#FFFFFF" stroke-width="0.104" points="26.467 25.353 25.695 25.057 24.99 26.898 24.978 26.893 22.381 24 22 24.995 24.788 27.961 25.381 28.188"></polygon>
            <text id="-" font-family="LucidaGrande, Lucida Grande" font-size="9.1868" font-weight="normal"></text>
            <text id="8" font-family="LucidaGrande, Lucida Grande" font-size="9.3278" font-weight="normal" fill="#F8D126">
                <tspan x="21" y="25">8</tspan>
            </text>
            <path d="M18.6992249,28.498877 C17.9422249,29.150877 17.7872249,29.973877 18.2962249,30.564877 C18.6592249,30.985877 19.1732249,31.014877 19.5922249,30.863877 L19.6052249,30.878877 C19.4222249,31.314877 19.5092249,31.719877 19.7512249,32.000877 C20.0922249,32.396877 20.7872249,32.565877 21.5492249,31.909877 C22.2012249,31.348877 22.3822249,30.555877 21.9072249,30.004877 C21.6612249,29.718877 21.2772249,29.586877 20.8232249,29.698877 L20.8102249,29.683877 C21.0322249,29.221877 21.0252249,28.756877 20.6882249,28.365877 C20.3082249,27.924877 19.5262249,27.786877 18.6992249,28.498877 Z M19.1222249,29.050877 C19.4082249,28.804877 19.7782249,28.869877 19.9762249,29.109877 C20.1792249,29.345877 20.1892249,29.650877 19.9992249,29.936877 C19.6292249,30.115877 19.2722249,30.126877 19.0262249,29.840877 C18.8272249,29.610877 18.8512249,29.283877 19.1222249,29.050877 Z M21.1402249,31.363877 C20.8592249,31.604877 20.5712249,31.503877 20.3992249,31.303877 C20.2222249,31.097877 20.2392249,30.803877 20.3712249,30.602877 C20.7012249,30.458877 21.0222249,30.425877 21.2122249,30.646877 C21.3892249,30.851877 21.4002249,31.138877 21.1402249,31.363877 Z" id="Stroke-470" stroke="#FFFFFF" stroke-width="0.104"></path>
            <text id="-" font-family="LucidaGrande, Lucida Grande" font-size="8.927" font-weight="normal"></text>
            <text id="9" font-family="LucidaGrande, Lucida Grande" font-size="7.8832" font-weight="normal" fill="#A3C932">
                <tspan x="17" y="29">9</tspan>
            </text>
            <path d="M16.3153689,30 C16.2043689,30.018 16.0343689,30.048 15.8693689,30.098 C15.2233689,30.268 14.7183689,30.589 14.3973689,31.039 C14.0313689,31.56 13.8943689,32.261 14.0873689,33.133 C14.3033689,34.115 14.9963689,34.829 16.0743689,34.591 C16.9983689,34.387 17.5043689,33.551 17.3243689,32.731 C17.1443689,31.917 16.4343689,31.552 15.7233689,31.709 C15.3423689,31.793 15.0953689,31.962 14.9503689,32.197 L14.9303689,32.195 C14.9373689,31.862 15.0583689,31.55 15.2883689,31.303 C15.4803689,31.098 15.7653689,30.947 16.0583689,30.863 C16.2493689,30.807 16.3593689,30.783 16.4843689,30.769 L16.3153689,30 Z M15.9423689,33.868 C15.4963689,33.967 15.2323689,33.564 15.1333689,33.119 C15.1063689,32.996 15.1113689,32.927 15.1313689,32.862 C15.1893689,32.693 15.3473689,32.523 15.6123689,32.465 C16.0133689,32.376 16.2753689,32.644 16.3553689,33.005 C16.4583689,33.443 16.2783689,33.794 15.9423689,33.868 Z" id="Stroke-472" stroke="#FFFFFF" stroke-width="0.104"></path>
            <text id="-" font-family="LucidaGrande, Lucida Grande" font-size="6.3617" font-weight="normal"></text>
            <text id="1" font-family="LucidaGrande, Lucida Grande" font-size="4.9068" font-weight="normal" fill="#F59503">
                <tspan x="13" y="30">1</tspan>
            </text>
            <polygon id="Stroke-474" stroke="#FFFFFF" stroke-width="0.097" points="11.643 30.17 10.752 30 10 33.941 10.764 34.087 11.899 33.801 11.879 33.081 11.059 33.295 11.047 33.293"></polygon>
            <text id="0" font-family="LucidaGrande, Lucida Grande" font-size="1.6358" font-weight="normal" fill="#F59503">
                <tspan x="10" y="30">0</tspan>
            </text>
            <path d="M5.60549933,32.6732651 C6.46349933,33.2562651 7.38849933,32.7732651 8.04149933,31.8132651 C8.67449933,30.8702651 8.82049933,29.8422651 7.96249933,29.2592651 C7.11549933,28.6832651 6.22249933,29.1072651 5.52549933,30.1332651 C4.90749933,31.0422651 4.71749933,32.0692651 5.60549933,32.6732651 Z M6.01449933,32.0932651 C5.70349933,31.8812651 5.80849933,31.3862651 6.30849933,30.6502651 C6.82149933,29.8952651 7.24249933,29.6282651 7.54349933,29.8332651 C7.84449933,30.0372651 7.78249933,30.5252651 7.25949933,31.2822651 C6.74149933,32.0562651 6.30049933,32.2872651 6.01449933,32.0932651 Z" id="Stroke-475" stroke="#FFFFFF" stroke-width="0.097"></path>
            <text id="-" font-family="LucidaGrande, Lucida Grande" font-size="1.3954" font-weight="normal"></text>
            <text id="1" font-family="LucidaGrande, Lucida Grande" font-size="4.21" font-weight="normal" fill="#00BEC7">
                <tspan x="7" y="27">1</tspan>
            </text>
            <polygon id="Stroke-477" stroke="#FFFFFF" stroke-width="0.097" points="6.107 26.872 5.854 26 2 27.118 2.217 27.865 2.987 28.747 3.62 28.403 3.057 27.769 3.054 27.757"></polygon>
            <text id="1" font-family="LucidaGrande, Lucida Grande" font-size="6.842" font-weight="normal" fill="#00BEC7">
                <tspan x="6" y="24">1</tspan>
            </text>
            <polygon id="Stroke-478" stroke="#FFFFFF" stroke-width="0.097" points="5.971 23.363 6.075 22.462 2.089 22 2 22.773 2.368 23.884 3.085 23.812 2.812 23.01 2.813 22.997"></polygon>
            <text id="-" font-family="LucidaGrande, Lucida Grande" font-size="7.4092" font-weight="normal"></text>
            <text id="1" font-family="LucidaGrande, Lucida Grande" font-size="8.0206" font-weight="normal" fill="#F8D126">
                <tspan x="6" y="20">1</tspan>
            </text>
            <polygon id="Stroke-479" stroke="#FFFFFF" stroke-width="0.105" points="7.138 19.9 7.641 19.224 4.651 17 4.22 17.579 4 18.644 4.61 18.919 4.763 18.147 4.769 18.138"></polygon>
            <text id="2" font-family="LucidaGrande, Lucida Grande" font-size="7.7668" font-weight="normal" fill="#F8D126">
                <tspan x="8" y="18">2</tspan>
            </text>
            <path d="M9.902,17.8856275 L9.562,17.2546275 L8.326,17.9216275 L8.32,17.9116275 L8.487,17.4966275 C8.732,16.8166275 8.894,16.1626275 8.597,15.6126275 C8.276,15.0176275 7.634,14.8046275 6.892,15.2046275 C6.448,15.4436275 6.146,15.8026275 6,16.1226275 L6.513,16.5546275 C6.614,16.3316275 6.785,16.0566275 7.068,15.9046275 C7.446,15.6996275 7.722,15.8246275 7.866,16.0926275 C8.063,16.4806275 7.913,17.0376275 7.543,18.0646275 L7.326,18.6766275 L7.576,19.1406275 L9.902,17.8856275 Z" id="Stroke-480" stroke="#FFFFFF" stroke-width="0.105"></path>
            <text id="-" font-family="LucidaGrande, Lucida Grande" font-size="6.6977" font-weight="normal"></text>
            <text id="1" font-family="LucidaGrande, Lucida Grande" font-size="4.4529" font-weight="normal" fill="#A3C932">
                <tspan x="11" y="16">1</tspan>
            </text>
            <polygon id="Stroke-482" stroke="#FFFFFF" stroke-width="0.097" points="12.345 17.385 13.114 17.5 13.622 14.098 12.962 14 12 14.284 12.041 14.9 12.736 14.688 12.747 14.69"></polygon>
            <text id="3" font-family="LucidaGrande, Lucida Grande" font-size="0.7853" font-weight="normal" fill="#A3C932">
                <tspan x="13" y="18">3</tspan>
            </text>
            <path d="M14,17.307 C14.076,17.532 14.295,17.859 14.641,18.139 C15.32,18.688 16.015,18.678 16.397,18.205 C16.68,17.856 16.617,17.403 16.343,17.086 L16.35,17.078 C16.772,17.229 17.112,17.137 17.342,16.853 C17.638,16.487 17.564,15.93 16.992,15.467 C16.647,15.188 16.246,15.027 16.003,15 L15.764,15.556 C15.928,15.58 16.235,15.672 16.453,15.848 C16.717,16.061 16.752,16.287 16.622,16.447 C16.439,16.673 16.108,16.535 15.895,16.37 L15.652,16.173 L15.29,16.622 L15.545,16.828 C15.82,17.051 15.987,17.383 15.774,17.647 C15.611,17.848 15.32,17.871 14.995,17.608 C14.74,17.402 14.571,17.089 14.507,16.941 L14,17.307 Z" id="Stroke-483" stroke="#FFFFFF" stroke-width="0.097"></path>
            <text id="-" font-family="LucidaGrande, Lucida Grande" font-size="2.0131" font-weight="normal"></text>
            <text id="1" font-family="LucidaGrande, Lucida Grande" font-size="4.1292" font-weight="normal" fill="#F59503">
                <tspan x="16" y="19">1</tspan>
            </text>
            <polygon id="Stroke-485" stroke="#FFFFFF" stroke-width="0.107" points="16 21.11 16.099 21.816 19.221 21.378 19.136 20.773 18.636 20 18.105 20.197 18.472 20.753 18.474 20.763"></polygon>
            <text id="4" font-family="LucidaGrande, Lucida Grande" font-size="6.4771" font-weight="normal" fill="#F59503">
                <tspan x="16" y="20">4</tspan>
            </text>
            <path d="M15,23.56 L15.677,23.887 L15.512,24.228 L16.01,24.468 L16.175,24.127 L17.839,24.931 L18.231,24.119 L17.021,22.209 L16.588,22 L15.981,23.258 L15.304,22.931 L15,23.56 Z M16.787,22.861 L16.795,22.865 L17.232,23.545 C17.365,23.727 17.495,23.882 17.634,24.062 L17.626,24.079 C17.448,23.978 17.278,23.885 17.108,23.802 L16.479,23.499 L16.787,22.861 Z" id="Stroke-486" stroke="#FFFFFF" stroke-width="0.107"></path>
            <text id="-" font-family="LucidaGrande, Lucida Grande" font-size="7.456" font-weight="normal"></text>
            <text id="1" font-family="LucidaGrande, Lucida Grande" font-size="5.9845" font-weight="normal" fill="#00BEC7">
                <tspan x="15" y="23">1</tspan>
            </text>
            <polygon id="Stroke-488" stroke="#FFFFFF" stroke-width="0.107" points="13.686 24 13 24.193 13.855 27.228 14.443 27.062 15.141 26.462 14.874 25.963 14.373 26.402 14.364 26.404"></polygon>
            <text id="5" font-family="LucidaGrande, Lucida Grande" font-size="2.9423" font-weight="normal" fill="#00BEC7">
                <tspan x="13" y="24">5</tspan>
            </text>
            <path d="M10,26.7147486 L11.636,27.2967486 L12.387,25.8087486 C12.257,25.7837486 12.14,25.7517486 11.975,25.6937486 C11.381,25.4817486 11.206,25.2077486 11.315,24.9017486 C11.427,24.5867486 11.782,24.5587486 12.07,24.6607486 C12.339,24.7567486 12.58,24.9357486 12.69,25.0467486 L12.998,24.5697486 C12.865,24.4237486 12.592,24.2347486 12.232,24.1057486 C11.432,23.8217486 10.783,24.1407486 10.586,24.6937486 C10.462,25.0407486 10.511,25.3367486 10.681,25.5677486 C10.838,25.7927486 11.103,25.9597486 11.386,26.0607486 C11.459,26.0867486 11.514,26.1057486 11.582,26.1197486 L11.355,26.5537486 L10.203,26.1437486 L10,26.7147486 Z" id="Stroke-489" stroke="#FFFFFF" stroke-width="0.107"></path>
        </g>
    </g>
</svg>