<?xml version="1.0" encoding="UTF-8"?>
<svg width="36px" height="36px" viewBox="0 0 36 36" version="1.1" xmlns="http://www.w3.org/2000/svg" xmlns:xlink="http://www.w3.org/1999/xlink">
    <!-- Generator: Sketch 52.2 (67145) - http://www.bohemiancoding.com/sketch -->
    <title>icone-bloco/roda de conversa copy</title>
    <desc>Created with Sketch.</desc>
    <g id="icone-bloco/roda-de-conversa-copy" stroke="none" stroke-width="1" fill="none" fill-rule="evenodd">
        <path d="M16.3122006,24.8530962 C16.8632006,24.3320962 17.3842006,23.7990962 17.6632006,23.1460962 C17.4372006,23.1270962 17.2252006,23.1150962 17.0152006,23.0910962 C15.6212006,22.9370962 14.3232006,22.6010962 13.2112006,21.9310962 C12.1352006,21.2820962 11.5152006,20.4320962 11.2792006,19.4180962 C11.2032006,19.0920962 11.1062006,18.7670962 11.0582006,18.4390962 C10.9012006,17.3780962 11.0402006,16.3510962 11.7422006,15.3990962 C12.3492006,14.5750962 13.2732006,14.0150962 14.4112006,13.6420962 C15.6562006,13.2340962 16.9632006,13.0360962 18.3192006,13.0040962 C19.6632006,12.9740962 20.9722006,13.1070962 22.2322006,13.4620962 C23.4822006,13.8160962 24.5552006,14.3550962 25.3552006,15.1700962 C25.9742006,15.8010962 26.3252006,16.5100962 26.4642006,17.2840962 C26.6132006,18.1110962 26.5352006,18.9220962 26.1622006,19.7120962 C25.8002006,20.4810962 25.2112006,21.1440962 24.4662006,21.7330962 C23.3252006,22.6360962 21.9552006,23.2980962 20.4722006,23.8360962 C19.3412006,24.2470962 18.1702006,24.5790962 16.9442006,24.7940962 C16.7402006,24.8310962 16.5332006,24.8530962 16.3272006,24.8810962 L16.3122006,24.8530962 Z" id="Fill-346" fill="#FFFFFF"></path>
        <path d="M8.224,17.607 C8.224,19.047 7.055,20.215 5.612,20.215 C4.17,20.215 3,19.047 3,17.607 C3,16.167 4.17,15 5.612,15 C7.055,15 8.224,16.167 8.224,17.607" id="Fill-348" fill="#00B3BA"></path>
        <path d="M12.224,8.608 C12.224,10.048 11.055,11.215 9.612,11.215 C8.169,11.215 7,10.048 7,8.608 C7,7.168 8.169,6 9.612,6 C11.055,6 12.224,7.168 12.224,8.608" id="Fill-350" fill="#F5C91F"></path>
        <path d="M21.224,4.607 C21.224,6.047 20.055,7.215 18.612,7.215 C17.169,7.215 16,6.047 16,4.607 C16,3.168 17.169,2 18.612,2 C20.055,2 21.224,3.168 21.224,4.607" id="Fill-352" fill="#F0820A"></path>
        <path d="M30.224,8.608 C30.224,10.048 29.055,11.215 27.612,11.215 C26.169,11.215 25,10.048 25,8.608 C25,7.168 26.169,6 27.612,6 C29.055,6 30.224,7.168 30.224,8.608" id="Fill-354" fill="#94C226"></path>
        <path d="M33.224,17.607 C33.224,19.047 32.055,20.215 30.612,20.215 C29.169,20.215 28,19.047 28,17.607 C28,16.167 29.169,15 30.612,15 C32.055,15 33.224,16.167 33.224,17.607" id="Fill-356" fill="#00B3BA"></path>
        <path d="M31.224,26.608 C31.224,28.048 30.054,29.215 28.612,29.215 C27.17,29.215 26,28.048 26,26.608 C26,25.168 27.17,24 28.612,24 C30.054,24 31.224,25.168 31.224,26.608" id="Fill-358" fill="#F5C91F"></path>
        <path d="M21.224,31.607 C21.224,33.047 20.055,34.215 18.612,34.215 C17.169,34.215 16,33.047 16,31.607 C16,30.168 17.169,29 18.612,29 C20.055,29 21.224,30.168 21.224,31.607" id="Fill-360" fill="#F0820A"></path>
        <path d="M12.224,26.608 C12.224,28.048 11.054,29.215 9.612,29.215 C8.169,29.215 7,28.048 7,26.608 C7,25.168 8.169,24 9.612,24 C11.054,24 12.224,25.168 12.224,26.608" id="Fill-362" fill="#94C226"></path>
    </g>
</svg>