<?xml version="1.0" encoding="UTF-8"?>
<svg width="36px" height="36px" viewBox="0 0 36 36" version="1.1" xmlns="http://www.w3.org/2000/svg" xmlns:xlink="http://www.w3.org/1999/xlink">
    <!-- Generator: Sketch 52.2 (67145) - http://www.bohemiancoding.com/sketch -->
    <title>icone-bloco/sala de leitura copy</title>
    <desc>Created with Sketch.</desc>
    <g id="icone-bloco/sala-de-leitura-copy" stroke="none" stroke-width="1" fill="none" fill-rule="evenodd">
        <path d="M24.562,9 C24.206,9.622 23.902,11.367 23.961,12.599 C24.048,14.367 24.912,15.425 24.753,16.028 C24.151,16.719 14.642,15.962 6.996,15.984 C6.446,15.984 6,15.577 6,15.074 L6,9.91 C6,9.407 6.446,9 6.996,9 L24.562,9 Z" id="Fill-416" fill="#F5F5F5"></path>
        <polygon id="Fill-418" fill="#D9D9D9" points="6 10.5785 23.861 10.5785 23.861 10.4215 6 10.4215"></polygon>
        <polygon id="Fill-419" fill="#D9D9D9" points="6 11.5785 23.772 11.5785 23.772 11.4215 6 11.4215"></polygon>
        <polygon id="Fill-420" fill="#D9D9D9" points="6 12.579 23.723 12.579 23.723 12.421 6 12.421"></polygon>
        <polygon id="Fill-421" fill="#D9D9D9" points="6 13.579 23.726 13.579 23.726 13.421 6 13.421"></polygon>
        <polygon id="Fill-422" fill="#D9D9D9" points="6 14.579 23.828 14.579 23.828 14.421 6 14.421"></polygon>
        <polygon id="Fill-423" fill="#D9D9D9" points="6 15.5785 24.39 15.5785 24.39 15.4215 6 15.4215"></polygon>
        <path d="M23.975,9 L6.367,9 C5.597,9.003 5.001,9.643 5,10.405 L5.002,15.986 C5.003,16.747 5.598,17.388 6.369,17.391 L23.975,17.393 C24.235,17.393 24.445,17.182 24.446,16.923 C24.446,16.663 24.235,16.452 23.975,16.452 L6.369,16.45 C6.149,16.45 5.944,16.256 5.943,15.986 L5.941,10.405 C5.942,10.133 6.147,9.941 6.367,9.941 L23.975,9.941 C24.235,9.941 24.446,9.73 24.446,9.47 C24.446,9.211 24.235,9 23.975,9 Z" id="Fill-424" fill="#F0820A"></path>
        <path d="M30.362,18 C29.914,18.782 29.53,20.979 29.606,22.529 C29.714,24.755 30.803,26.087 30.603,26.847 C29.845,27.715 17.877,26.762 8.255,26.791 C7.562,26.791 7,26.277 7,25.645 L7,19.146 C7,18.513 7.562,18 8.255,18 L30.362,18 Z" id="Fill-426" fill="#F5F5F5"></path>
        <polygon id="Fill-429" fill="#D9D9D9" points="7 19.5985 29.521 19.5985 29.521 19.4015 7 19.4015"></polygon>
        <polygon id="Fill-430" fill="#D9D9D9" points="7 20.5985 29.366 20.5985 29.366 20.4015 7 20.4015"></polygon>
        <polygon id="Fill-431" fill="#D9D9D9" points="7 21.5985 29.312 21.5985 29.312 21.4015 7 21.4015"></polygon>
        <polygon id="Fill-432" fill="#D9D9D9" points="7 22.5985 29.31 22.5985 29.31 22.4015 7 22.4015"></polygon>
        <polygon id="Fill-433" fill="#D9D9D9" points="7 24.5985 29.437 24.5985 29.437 24.4015 7 24.4015"></polygon>
        <polygon id="Fill-434" fill="#D9D9D9" points="7 25.5985 30.144 25.5985 30.144 25.4015 7 25.4015"></polygon>
        <path d="M29.882,17 L7.72,17 C6.751,17.004 6.002,17.809 6,18.767 L6.002,25.792 C6.004,26.751 6.754,27.556 7.723,27.56 L29.882,27.563 C30.209,27.563 30.474,27.298 30.474,26.971 C30.474,26.644 30.209,26.379 29.882,26.379 L7.723,26.376 C7.58,26.375 7.454,26.318 7.352,26.214 C7.251,26.108 7.186,25.962 7.186,25.792 L7.184,18.767 C7.184,18.597 7.249,18.451 7.349,18.346 C7.451,18.242 7.578,18.184 7.72,18.184 L29.882,18.184 C30.209,18.184 30.474,17.919 30.474,17.592 C30.474,17.265 30.209,17 29.882,17" id="Fill-435" fill="#94C226"></path>
    </g>
</svg>