<?xml version="1.0" encoding="UTF-8"?>
<svg width="36px" height="36px" viewBox="0 0 36 36" version="1.1" xmlns="http://www.w3.org/2000/svg" xmlns:xlink="http://www.w3.org/1999/xlink">
    <!-- Generator: Sketch 52.2 (67145) - http://www.bohemiancoding.com/sketch -->
    <title>icone-bloco/tome nota copy</title>
    <desc>Created with Sketch.</desc>
    <g id="icone-bloco/tome-nota-copy" stroke="none" stroke-width="1" fill="none" fill-rule="evenodd">
        <path d="M12,24.886 C13.199,24.886 13.799,25.39 14.199,26.296 L14.299,26.397 L25.294,15.519 L25.794,14.914 L25.693,14.814 L25.593,14.713 L25.494,14.613 L25.394,14.512 L25.294,14.41 L25.193,14.31 L25.094,14.209 L24.994,14.109 L24.894,14.008 L24.794,13.907 L24.694,13.807 L24.594,13.705 L24.494,13.605 L24.394,13.504 L24.294,13.404 L24.194,13.303 L24.094,13.202 L23.994,13.102 L23.894,13 L23.794,13 L12,24.886 Z" id="Fill-316" fill="#036938"></path>
        <polygon id="Fill-319" fill="#94C226" points="9.799 28.611 8.199 27 7 29.719"></polygon>
        <path d="M10,22.583 C10.5,22.684 10.8,22.986 11.1,23.389 C11.6,23.993 11.399,24.497 11.6,24.899 L23.394,13.014 L23.394,12.913 L23.294,12.812 L23.194,12.712 L23.094,12.611 L22.994,12.511 L22.894,12.41 L22.794,12.309 L22.694,12.208 L22.594,12.107 L22.494,12.007 L22.394,11.906 L22.294,11.806 L22.194,11.705 L22.094,11.604 L21.995,11.503 L21.894,11.402 L21.794,11.302 L21.695,11.201 L21.595,11.101 L21.495,11 L10,22.583 Z" id="Fill-320" fill="#94C226"></path>
        <path d="M24.999,7.504 L23,9.519 L26.998,13.446 C27.598,13.043 29.397,11.432 29.397,10.425 L29.397,10.022 C29.397,9.316 27.098,7 26.398,7 L25.998,7 C25.499,7 25.299,7.302 24.999,7.504" id="Fill-322" fill="#F0820A"></path>
        <path d="M8,27.029 L9.6,28.64 L13.598,26.928 L13.598,26.827 L13.497,26.726 C13.098,25.82 12.498,25.316 11.299,25.316 C11.099,24.914 11.299,24.41 10.799,23.805 C10.499,23.403 10.199,23.1 9.699,23 L8,27.029 Z" id="Fill-324" fill="#FCCF73"></path>
        <polygon id="Fill-327" fill="#F2EBD6" points="21 11.511 21.1 11.612 21.2 11.712 21.3 11.813 21.4 11.913 21.5 12.014 21.6 12.115 21.7 12.216 21.8 12.317 21.9 12.417 22 12.518 22.1 12.618 22.2 12.719 22.299 12.82 22.399 12.921 22.5 13.022 22.599 13.122 22.699 13.223 22.799 13.323 22.899 13.424 22.999 13.525 23.099 13.626 23.199 13.727 23.299 13.827 23.399 13.928 23.499 14.029 23.599 14.129 23.699 14.23 23.799 14.331 23.899 14.432 23.999 14.532 24.099 14.633 24.199 14.734 24.298 14.834 24.399 14.935 24.499 15.036 24.599 15.137 24.698 15.238 24.798 15.338 24.899 15.439 26.398 13.928 22.399 10"></polygon>
    </g>
</svg>