<?xml version="1.0" encoding="UTF-8"?>
<svg width="36px" height="36px" viewBox="0 0 36 36" version="1.1" xmlns="http://www.w3.org/2000/svg" xmlns:xlink="http://www.w3.org/1999/xlink">
    <!-- Generator: Sketch 52.2 (67145) - http://www.bohemiancoding.com/sketch -->
    <title>icone-bloco/vamos pesquisar copy</title>
    <desc>Created with Sketch.</desc>
    <g id="icone-bloco/vamos-pesquisar-copy" stroke="none" stroke-width="1" fill="none" fill-rule="evenodd">
        <path d="M18.719,2 C13.904,2 10,5.896 10,10.7 C10,15.506 13.904,19.401 18.719,19.401 C23.534,19.401 27.437,15.506 27.437,10.7 C27.437,5.896 23.534,2 18.719,2" id="Fill-142" fill="#6B78A8"></path>
        <polyline id="Fill-145" fill="#FFFFFF" points="18 19 18 24.429 19.744 24.429 19.744 19"></polyline>
        <path d="M17,23.551 L17,33.338 C17,34.194 17.694,34.889 18.551,34.889 C19.407,34.889 20.101,34.194 20.101,33.338 L20.101,23.551 C20.101,22.695 19.407,22 18.551,22 C17.694,22 17,22.695 17,23.551" id="Fill-146" fill="#F0820A"></path>
        <path d="M11.8611183,9.008 C12.2481183,7.298 13.1861183,6.015 14.2511183,5.152 C15.3121183,4.289 16.5111183,3.867 17.3131183,3.872 C17.4121183,3.872 17.5051183,3.878 17.5891183,3.89 C17.8281183,3.922 18.0471183,3.755 18.0801183,3.516 C18.1121183,3.278 17.9451183,3.058 17.7061183,3.026 C17.5791183,3.008 17.4471183,3 17.3131183,3 C16.2341183,3.005 14.9061183,3.507 13.7031183,4.475 C12.5041183,5.443 11.4441183,6.897 11.0111183,8.816 C10.9571183,9.05 11.1051183,9.284 11.3401183,9.337 C11.5741183,9.39 11.8081183,9.243 11.8611183,9.008 Z" id="Fill-148" fill="#FFFFFF"></path>
        <path d="M11.913,10.5 C11.913,10.728 11.728,10.912 11.5,10.912 C11.272,10.912 11.087,10.728 11.087,10.5 C11.087,10.272 11.272,10.088 11.5,10.088 C11.728,10.088 11.913,10.272 11.913,10.5" id="Fill-150" fill="#FFFFFF"></path>
        <path d="M17.943,11.766 C17.895,11.686 17.687,10.745 17.687,10.314 C17.687,10.218 17.704,10.138 17.704,10.106 C17.704,9.42 17,8.255 17,6.915 C17,6.198 17.735,5 18.519,5 C19.238,5 20.23,5.687 20.23,6.915 C20.23,7.042 20.214,7.107 20.214,7.138 C20.214,7.266 20.23,7.394 20.23,7.474 C20.23,7.937 19.83,8.575 19.638,9.42 C19.462,10.17 19.366,10.585 19.366,10.697 L19.366,11.032 C19.366,11.654 19.11,12.133 18.743,12.133 C18.375,12.133 18.071,12.005 17.943,11.766 M19.846,14.797 C19.846,15.532 19.079,16.058 18.439,16.058 C17.975,16.058 17.191,15.356 17.191,14.669 C17.191,13.92 17.816,13.393 18.551,13.393 C19.174,13.393 19.846,13.872 19.846,14.797" id="Fill-152" fill="#94C226"></path>
        <path d="M27.737,10.197 L27.729,10.197 C27.643,5.104 23.495,1 18.373,1 C13.197,1 9.001,5.187 9,10.354 C9.001,15.522 13.197,19.709 18.373,19.709 C23.515,19.709 27.681,15.574 27.735,10.452 L27.737,10.452 L27.737,10.435 C27.737,10.407 27.745,10.382 27.745,10.354 C27.745,10.326 27.737,10.301 27.737,10.273 L27.737,10.197 Z M26.438,10.354 C26.437,12.578 25.536,14.585 24.076,16.044 C22.615,17.501 20.602,18.401 18.373,18.401 C16.144,18.401 14.131,17.501 12.67,16.044 C11.21,14.585 10.309,12.578 10.308,10.354 C10.309,8.13 11.21,6.123 12.67,4.665 C14.131,3.208 16.144,2.308 18.373,2.308 C20.602,2.308 22.615,3.208 24.076,4.665 C25.536,6.123 26.437,8.13 26.438,10.354 Z" id="Fill-154" fill="#FFFFFF"></path>
    </g>
</svg>